;TYPE=PLATED
;Layer: PTH_Through_Via
;EasyEDA Pro v2.2.47.7, 2026-04-29 11:09:57
;Gerber Generator version 0.3
M48
METRIC,LZ,0000.00000
;Hole size 1 = 0.30500 METRIC
T01C0.30500
%
G05
G90
T01
X71.755Y22.352
X59.9915Y23.93213
X59.309Y28.67863
X60.325Y33.66364
X60.325Y40.26764
X49.52746Y38.96817
X45.46346Y38.20617
X45.71746Y36.93617
X46.47946Y46.24959
X47.38903Y48.34306
X50.546Y51.50002
X41.90746Y44.97959
X34.69716Y26.68092
X33.22498Y28.15311
X29.92298Y30.69311
X53.32501Y51.47793
X49.26101Y41.82593
X42.57294Y38.04107
X49.17694Y31.69107
X63.93104Y24.50008
X65.45504Y22.97608
X66.11696Y23.70811
X64.59296Y21.67611
X46.62907Y41.85107
X54.24907Y36.26307
X63.93104Y34.53308
X65.45504Y33.00908
X65.86296Y33.74111
X63.57696Y31.70911
X51.11293Y42.06494
X62.91504Y45.07408
X66.21704Y42.69105
X66.11696Y44.53611
X64.08496Y44.02811
X47.30293Y49.16907
X54.16093Y55.51907
X64.43904Y53.45608
X65.96304Y52.44008
X65.86296Y53.93411
X63.57696Y53.42611
X43.815Y51.17236
X46.101Y52.44236
X41.59098Y32.512
X40.32098Y31.242
X49.022Y51.75402
X50.038Y52.77002
X55.499Y42.418
X57.785Y43.942
X63.16904Y44.14012
X66.21704Y43.63212
X66.27089Y53.24221
X54.29098Y32.766
X68.14896Y30.19704
X68.65696Y33.20313
X68.65696Y24.35504
X72.21296Y26.64104
X45.974Y69.00012
X56.40375Y68.072
X54.47106Y46.80991
X50.15306Y44.26991
X50.292Y47.05198
X46.736Y43.49598
X49.784Y47.76064
X46.54093Y44.51756
X50.35093Y42.66794
X43.942Y34.58134
X40.386Y41.94734
X44.7708Y34.83534
X38.1668Y41.56507
X43.31894Y38.29507
X43.06494Y43.88307
X44.33494Y45.40707
X56.27294Y59.88507
X56.52694Y62.67907
X59.82894Y64.45707
X38.29507Y40.81094
X38.04107Y39.28694
X37.02507Y42.84294
X64.79413Y62.627
X45.12107Y43.37507
X63.91707Y65.21907
X44.82694Y50.09693
X61.08294Y63.55893
X45.12894Y46.16907
X59.86094Y62.93307
X51.18506Y40.07307
X56.77306Y38.80307
X57.53506Y40.07307
X66.67906Y40.32707
X64.90106Y42.61307
X67.38696Y30.36697
X67.18706Y20.26107
X45.56506Y40.83507
X57.94705Y38.73906
X67.38696Y40.00906
X67.38696Y47.24806
X67.38696Y56.64606
X66.87896Y28.83306
X50.85893Y40.81094
X60.25693Y37.00094
X56.70093Y39.79494
X56.19293Y41.57294
X60.25693Y45.38294
X61.61405Y56.64606
X60.51093Y27.09494
X49.84293Y43.57294
X58.47893Y45.60494
X61.64504Y47.38294
X60.37504Y42.55694
X62.91504Y50.17694
X61.64504Y40.12794
X61.64504Y30.34894
X61.64504Y20.31594
X51.03876Y65.532
X52.05476Y64.516
X43.06494Y49.33493
X42.81094Y45.27093
X41.03294Y43.23893
X38.76116Y22.42515
X42.80306Y46.79493
X37.21506Y26.59101
X33.41599Y40.14292
X40.01999Y47.50892
X22.352Y37.34892
X44.45Y49.28692
X29.09799Y29.19908
X24.77999Y27.86329
X24.52599Y29.89529
X26.78201Y29.96108
X29.49397Y31.40304
M30