G04 Layer: InnerLayer4*
G04 EasyEDA Pro v2.2.47.7, 2026-04-29 11:09:57*
G04 Gerber Generator version 0.3*
G04 Scale: 100 percent, Rotated: No, Reflected: No*
G04 Dimensions in millimeters*
G04 Leading zeros omitted, absolute positions, 4 integers and 5 decimals*
G04 Generated by one-click*
G04 Object Configs: Pad,Via,Track,Text,Image,Dimension,BoardOutline,BoardCutout,CopperFilled,SolidRegion,FPCStiffener,Line,PlaneZone,ComponentProperty,ComponentSilkscreen,TearDrop*
G04 Layer Configs: 1,15,16,17,18,2,3,4,5,6,7,8,9,10,11,13,14,56*
G04 Copper Areas: 23*
%FSLAX45Y45*%
%MOMM*%
%ADD10C,0.2032*%
%ADD11C,0.90508*%
%ADD12C,0.60508*%
%ADD13C,1.00508*%
%ADD14C,0.85508*%
%ADD15R,1.7022X1.7*%
%ADD16R,1.7X1.7*%
%ADD17C,1.7*%
%ADD18O,1.8X1.2*%
%ADD19O,2.0X1.2*%
%ADD20C,0.61001*%
G75*


G04 Copper Start*
G36*
G01X1575013Y7022887D02*
G01X8013487Y7022887D01*
G01X8013487Y1867113D01*
G01X1575013Y1867113D01*
G01X1575013Y2031594D01*
G01X6108390Y2031594D01*
G01X6110302Y2017070D01*
G01X6115908Y2003537D01*
G01X6124825Y1991915D01*
G01X6136447Y1982998D01*
G01X6149981Y1977392D01*
G01X6164504Y1975480D01*
G01X6179027Y1977392D01*
G01X6192561Y1982998D01*
G01X6204182Y1991915D01*
G01X6213100Y2003537D01*
G01X6218705Y2017070D01*
G01X6219895Y2026107D01*
G01X6662593Y2026107D01*
G01X6664505Y2011584D01*
G01X6670111Y1998050D01*
G01X6679028Y1986429D01*
G01X6690650Y1977511D01*
G01X6704183Y1971906D01*
G01X6718706Y1969994D01*
G01X6733230Y1971906D01*
G01X6746763Y1977511D01*
G01X6758385Y1986429D01*
G01X6767302Y1998050D01*
G01X6772908Y2011584D01*
G01X6774820Y2026107D01*
G01X6772908Y2040630D01*
G01X6767302Y2054164D01*
G01X6758385Y2065786D01*
G01X6746763Y2074703D01*
G01X6733230Y2080309D01*
G01X6718706Y2082221D01*
G01X6704183Y2080309D01*
G01X6690650Y2074703D01*
G01X6679028Y2065786D01*
G01X6670111Y2054164D01*
G01X6664505Y2040630D01*
G01X6662593Y2026107D01*
G01X6662593Y2026107D01*
G01X6219895Y2026107D01*
G01X6220617Y2031594D01*
G01X6218705Y2046117D01*
G01X6213100Y2059650D01*
G01X6204182Y2071272D01*
G01X6192561Y2080189D01*
G01X6179027Y2085795D01*
G01X6164504Y2087707D01*
G01X6149981Y2085795D01*
G01X6136447Y2080189D01*
G01X6124825Y2071272D01*
G01X6115908Y2059650D01*
G01X6110302Y2046117D01*
G01X6108390Y2031594D01*
G01X6108390Y2031594D01*
G01X1575013Y2031594D01*
G01X1575013Y2167611D01*
G01X6403183Y2167611D01*
G01X6405095Y2153087D01*
G01X6410700Y2139554D01*
G01X6419618Y2127932D01*
G01X6431239Y2119015D01*
G01X6444773Y2113409D01*
G01X6459296Y2111497D01*
G01X6473819Y2113409D01*
G01X6487353Y2119015D01*
G01X6498975Y2127932D01*
G01X6507892Y2139554D01*
G01X6513498Y2153087D01*
G01X6515410Y2167611D01*
G01X6513498Y2182134D01*
G01X6507892Y2195667D01*
G01X6498975Y2207289D01*
G01X6487353Y2216206D01*
G01X6473819Y2221812D01*
G01X6459296Y2223724D01*
G01X6444773Y2221812D01*
G01X6431239Y2216206D01*
G01X6419618Y2207289D01*
G01X6410700Y2195667D01*
G01X6405095Y2182134D01*
G01X6403183Y2167611D01*
G01X6403183Y2167611D01*
G01X1575013Y2167611D01*
G01X1575013Y2242515D01*
G01X3820003Y2242515D01*
G01X3821915Y2227992D01*
G01X3827520Y2214458D01*
G01X3836438Y2202837D01*
G01X3848059Y2193919D01*
G01X3861593Y2188314D01*
G01X3876116Y2186402D01*
G01X3890639Y2188314D01*
G01X3904173Y2193919D01*
G01X3915795Y2202837D01*
G01X3924712Y2214458D01*
G01X3930318Y2227992D01*
G01X3931267Y2235200D01*
G01X7119386Y2235200D01*
G01X7121298Y2220677D01*
G01X7126904Y2207143D01*
G01X7135822Y2195522D01*
G01X7147443Y2186604D01*
G01X7160977Y2180998D01*
G01X7175500Y2179086D01*
G01X7190023Y2180998D01*
G01X7203557Y2186604D01*
G01X7215178Y2195522D01*
G01X7224096Y2207143D01*
G01X7229702Y2220677D01*
G01X7231614Y2235200D01*
G01X7229702Y2249723D01*
G01X7224096Y2263257D01*
G01X7215178Y2274878D01*
G01X7203557Y2283796D01*
G01X7190023Y2289402D01*
G01X7175500Y2291314D01*
G01X7160977Y2289402D01*
G01X7147443Y2283796D01*
G01X7135822Y2274878D01*
G01X7126904Y2263257D01*
G01X7121298Y2249723D01*
G01X7119386Y2235200D01*
G01X7119386Y2235200D01*
G01X3931267Y2235200D01*
G01X3932230Y2242515D01*
G01X3930318Y2257038D01*
G01X3924712Y2270572D01*
G01X3915795Y2282194D01*
G01X3904173Y2291111D01*
G01X3894181Y2295250D01*
G01X6489440Y2295250D01*
G01X6492006Y2280673D01*
G01X6498295Y2267275D01*
G01X6507868Y2255987D01*
G01X6507868Y2255987D01*
G01X6520060Y2247594D01*
G01X6534022Y2242681D01*
G01X6548783Y2241590D01*
G01X6563315Y2244396D01*
G01X6576609Y2250904D01*
G01X6587738Y2260661D01*
G01X6595929Y2272989D01*
G01X6600611Y2287030D01*
G01X6601460Y2301807D01*
G01X6598416Y2316291D01*
G01X6613133Y2314715D01*
G01X6627750Y2317042D01*
G01X6641250Y2323110D01*
G01X6652693Y2332496D01*
G01X6661285Y2344549D01*
G01X6666427Y2358428D01*
G01X6667760Y2373169D01*
G01X6665194Y2387745D01*
G01X6658905Y2401144D01*
G01X6649332Y2412432D01*
G01X6637140Y2420824D01*
G01X6623178Y2425737D01*
G01X6608417Y2426828D01*
G01X6593885Y2424022D01*
G01X6580591Y2417514D01*
G01X6569462Y2407757D01*
G01X6561271Y2395429D01*
G01X6556589Y2381388D01*
G01X6555740Y2366612D01*
G01X6558784Y2352127D01*
G01X6544067Y2353703D01*
G01X6529450Y2351376D01*
G01X6515950Y2345308D01*
G01X6504507Y2335922D01*
G01X6495915Y2323870D01*
G01X6490773Y2309991D01*
G01X6489440Y2295250D01*
G01X3894181Y2295250D01*
G01X3890639Y2296717D01*
G01X3876116Y2298629D01*
G01X3861593Y2296717D01*
G01X3848059Y2291111D01*
G01X3836438Y2282194D01*
G01X3827520Y2270572D01*
G01X3821915Y2257038D01*
G01X3820003Y2242515D01*
G01X3820003Y2242515D01*
G01X1575013Y2242515D01*
G01X1575013Y2463089D01*
G01X1745150Y2463089D01*
G01X1746979Y2446855D01*
G01X1752375Y2431435D01*
G01X1761066Y2417603D01*
G01X1772618Y2406051D01*
G01X1786451Y2397360D01*
G01X1801870Y2391964D01*
G01X1818104Y2390135D01*
G01X1878104Y2390135D01*
G01X1894338Y2391964D01*
G01X1909757Y2397360D01*
G01X1923590Y2406051D01*
G01X1935142Y2417603D01*
G01X1943833Y2431435D01*
G01X1949229Y2446855D01*
G01X1951058Y2463089D01*
G01X1951058Y2463089D01*
G01X2153133Y2463089D01*
G01X2154962Y2446855D01*
G01X2160357Y2431435D01*
G01X2169049Y2417603D01*
G01X2180600Y2406051D01*
G01X2194433Y2397360D01*
G01X2209853Y2391964D01*
G01X2226086Y2390135D01*
G01X2306086Y2390135D01*
G01X2322320Y2391964D01*
G01X2325891Y2393213D01*
G01X5943036Y2393213D01*
G01X5944948Y2378690D01*
G01X5950554Y2365157D01*
G01X5959471Y2353535D01*
G01X5971093Y2344618D01*
G01X5984627Y2339012D01*
G01X5999150Y2337100D01*
G01X6013673Y2339012D01*
G01X6027207Y2344618D01*
G01X6038828Y2353535D01*
G01X6047746Y2365157D01*
G01X6053351Y2378690D01*
G01X6055263Y2393213D01*
G01X6053351Y2407737D01*
G01X6047746Y2421270D01*
G01X6038828Y2432892D01*
G01X6027207Y2441809D01*
G01X6013673Y2447415D01*
G01X5999150Y2449327D01*
G01X5984627Y2447415D01*
G01X5971093Y2441809D01*
G01X5959471Y2432892D01*
G01X5950554Y2421270D01*
G01X5944948Y2407737D01*
G01X5943036Y2393213D01*
G01X5943036Y2393213D01*
G01X2325891Y2393213D01*
G01X2337740Y2397360D01*
G01X2351572Y2406051D01*
G01X2363124Y2417603D01*
G01X2371815Y2431435D01*
G01X2377211Y2446855D01*
G01X2377566Y2450008D01*
G01X6336990Y2450008D01*
G01X6338902Y2435485D01*
G01X6344508Y2421951D01*
G01X6353425Y2410329D01*
G01X6365047Y2401412D01*
G01X6378581Y2395806D01*
G01X6393104Y2393894D01*
G01X6407627Y2395806D01*
G01X6421161Y2401412D01*
G01X6432782Y2410329D01*
G01X6441700Y2421951D01*
G01X6447305Y2435485D01*
G01X6449217Y2450008D01*
G01X6447305Y2464531D01*
G01X6441700Y2478065D01*
G01X6432782Y2489686D01*
G01X6421161Y2498604D01*
G01X6407627Y2504209D01*
G01X6393104Y2506121D01*
G01X6378581Y2504209D01*
G01X6365047Y2498604D01*
G01X6353425Y2489686D01*
G01X6344508Y2478065D01*
G01X6338902Y2464531D01*
G01X6336990Y2450008D01*
G01X6336990Y2450008D01*
G01X2377566Y2450008D01*
G01X2379040Y2463089D01*
G01X2377211Y2479323D01*
G01X2371815Y2494742D01*
G01X2363124Y2508575D01*
G01X2351572Y2520126D01*
G01X2337740Y2528818D01*
G01X2322320Y2534214D01*
G01X2306086Y2536043D01*
G01X2306086Y2536043D01*
G01X2226086Y2536043D01*
G01X2209853Y2534214D01*
G01X2194433Y2528818D01*
G01X2180600Y2520126D01*
G01X2169049Y2508575D01*
G01X2160357Y2494742D01*
G01X2154962Y2479323D01*
G01X2153133Y2463089D01*
G01X1951058Y2463089D01*
G01X1949229Y2479323D01*
G01X1943833Y2494742D01*
G01X1935142Y2508575D01*
G01X1923590Y2520126D01*
G01X1909757Y2528818D01*
G01X1894338Y2534214D01*
G01X1878104Y2536043D01*
G01X1878104Y2536043D01*
G01X1818104Y2536043D01*
G01X1801870Y2534214D01*
G01X1786451Y2528818D01*
G01X1772618Y2520126D01*
G01X1761066Y2508575D01*
G01X1752375Y2494742D01*
G01X1746979Y2479323D01*
G01X1745150Y2463089D01*
G01X1575013Y2463089D01*
G01X1575013Y2605608D01*
G01X2151766Y2605608D01*
G01X2153600Y2590504D01*
G01X2158995Y2576278D01*
G01X2167639Y2563756D01*
G01X2179027Y2553666D01*
G01X2192499Y2546596D01*
G01X2207272Y2542954D01*
G01X2222488Y2542954D01*
G01X2237261Y2546596D01*
G01X2250733Y2553666D01*
G01X2262121Y2563756D01*
G01X2270765Y2576278D01*
G01X2276160Y2590504D01*
G01X2277994Y2605608D01*
G01X2276160Y2620712D01*
G01X2270765Y2634939D01*
G01X2262121Y2647460D01*
G01X2250733Y2657550D01*
G01X2237261Y2664621D01*
G01X2223176Y2668092D01*
G01X3413603Y2668092D01*
G01X3415515Y2653569D01*
G01X3421120Y2640035D01*
G01X3430038Y2628414D01*
G01X3441659Y2619496D01*
G01X3455193Y2613891D01*
G01X3469716Y2611979D01*
G01X3484239Y2613891D01*
G01X3497773Y2619496D01*
G01X3509395Y2628414D01*
G01X3518312Y2640035D01*
G01X3523918Y2653569D01*
G01X3524646Y2659101D01*
G01X3665393Y2659101D01*
G01X3667305Y2644577D01*
G01X3672911Y2631044D01*
G01X3681828Y2619422D01*
G01X3693450Y2610505D01*
G01X3706983Y2604899D01*
G01X3721506Y2602987D01*
G01X3736030Y2604899D01*
G01X3749563Y2610505D01*
G01X3761185Y2619422D01*
G01X3770102Y2631044D01*
G01X3775708Y2644577D01*
G01X3777620Y2659101D01*
G01X3775708Y2673624D01*
G01X3770102Y2687157D01*
G01X3761185Y2698779D01*
G01X3749563Y2707696D01*
G01X3745223Y2709494D01*
G01X5994979Y2709494D01*
G01X5996891Y2694971D01*
G01X6002497Y2681437D01*
G01X6011414Y2669816D01*
G01X6023036Y2660898D01*
G01X6036570Y2655293D01*
G01X6051093Y2653381D01*
G01X6065616Y2655293D01*
G01X6079150Y2660898D01*
G01X6090771Y2669816D01*
G01X6099689Y2681437D01*
G01X6105294Y2694971D01*
G01X6107206Y2709494D01*
G01X6105294Y2724017D01*
G01X6099689Y2737551D01*
G01X6090771Y2749173D01*
G01X6079150Y2758090D01*
G01X6065616Y2763696D01*
G01X6051093Y2765608D01*
G01X6036570Y2763696D01*
G01X6023036Y2758090D01*
G01X6011414Y2749173D01*
G01X6002497Y2737551D01*
G01X5996891Y2724017D01*
G01X5994979Y2709494D01*
G01X5994979Y2709494D01*
G01X3745223Y2709494D01*
G01X3736030Y2713302D01*
G01X3721506Y2715214D01*
G01X3706983Y2713302D01*
G01X3693450Y2707696D01*
G01X3681828Y2698779D01*
G01X3672911Y2687157D01*
G01X3667305Y2673624D01*
G01X3665393Y2659101D01*
G01X3665393Y2659101D01*
G01X3524646Y2659101D01*
G01X3525830Y2668092D01*
G01X3523918Y2682615D01*
G01X3518312Y2696149D01*
G01X3509395Y2707771D01*
G01X3497773Y2716688D01*
G01X3484239Y2722294D01*
G01X3469716Y2724206D01*
G01X3455193Y2722294D01*
G01X3441659Y2716688D01*
G01X3430038Y2707771D01*
G01X3421120Y2696149D01*
G01X3415515Y2682615D01*
G01X3413603Y2668092D01*
G01X3413603Y2668092D01*
G01X2223176Y2668092D01*
G01X2222488Y2668262D01*
G01X2207272Y2668262D01*
G01X2192499Y2664621D01*
G01X2179027Y2657550D01*
G01X2167639Y2647460D01*
G01X2158995Y2634939D01*
G01X2153600Y2620712D01*
G01X2151766Y2605608D01*
G01X2151766Y2605608D01*
G01X1575013Y2605608D01*
G01X1575013Y2786329D01*
G01X2421885Y2786329D01*
G01X2423797Y2771806D01*
G01X2429403Y2758272D01*
G01X2438320Y2746651D01*
G01X2449942Y2737733D01*
G01X2463475Y2732128D01*
G01X2477999Y2730216D01*
G01X2492522Y2732128D01*
G01X2506055Y2737733D01*
G01X2517677Y2746651D01*
G01X2526594Y2758272D01*
G01X2532200Y2771806D01*
G01X2534112Y2786329D01*
G01X2532200Y2800852D01*
G01X2526594Y2814386D01*
G01X2525885Y2815311D01*
G01X3266384Y2815311D01*
G01X3268296Y2800787D01*
G01X3273902Y2787254D01*
G01X3282819Y2775632D01*
G01X3294441Y2766715D01*
G01X3307975Y2761109D01*
G01X3322498Y2759197D01*
G01X3337021Y2761109D01*
G01X3350555Y2766715D01*
G01X3362176Y2775632D01*
G01X3371094Y2787254D01*
G01X3376699Y2800787D01*
G01X3378611Y2815311D01*
G01X3376699Y2829834D01*
G01X3371094Y2843367D01*
G01X3362176Y2854989D01*
G01X3350555Y2863906D01*
G01X3341002Y2867863D01*
G01X5874786Y2867863D01*
G01X5876698Y2853340D01*
G01X5882304Y2839806D01*
G01X5891222Y2828185D01*
G01X5902843Y2819267D01*
G01X5916377Y2813662D01*
G01X5930900Y2811750D01*
G01X5945423Y2813662D01*
G01X5958957Y2819267D01*
G01X5970578Y2828185D01*
G01X5979496Y2839806D01*
G01X5985102Y2853340D01*
G01X5987014Y2867863D01*
G01X5985102Y2882386D01*
G01X5984721Y2883306D01*
G01X6631783Y2883306D01*
G01X6633695Y2868783D01*
G01X6639300Y2855250D01*
G01X6648218Y2843628D01*
G01X6659839Y2834711D01*
G01X6673373Y2829105D01*
G01X6687896Y2827193D01*
G01X6702419Y2829105D01*
G01X6715953Y2834711D01*
G01X6727575Y2843628D01*
G01X6736492Y2855250D01*
G01X6742098Y2868783D01*
G01X6744010Y2883306D01*
G01X6742098Y2897830D01*
G01X6736492Y2911363D01*
G01X6727575Y2922985D01*
G01X6715953Y2931902D01*
G01X6702419Y2937508D01*
G01X6687896Y2939420D01*
G01X6673373Y2937508D01*
G01X6659839Y2931902D01*
G01X6648218Y2922985D01*
G01X6639300Y2911363D01*
G01X6633695Y2897830D01*
G01X6631783Y2883306D01*
G01X6631783Y2883306D01*
G01X5984721Y2883306D01*
G01X5979496Y2895920D01*
G01X5970578Y2907542D01*
G01X5958957Y2916459D01*
G01X5945423Y2922065D01*
G01X5930900Y2923977D01*
G01X5916377Y2922065D01*
G01X5902843Y2916459D01*
G01X5891222Y2907542D01*
G01X5882304Y2895920D01*
G01X5876698Y2882386D01*
G01X5874786Y2867863D01*
G01X5874786Y2867863D01*
G01X3341002Y2867863D01*
G01X3337021Y2869512D01*
G01X3322498Y2871424D01*
G01X3307975Y2869512D01*
G01X3294441Y2863906D01*
G01X3282819Y2854989D01*
G01X3273902Y2843367D01*
G01X3268296Y2829834D01*
G01X3266384Y2815311D01*
G01X3266384Y2815311D01*
G01X2525885Y2815311D01*
G01X2517677Y2826008D01*
G01X2506055Y2834925D01*
G01X2492522Y2840531D01*
G01X2477999Y2842443D01*
G01X2463475Y2840531D01*
G01X2449942Y2834925D01*
G01X2438320Y2826008D01*
G01X2429403Y2814386D01*
G01X2423797Y2800852D01*
G01X2421885Y2786329D01*
G01X2421885Y2786329D01*
G01X1575013Y2786329D01*
G01X1575013Y2919908D01*
G01X2853685Y2919908D01*
G01X2855597Y2905385D01*
G01X2861203Y2891851D01*
G01X2870120Y2880229D01*
G01X2881742Y2871312D01*
G01X2895275Y2865706D01*
G01X2909799Y2863794D01*
G01X2924322Y2865706D01*
G01X2937855Y2871312D01*
G01X2949477Y2880229D01*
G01X2958394Y2891851D01*
G01X2964000Y2905385D01*
G01X2965912Y2919908D01*
G01X2964000Y2934431D01*
G01X2958394Y2947965D01*
G01X2949477Y2959586D01*
G01X2937855Y2968504D01*
G01X2924322Y2974109D01*
G01X2909799Y2976021D01*
G01X2895275Y2974109D01*
G01X2881742Y2968504D01*
G01X2870120Y2959586D01*
G01X2861203Y2947965D01*
G01X2855597Y2934431D01*
G01X2853685Y2919908D01*
G01X2853685Y2919908D01*
G01X1575013Y2919908D01*
G01X1575013Y2989529D01*
G01X2396485Y2989529D01*
G01X2398397Y2975006D01*
G01X2404003Y2961472D01*
G01X2412920Y2949851D01*
G01X2424542Y2940933D01*
G01X2438075Y2935328D01*
G01X2452599Y2933416D01*
G01X2467122Y2935328D01*
G01X2480655Y2940933D01*
G01X2492277Y2949851D01*
G01X2501194Y2961472D01*
G01X2506800Y2975006D01*
G01X2508712Y2989529D01*
G01X2507846Y2996108D01*
G01X2622088Y2996108D01*
G01X2624000Y2981585D01*
G01X2629606Y2968051D01*
G01X2638523Y2956429D01*
G01X2650145Y2947512D01*
G01X2663678Y2941906D01*
G01X2678201Y2939994D01*
G01X2692725Y2941906D01*
G01X2706258Y2947512D01*
G01X2717880Y2956429D01*
G01X2726797Y2968051D01*
G01X2732403Y2981585D01*
G01X2734315Y2996108D01*
G01X2732403Y3010631D01*
G01X2726797Y3024165D01*
G01X2717880Y3035786D01*
G01X2706258Y3044704D01*
G01X2692725Y3050309D01*
G01X2678201Y3052221D01*
G01X2663678Y3050309D01*
G01X2650145Y3044704D01*
G01X2638523Y3035786D01*
G01X2629606Y3024165D01*
G01X2624000Y3010631D01*
G01X2622088Y2996108D01*
G01X2622088Y2996108D01*
G01X2507846Y2996108D01*
G01X2506800Y3004052D01*
G01X2501194Y3017586D01*
G01X2492277Y3029208D01*
G01X2480655Y3038125D01*
G01X2467122Y3043731D01*
G01X2452599Y3045643D01*
G01X2438075Y3043731D01*
G01X2424542Y3038125D01*
G01X2412920Y3029208D01*
G01X2404003Y3017586D01*
G01X2398397Y3004052D01*
G01X2396485Y2989529D01*
G01X2396485Y2989529D01*
G01X1575013Y2989529D01*
G01X1575013Y3185592D01*
G01X2151766Y3185592D01*
G01X2153600Y3170488D01*
G01X2158995Y3156261D01*
G01X2167639Y3143740D01*
G01X2179027Y3133650D01*
G01X2192499Y3126579D01*
G01X2207272Y3122938D01*
G01X2222488Y3122938D01*
G01X2237261Y3126579D01*
G01X2250733Y3133650D01*
G01X2255674Y3138028D01*
G01X2893330Y3138028D01*
G01X2895916Y3123318D01*
G01X2902291Y3109812D01*
G01X2912003Y3098466D01*
G01X2924364Y3090083D01*
G01X2938498Y3085259D01*
G01X2936197Y3070502D01*
G01X2937870Y3055661D01*
G01X2943398Y3041787D01*
G01X2952391Y3029862D01*
G01X2964210Y3020732D01*
G01X2978020Y3015044D01*
G01X2992840Y3013200D01*
G01X3007623Y3015330D01*
G01X3021320Y3021285D01*
G01X3021320Y3021285D01*
G01X3032960Y3030641D01*
G01X3036040Y3034894D01*
G01X6108390Y3034894D01*
G01X6110302Y3020370D01*
G01X6115908Y3006837D01*
G01X6124825Y2995215D01*
G01X6136447Y2986298D01*
G01X6149981Y2980692D01*
G01X6164504Y2978780D01*
G01X6179027Y2980692D01*
G01X6192561Y2986298D01*
G01X6204182Y2995215D01*
G01X6213100Y3006837D01*
G01X6218705Y3020370D01*
G01X6220617Y3034894D01*
G01X6220380Y3036697D01*
G01X6682583Y3036697D01*
G01X6684495Y3022174D01*
G01X6690100Y3008640D01*
G01X6699018Y2997019D01*
G01X6710639Y2988101D01*
G01X6724173Y2982495D01*
G01X6738696Y2980583D01*
G01X6753219Y2982495D01*
G01X6766753Y2988101D01*
G01X6778375Y2997019D01*
G01X6787292Y3008640D01*
G01X6792898Y3022174D01*
G01X6794810Y3036697D01*
G01X6792898Y3051220D01*
G01X6787292Y3064754D01*
G01X6778375Y3076375D01*
G01X6766753Y3085293D01*
G01X6753219Y3090899D01*
G01X6738696Y3092811D01*
G01X6724173Y3090899D01*
G01X6710639Y3085293D01*
G01X6699018Y3076375D01*
G01X6690100Y3064754D01*
G01X6684495Y3051220D01*
G01X6682583Y3036697D01*
G01X6682583Y3036697D01*
G01X6220380Y3036697D01*
G01X6218705Y3049417D01*
G01X6213100Y3062950D01*
G01X6204182Y3074572D01*
G01X6192561Y3083489D01*
G01X6179027Y3089095D01*
G01X6164504Y3091007D01*
G01X6149981Y3089095D01*
G01X6136447Y3083489D01*
G01X6124825Y3074572D01*
G01X6115908Y3062950D01*
G01X6110302Y3049417D01*
G01X6108390Y3034894D01*
G01X6108390Y3034894D01*
G01X3036040Y3034894D01*
G01X3041721Y3042737D01*
G01X3046980Y3056716D01*
G01X3048365Y3071587D01*
G01X3045779Y3086296D01*
G01X3039404Y3099802D01*
G01X3029692Y3111148D01*
G01X3017331Y3119531D01*
G01X3003197Y3124356D01*
G01X3005498Y3139112D01*
G01X3003825Y3153953D01*
G01X2998297Y3167828D01*
G01X2997332Y3169107D01*
G01X4861580Y3169107D01*
G01X4863492Y3154584D01*
G01X4869098Y3141050D01*
G01X4878016Y3129429D01*
G01X4889637Y3120511D01*
G01X4903171Y3114906D01*
G01X4917694Y3112994D01*
G01X4932217Y3114906D01*
G01X4945751Y3120511D01*
G01X4957372Y3129429D01*
G01X4966290Y3141050D01*
G01X4971896Y3154584D01*
G01X4973808Y3169107D01*
G01X4973570Y3170911D01*
G01X6301583Y3170911D01*
G01X6303495Y3156387D01*
G01X6309100Y3142854D01*
G01X6318018Y3131232D01*
G01X6329639Y3122315D01*
G01X6343173Y3116709D01*
G01X6357696Y3114797D01*
G01X6372219Y3116709D01*
G01X6385753Y3122315D01*
G01X6397375Y3131232D01*
G01X6406292Y3142854D01*
G01X6411898Y3156387D01*
G01X6413810Y3170911D01*
G01X6411898Y3185434D01*
G01X6406292Y3198967D01*
G01X6397375Y3210589D01*
G01X6385753Y3219506D01*
G01X6372219Y3225112D01*
G01X6357696Y3227024D01*
G01X6343173Y3225112D01*
G01X6329639Y3219506D01*
G01X6318018Y3210589D01*
G01X6309100Y3198967D01*
G01X6303495Y3185434D01*
G01X6301583Y3170911D01*
G01X6301583Y3170911D01*
G01X4973570Y3170911D01*
G01X4971896Y3183630D01*
G01X4966290Y3197164D01*
G01X4957372Y3208786D01*
G01X4945751Y3217703D01*
G01X4932217Y3223309D01*
G01X4917694Y3225221D01*
G01X4903171Y3223309D01*
G01X4889637Y3217703D01*
G01X4878016Y3208786D01*
G01X4869098Y3197164D01*
G01X4863492Y3183630D01*
G01X4861580Y3169107D01*
G01X4861580Y3169107D01*
G01X2997332Y3169107D01*
G01X2989304Y3179752D01*
G01X2977485Y3188882D01*
G01X2963675Y3194570D01*
G01X2948855Y3196415D01*
G01X2934072Y3194284D01*
G01X2920375Y3188329D01*
G01X2908735Y3178973D01*
G01X2899974Y3166877D01*
G01X2894715Y3152898D01*
G01X2893330Y3138028D01*
G01X2255674Y3138028D01*
G01X2262121Y3143740D01*
G01X2270765Y3156261D01*
G01X2276160Y3170488D01*
G01X2277994Y3185592D01*
G01X2276160Y3200696D01*
G01X2270765Y3214922D01*
G01X2262121Y3227444D01*
G01X2250733Y3237534D01*
G01X2237261Y3244604D01*
G01X2222488Y3248246D01*
G01X2207272Y3248246D01*
G01X2192499Y3244604D01*
G01X2179027Y3237534D01*
G01X2167639Y3227444D01*
G01X2158995Y3214922D01*
G01X2153600Y3200696D01*
G01X2151766Y3185592D01*
G01X2151766Y3185592D01*
G01X1575013Y3185592D01*
G01X1575013Y3328111D01*
G01X1745150Y3328111D01*
G01X1746979Y3311877D01*
G01X1752375Y3296458D01*
G01X1761066Y3282625D01*
G01X1772618Y3271074D01*
G01X1786451Y3262382D01*
G01X1801870Y3256986D01*
G01X1818104Y3255157D01*
G01X1878104Y3255157D01*
G01X1894338Y3256986D01*
G01X1909757Y3262382D01*
G01X1923590Y3271074D01*
G01X1935142Y3282625D01*
G01X1943833Y3296458D01*
G01X1949229Y3311877D01*
G01X1951058Y3328111D01*
G01X2153133Y3328111D01*
G01X2154962Y3311877D01*
G01X2160357Y3296458D01*
G01X2169049Y3282625D01*
G01X2180600Y3271074D01*
G01X2194433Y3262382D01*
G01X2209853Y3256986D01*
G01X2226086Y3255157D01*
G01X2306086Y3255157D01*
G01X2322320Y3256986D01*
G01X2337740Y3262382D01*
G01X2351572Y3271074D01*
G01X2363124Y3282625D01*
G01X2371815Y3296458D01*
G01X2373578Y3301494D01*
G01X6489393Y3301494D01*
G01X6491244Y3286603D01*
G01X6496975Y3272735D01*
G01X6506176Y3260882D01*
G01X6518189Y3251891D01*
G01X6518189Y3251891D01*
G01X6532155Y3246405D01*
G01X6547076Y3244816D01*
G01X6561885Y3247238D01*
G01X6575522Y3253498D01*
G01X6587012Y3263148D01*
G01X6595535Y3275498D01*
G01X6600480Y3289666D01*
G01X6601493Y3304637D01*
G01X6598504Y3319341D01*
G01X6612581Y3324534D01*
G01X6624780Y3333272D01*
G01X6634226Y3344931D01*
G01X6640245Y3358676D01*
G01X6642407Y3373525D01*
G01X6640556Y3388415D01*
G01X6634825Y3402283D01*
G01X6625624Y3414136D01*
G01X6613611Y3423127D01*
G01X6599645Y3428614D01*
G01X6584724Y3430202D01*
G01X6569915Y3427780D01*
G01X6556278Y3421520D01*
G01X6544788Y3411870D01*
G01X6536265Y3399520D01*
G01X6531320Y3385353D01*
G01X6530307Y3370382D01*
G01X6533296Y3355678D01*
G01X6519219Y3350484D01*
G01X6507020Y3341746D01*
G01X6497574Y3330088D01*
G01X6491555Y3316342D01*
G01X6489393Y3301494D01*
G01X2373578Y3301494D01*
G01X2377211Y3311877D01*
G01X2379040Y3328111D01*
G01X2377211Y3344345D01*
G01X2371815Y3359765D01*
G01X2367669Y3366364D01*
G01X5976386Y3366364D01*
G01X5978298Y3351840D01*
G01X5983904Y3338307D01*
G01X5992822Y3326685D01*
G01X6004443Y3317768D01*
G01X6017977Y3312162D01*
G01X6032500Y3310250D01*
G01X6047023Y3312162D01*
G01X6060557Y3317768D01*
G01X6072178Y3326685D01*
G01X6081096Y3338307D01*
G01X6086702Y3351840D01*
G01X6088614Y3366364D01*
G01X6086702Y3380887D01*
G01X6081096Y3394420D01*
G01X6072178Y3406042D01*
G01X6060557Y3414959D01*
G01X6047023Y3420565D01*
G01X6032500Y3422477D01*
G01X6017977Y3420565D01*
G01X6004443Y3414959D01*
G01X5992822Y3406042D01*
G01X5983904Y3394420D01*
G01X5978298Y3380887D01*
G01X5976386Y3366364D01*
G01X5976386Y3366364D01*
G01X2367669Y3366364D01*
G01X2363124Y3373597D01*
G01X2351572Y3385149D01*
G01X2337740Y3393840D01*
G01X2322320Y3399236D01*
G01X2306086Y3401065D01*
G01X2306086Y3401065D01*
G01X2226086Y3401065D01*
G01X2209853Y3399236D01*
G01X2194433Y3393840D01*
G01X2180600Y3385149D01*
G01X2169049Y3373597D01*
G01X2160357Y3359765D01*
G01X2154962Y3344345D01*
G01X2153133Y3328111D01*
G01X1951058Y3328111D01*
G01X1949229Y3344345D01*
G01X1943833Y3359765D01*
G01X1935142Y3373597D01*
G01X1923590Y3385149D01*
G01X1909757Y3393840D01*
G01X1894338Y3399236D01*
G01X1878104Y3401065D01*
G01X1878104Y3401065D01*
G01X1818104Y3401065D01*
G01X1801870Y3399236D01*
G01X1786451Y3393840D01*
G01X1772618Y3385149D01*
G01X1761066Y3373597D01*
G01X1752375Y3359765D01*
G01X1746979Y3344345D01*
G01X1745150Y3328111D01*
G01X1575013Y3328111D01*
G01X1575013Y3455215D01*
G01X4338162Y3455215D01*
G01X4340549Y3441692D01*
G01X4340549Y3441692D01*
G01X4346149Y3429153D01*
G01X4354627Y3418350D01*
G01X4365476Y3409930D01*
G01X4378044Y3404396D01*
G01X4391580Y3402081D01*
G01X4405273Y3403123D01*
G01X4418303Y3407460D01*
G01X4429889Y3414832D01*
G01X4439338Y3424797D01*
G01X4446083Y3436759D01*
G01X4458372Y3430630D01*
G01X4471782Y3427671D01*
G01X4485509Y3428057D01*
G01X4498731Y3431765D01*
G01X4510657Y3438574D01*
G01X4520572Y3448076D01*
G01X4523861Y3453308D01*
G01X6336990Y3453308D01*
G01X6338902Y3438785D01*
G01X6344508Y3425251D01*
G01X6353425Y3413629D01*
G01X6365047Y3404712D01*
G01X6378581Y3399106D01*
G01X6393104Y3397194D01*
G01X6407627Y3399106D01*
G01X6421161Y3404712D01*
G01X6432782Y3413629D01*
G01X6441700Y3425251D01*
G01X6447305Y3438785D01*
G01X6449217Y3453308D01*
G01X6447305Y3467831D01*
G01X6441700Y3481365D01*
G01X6432782Y3492986D01*
G01X6421161Y3501904D01*
G01X6407627Y3507509D01*
G01X6393104Y3509421D01*
G01X6378581Y3507509D01*
G01X6365047Y3501904D01*
G01X6353425Y3492986D01*
G01X6344508Y3481365D01*
G01X6338902Y3467831D01*
G01X6336990Y3453308D01*
G01X6336990Y3453308D01*
G01X4523861Y3453308D01*
G01X4527881Y3459702D01*
G01X4532149Y3472754D01*
G01X4533118Y3486452D01*
G01X4530731Y3499976D01*
G01X4525131Y3512515D01*
G01X4516653Y3523318D01*
G01X4505805Y3531738D01*
G01X4493236Y3537271D01*
G01X4479700Y3539586D01*
G01X4466007Y3538544D01*
G01X4452978Y3534207D01*
G01X4441391Y3526836D01*
G01X4431943Y3516871D01*
G01X4425197Y3504909D01*
G01X4412908Y3511037D01*
G01X4399498Y3513997D01*
G01X4385771Y3513611D01*
G01X4372549Y3509902D01*
G01X4360623Y3503093D01*
G01X4350709Y3493591D01*
G01X4343399Y3481966D01*
G01X4339131Y3468913D01*
G01X4338162Y3455215D01*
G01X1575013Y3455215D01*
G01X1575013Y3626307D01*
G01X5368793Y3626307D01*
G01X5370705Y3611784D01*
G01X5376311Y3598250D01*
G01X5385228Y3586629D01*
G01X5396850Y3577711D01*
G01X5410383Y3572106D01*
G01X5424907Y3570194D01*
G01X5439430Y3572106D01*
G01X5452963Y3577711D01*
G01X5464585Y3586629D01*
G01X5473502Y3598250D01*
G01X5479108Y3611784D01*
G01X5481020Y3626307D01*
G01X5479108Y3640830D01*
G01X5473502Y3654364D01*
G01X5464585Y3665986D01*
G01X5452963Y3674903D01*
G01X5439430Y3680509D01*
G01X5424907Y3682421D01*
G01X5410383Y3680509D01*
G01X5396850Y3674903D01*
G01X5385228Y3665986D01*
G01X5376311Y3654364D01*
G01X5370705Y3640830D01*
G01X5368793Y3626307D01*
G01X5368793Y3626307D01*
G01X1575013Y3626307D01*
G01X1575013Y3734892D01*
G01X2179086Y3734892D01*
G01X2180998Y3720369D01*
G01X2186604Y3706835D01*
G01X2195522Y3695214D01*
G01X2207143Y3686296D01*
G01X2220677Y3680691D01*
G01X2235200Y3678779D01*
G01X2249723Y3680691D01*
G01X2263257Y3686296D01*
G01X2272798Y3693617D01*
G01X4515632Y3693617D01*
G01X4517544Y3679094D01*
G01X4523150Y3665560D01*
G01X4532068Y3653939D01*
G01X4543689Y3645021D01*
G01X4557223Y3639416D01*
G01X4571746Y3637504D01*
G01X4586269Y3639416D01*
G01X4599803Y3645021D01*
G01X4611424Y3653939D01*
G01X4620342Y3665560D01*
G01X4625948Y3679094D01*
G01X4627860Y3693617D01*
G01X4627007Y3700094D01*
G01X5969579Y3700094D01*
G01X5971491Y3685571D01*
G01X5977097Y3672037D01*
G01X5986014Y3660416D01*
G01X5997636Y3651498D01*
G01X6011170Y3645893D01*
G01X6025693Y3643981D01*
G01X6040216Y3645893D01*
G01X6053750Y3651498D01*
G01X6065371Y3660416D01*
G01X6074289Y3672037D01*
G01X6079894Y3685571D01*
G01X6081806Y3700094D01*
G01X6079894Y3714617D01*
G01X6074289Y3728151D01*
G01X6065371Y3739773D01*
G01X6053750Y3748690D01*
G01X6040216Y3754296D01*
G01X6025693Y3756208D01*
G01X6011170Y3754296D01*
G01X5997636Y3748690D01*
G01X5986014Y3739773D01*
G01X5977097Y3728151D01*
G01X5971491Y3714617D01*
G01X5969579Y3700094D01*
G01X5969579Y3700094D01*
G01X4627007Y3700094D01*
G01X4625948Y3708140D01*
G01X4620342Y3721674D01*
G01X4611424Y3733296D01*
G01X4599803Y3742213D01*
G01X4586269Y3747819D01*
G01X4571746Y3749731D01*
G01X4557223Y3747819D01*
G01X4543689Y3742213D01*
G01X4532068Y3733296D01*
G01X4523150Y3721674D01*
G01X4517544Y3708140D01*
G01X4515632Y3693617D01*
G01X4515632Y3693617D01*
G01X2272798Y3693617D01*
G01X2274878Y3695214D01*
G01X2283796Y3706835D01*
G01X2289402Y3720369D01*
G01X2291314Y3734892D01*
G01X2289402Y3749415D01*
G01X2283796Y3762949D01*
G01X2274878Y3774571D01*
G01X2263257Y3783488D01*
G01X2249723Y3789094D01*
G01X2235200Y3791006D01*
G01X2220677Y3789094D01*
G01X2207143Y3783488D01*
G01X2195522Y3774571D01*
G01X2186604Y3762949D01*
G01X2180998Y3749415D01*
G01X2179086Y3734892D01*
G01X2179086Y3734892D01*
G01X1575013Y3734892D01*
G01X1575013Y3800342D01*
G01X4201307Y3800342D01*
G01X4204175Y3786021D01*
G01X4204175Y3786021D01*
G01X4210642Y3772925D01*
G01X4220270Y3761942D01*
G01X4232406Y3753815D01*
G01X4246228Y3749095D01*
G01X4260800Y3748103D01*
G01X4275135Y3750905D01*
G01X4288261Y3757312D01*
G01X4299288Y3766889D01*
G01X4307471Y3778987D01*
G01X4321336Y3774396D01*
G01X4335917Y3773538D01*
G01X4350225Y3776472D01*
G01X4363291Y3783000D01*
G01X4374230Y3792678D01*
G01X4382301Y3804851D01*
G01X4386956Y3818695D01*
G01X4387078Y3820617D01*
G01X4490232Y3820617D01*
G01X4492144Y3806094D01*
G01X4497750Y3792560D01*
G01X4506668Y3780939D01*
G01X4518289Y3772021D01*
G01X4531823Y3766416D01*
G01X4546346Y3764504D01*
G01X4560869Y3766416D01*
G01X4574403Y3772021D01*
G01X4586024Y3780939D01*
G01X4594942Y3792560D01*
G01X4600548Y3806094D01*
G01X4602460Y3820617D01*
G01X4600548Y3835140D01*
G01X4594942Y3848674D01*
G01X4586024Y3860296D01*
G01X4574403Y3869213D01*
G01X4560869Y3874819D01*
G01X4546346Y3876731D01*
G01X4531823Y3874819D01*
G01X4518289Y3869213D01*
G01X4506668Y3860296D01*
G01X4497750Y3848674D01*
G01X4492144Y3835140D01*
G01X4490232Y3820617D01*
G01X4490232Y3820617D01*
G01X4387078Y3820617D01*
G01X4387881Y3833272D01*
G01X4385013Y3847593D01*
G01X4378546Y3860689D01*
G01X4368918Y3871673D01*
G01X4356782Y3879800D01*
G01X4342960Y3884519D01*
G01X4328388Y3885511D01*
G01X4314053Y3882709D01*
G01X4300927Y3876303D01*
G01X4289899Y3866726D01*
G01X4281717Y3854627D01*
G01X4267851Y3859219D01*
G01X4253271Y3860076D01*
G01X4238963Y3857142D01*
G01X4225897Y3850615D01*
G01X4214958Y3840936D01*
G01X4206887Y3828763D01*
G01X4202232Y3814919D01*
G01X4201307Y3800342D01*
G01X1575013Y3800342D01*
G01X1575013Y3911600D01*
G01X2022946Y3911600D01*
G01X2024828Y3892490D01*
G01X2030402Y3874115D01*
G01X2039454Y3857180D01*
G01X2051636Y3842336D01*
G01X2066480Y3830154D01*
G01X2083415Y3821102D01*
G01X2101790Y3815528D01*
G01X2120900Y3813646D01*
G01X2140010Y3815528D01*
G01X2158385Y3821102D01*
G01X2175320Y3830154D01*
G01X2190164Y3842336D01*
G01X2202346Y3857180D01*
G01X2211398Y3874115D01*
G01X2216972Y3892490D01*
G01X2218854Y3911600D01*
G01X2217170Y3928694D01*
G01X3747994Y3928694D01*
G01X3749906Y3914171D01*
G01X3755511Y3900637D01*
G01X3764429Y3889016D01*
G01X3776050Y3880098D01*
G01X3789584Y3874493D01*
G01X3804107Y3872581D01*
G01X3818630Y3874493D01*
G01X3832164Y3880098D01*
G01X3843786Y3889016D01*
G01X3849772Y3896817D01*
G01X4896632Y3896817D01*
G01X4898544Y3882294D01*
G01X4904150Y3868760D01*
G01X4913068Y3857139D01*
G01X4924689Y3848221D01*
G01X4938223Y3842616D01*
G01X4952746Y3840704D01*
G01X4967269Y3842616D01*
G01X4980803Y3848221D01*
G01X4992424Y3857139D01*
G01X5001342Y3868760D01*
G01X5006948Y3882294D01*
G01X5008860Y3896817D01*
G01X5006948Y3911340D01*
G01X5001342Y3924874D01*
G01X4992424Y3936496D01*
G01X4980803Y3945413D01*
G01X4967269Y3951019D01*
G01X4952746Y3952931D01*
G01X4938223Y3951019D01*
G01X4924689Y3945413D01*
G01X4913068Y3936496D01*
G01X4904150Y3924874D01*
G01X4898544Y3911340D01*
G01X4896632Y3896817D01*
G01X4896632Y3896817D01*
G01X3849772Y3896817D01*
G01X3852703Y3900637D01*
G01X3858309Y3914171D01*
G01X3860221Y3928694D01*
G01X3858309Y3943217D01*
G01X3852703Y3956751D01*
G01X3843786Y3968373D01*
G01X3832164Y3977290D01*
G01X3818630Y3982896D01*
G01X3804107Y3984808D01*
G01X3789584Y3982896D01*
G01X3776050Y3977290D01*
G01X3764429Y3968373D01*
G01X3755511Y3956751D01*
G01X3749906Y3943217D01*
G01X3747994Y3928694D01*
G01X3747994Y3928694D01*
G01X2217170Y3928694D01*
G01X2216972Y3930710D01*
G01X2211398Y3949085D01*
G01X2202346Y3966020D01*
G01X2190164Y3980864D01*
G01X2175320Y3993046D01*
G01X2158385Y4002098D01*
G01X2140010Y4007672D01*
G01X2120900Y4009554D01*
G01X2120900Y4009554D01*
G01X2101790Y4007672D01*
G01X2083415Y4002098D01*
G01X2066480Y3993046D01*
G01X2051636Y3980864D01*
G01X2039454Y3966020D01*
G01X2030402Y3949085D01*
G01X2024828Y3930710D01*
G01X2022946Y3911600D01*
G01X1575013Y3911600D01*
G01X1575013Y4014292D01*
G01X3285485Y4014292D01*
G01X3287397Y3999769D01*
G01X3293003Y3986235D01*
G01X3301920Y3974614D01*
G01X3313542Y3965696D01*
G01X3327075Y3960091D01*
G01X3341599Y3958179D01*
G01X3356122Y3960091D01*
G01X3369655Y3965696D01*
G01X3381277Y3974614D01*
G01X3390194Y3986235D01*
G01X3395800Y3999769D01*
G01X3397712Y4014292D01*
G01X3395800Y4028815D01*
G01X3390194Y4042349D01*
G01X3381277Y4053971D01*
G01X3369655Y4062888D01*
G01X3356122Y4068494D01*
G01X3341599Y4070406D01*
G01X3327075Y4068494D01*
G01X3313542Y4062888D01*
G01X3301920Y4053971D01*
G01X3293003Y4042349D01*
G01X3287397Y4028815D01*
G01X3285485Y4014292D01*
G01X3285485Y4014292D01*
G01X1575013Y4014292D01*
G01X1575013Y4175806D01*
G01X2010759Y4175806D01*
G01X2010759Y4155394D01*
G01X2014509Y4135329D01*
G01X2021883Y4116295D01*
G01X2032629Y4098941D01*
G01X2046380Y4083856D01*
G01X2062670Y4071555D01*
G01X2080942Y4062456D01*
G01X2100575Y4056870D01*
G01X2120900Y4054987D01*
G01X2141225Y4056870D01*
G01X2160858Y4062456D01*
G01X2179130Y4071555D01*
G01X2195420Y4083856D01*
G01X2209171Y4098941D01*
G01X2219917Y4116295D01*
G01X2227291Y4135329D01*
G01X2231041Y4155394D01*
G01X2231041Y4162834D01*
G01X3760924Y4162834D01*
G01X3761154Y4148407D01*
G01X3765056Y4134515D01*
G01X3772371Y4122077D01*
G01X3782616Y4111916D01*
G01X3776306Y4098939D01*
G01X3773515Y4084782D01*
G01X3774426Y4070381D01*
G01X3778979Y4056689D01*
G01X3786873Y4044610D01*
G01X3797587Y4034944D01*
G01X3810411Y4028330D01*
G01X3824498Y4025205D01*
G01X3838916Y4025775D01*
G01X3838916Y4025775D01*
G01X3852713Y4030004D01*
G01X3864974Y4037610D01*
G01X3874891Y4048093D01*
G01X3881806Y4060757D01*
G01X3885263Y4074767D01*
G01X3885124Y4083507D01*
G01X4500392Y4083507D01*
G01X4502304Y4068984D01*
G01X4507910Y4055450D01*
G01X4516828Y4043829D01*
G01X4528449Y4034911D01*
G01X4541983Y4029306D01*
G01X4556506Y4027394D01*
G01X4571029Y4029306D01*
G01X4584563Y4034911D01*
G01X4596184Y4043829D01*
G01X4605102Y4055450D01*
G01X4610708Y4068984D01*
G01X4612620Y4083507D01*
G01X4612200Y4086695D01*
G01X5030059Y4086695D01*
G01X5030529Y4071951D01*
G01X5034825Y4057838D01*
G01X5042651Y4045333D01*
G01X5053465Y4035299D01*
G01X5066520Y4028431D01*
G01X5062812Y4014152D01*
G01X5062952Y3999401D01*
G01X5066933Y3985196D01*
G01X5074477Y3972519D01*
G01X5085065Y3962247D01*
G01X5097964Y3955089D01*
G01X5112283Y3951540D01*
G01X5127032Y3951845D01*
G01X5141191Y3955983D01*
G01X5141191Y3955983D01*
G01X5153783Y3963669D01*
G01X5163937Y3974371D01*
G01X5167339Y3980665D01*
G01X5613991Y3980665D01*
G01X5615278Y3967489D01*
G01X5619617Y3954981D01*
G01X5626765Y3943837D01*
G01X5636324Y3934679D01*
G01X5647764Y3928014D01*
G01X5636263Y3918572D01*
G01X5627648Y3906438D01*
G01X5622526Y3892466D01*
G01X5621256Y3877640D01*
G01X5623928Y3863001D01*
G01X5630354Y3849579D01*
G01X5640082Y3838318D01*
G01X5652428Y3830010D01*
G01X5666523Y3825239D01*
G01X5681377Y3824341D01*
G01X5681377Y3824341D01*
G01X5695944Y3827379D01*
G01X5709201Y3834139D01*
G01X5720215Y3844146D01*
G01X5728211Y3856696D01*
G01X5732627Y3870906D01*
G01X5732733Y3873906D01*
G01X5738592Y3873906D01*
G01X5740504Y3859383D01*
G01X5746109Y3845850D01*
G01X5755027Y3834228D01*
G01X5766648Y3825311D01*
G01X5780182Y3819705D01*
G01X5794705Y3817793D01*
G01X5809228Y3819705D01*
G01X5822762Y3825311D01*
G01X5834384Y3834228D01*
G01X5843301Y3845850D01*
G01X5848907Y3859383D01*
G01X5850819Y3873906D01*
G01X5848907Y3888430D01*
G01X5843301Y3901963D01*
G01X5834384Y3913585D01*
G01X5822762Y3922502D01*
G01X5809228Y3928108D01*
G01X5794705Y3930020D01*
G01X5780182Y3928108D01*
G01X5766648Y3922502D01*
G01X5755027Y3913585D01*
G01X5746109Y3901963D01*
G01X5740504Y3888430D01*
G01X5738592Y3873906D01*
G01X5738592Y3873906D01*
G01X5732733Y3873906D01*
G01X5733153Y3885778D01*
G01X5729751Y3900265D01*
G01X5722661Y3913348D01*
G01X5712382Y3924108D01*
G01X5699635Y3931787D01*
G01X5709436Y3939484D01*
G01X5717297Y3949154D01*
G01X5722829Y3960321D01*
G01X5735254Y3954245D01*
G01X5748787Y3951392D01*
G01X5762607Y3951936D01*
G01X5775874Y3955844D01*
G01X5787783Y3962879D01*
G01X5797609Y3972612D01*
G01X5804755Y3984453D01*
G01X5808789Y3997683D01*
G01X5809463Y4011497D01*
G01X5806739Y4025057D01*
G01X5805924Y4026764D01*
G01X5976386Y4026764D01*
G01X5978298Y4012240D01*
G01X5983904Y3998707D01*
G01X5992822Y3987085D01*
G01X6004443Y3978168D01*
G01X6017977Y3972562D01*
G01X6032500Y3970650D01*
G01X6047023Y3972562D01*
G01X6060557Y3978168D01*
G01X6072178Y3987085D01*
G01X6081096Y3998707D01*
G01X6086702Y4012240D01*
G01X6086774Y4012794D01*
G01X6108390Y4012794D01*
G01X6110302Y3998270D01*
G01X6115908Y3984737D01*
G01X6124825Y3973115D01*
G01X6136447Y3964198D01*
G01X6149981Y3958592D01*
G01X6164504Y3956680D01*
G01X6179027Y3958592D01*
G01X6192561Y3964198D01*
G01X6204182Y3973115D01*
G01X6213100Y3984737D01*
G01X6218705Y3998270D01*
G01X6220617Y4012794D01*
G01X6218708Y4027299D01*
G01X6612054Y4027299D01*
G01X6615309Y4013155D01*
G01X6622083Y4000319D01*
G01X6631923Y3989650D01*
G01X6644169Y3981861D01*
G01X6658004Y3977474D01*
G01X6672501Y3976782D01*
G01X6686691Y3979831D01*
G01X6693836Y3967198D01*
G01X6703981Y3956820D01*
G01X6716450Y3949391D01*
G01X6730406Y3945408D01*
G01X6744917Y3945139D01*
G01X6759012Y3948600D01*
G01X6771748Y3955560D01*
G01X6782273Y3965553D01*
G01X6789882Y3977912D01*
G01X6794068Y3991809D01*
G01X6794549Y4006315D01*
G01X6791293Y4020459D01*
G01X6784519Y4033294D01*
G01X6774680Y4043964D01*
G01X6762433Y4051752D01*
G01X6748599Y4056139D01*
G01X6734102Y4056832D01*
G01X6719912Y4053783D01*
G01X6719912Y4053783D01*
G01X6712767Y4066416D01*
G01X6702621Y4076794D01*
G01X6690153Y4084223D01*
G01X6676196Y4088205D01*
G01X6661685Y4088475D01*
G01X6647590Y4085014D01*
G01X6634855Y4078054D01*
G01X6624330Y4068060D01*
G01X6616720Y4055701D01*
G01X6612535Y4041804D01*
G01X6612054Y4027299D01*
G01X6218708Y4027299D01*
G01X6218705Y4027317D01*
G01X6213100Y4040850D01*
G01X6204182Y4052472D01*
G01X6192561Y4061389D01*
G01X6179027Y4066995D01*
G01X6164504Y4068907D01*
G01X6149981Y4066995D01*
G01X6136447Y4061389D01*
G01X6124825Y4052472D01*
G01X6115908Y4040850D01*
G01X6110302Y4027317D01*
G01X6108390Y4012794D01*
G01X6108390Y4012794D01*
G01X6086774Y4012794D01*
G01X6088614Y4026764D01*
G01X6086702Y4041287D01*
G01X6081096Y4054820D01*
G01X6072178Y4066442D01*
G01X6060557Y4075359D01*
G01X6047023Y4080965D01*
G01X6032500Y4082877D01*
G01X6017977Y4080965D01*
G01X6004443Y4075359D01*
G01X5992822Y4066442D01*
G01X5983904Y4054820D01*
G01X5978298Y4041287D01*
G01X5976386Y4026764D01*
G01X5976386Y4026764D01*
G01X5805924Y4026764D01*
G01X5800780Y4037538D01*
G01X5791950Y4048183D01*
G01X5780784Y4056345D01*
G01X5767961Y4061527D01*
G01X5754260Y4063416D01*
G01X5740513Y4061896D01*
G01X5727555Y4057060D01*
G01X5716174Y4049201D01*
G01X5707061Y4038797D01*
G01X5700770Y4026480D01*
G01X5688908Y4032359D01*
G01X5675999Y4035296D01*
G01X5662761Y4035127D01*
G01X5649931Y4031861D01*
G01X5638224Y4025680D01*
G01X5628290Y4016928D01*
G01X5620683Y4006092D01*
G01X5615827Y3993776D01*
G01X5613991Y3980665D01*
G01X5167339Y3980665D01*
G01X5170951Y3987349D01*
G01X5174340Y4001706D01*
G01X5173870Y4016451D01*
G01X5169574Y4030563D01*
G01X5161748Y4043068D01*
G01X5150934Y4053102D01*
G01X5137879Y4059971D01*
G01X5141587Y4074249D01*
G01X5141447Y4089000D01*
G01X5137466Y4103205D01*
G01X5129922Y4115882D01*
G01X5119334Y4126154D01*
G01X5106435Y4133313D01*
G01X5092116Y4136862D01*
G01X5077367Y4136556D01*
G01X5063208Y4132418D01*
G01X5050616Y4124732D01*
G01X5040462Y4114031D01*
G01X5033449Y4101053D01*
G01X5030059Y4086695D01*
G01X4612200Y4086695D01*
G01X4610708Y4098030D01*
G01X4605102Y4111564D01*
G01X4596184Y4123186D01*
G01X4584563Y4132103D01*
G01X4571029Y4137709D01*
G01X4556506Y4139621D01*
G01X4541983Y4137709D01*
G01X4528449Y4132103D01*
G01X4516828Y4123186D01*
G01X4507910Y4111564D01*
G01X4502304Y4098030D01*
G01X4500392Y4083507D01*
G01X4500392Y4083507D01*
G01X3885124Y4083507D01*
G01X3885033Y4089194D01*
G01X3881132Y4103086D01*
G01X3873817Y4115524D01*
G01X3863571Y4125685D01*
G01X3869881Y4138662D01*
G01X3872673Y4152819D01*
G01X3871762Y4167220D01*
G01X3867209Y4180912D01*
G01X3859314Y4192991D01*
G01X3857382Y4194734D01*
G01X3982486Y4194734D01*
G01X3984398Y4180211D01*
G01X3990004Y4166677D01*
G01X3998922Y4155055D01*
G01X4010543Y4146138D01*
G01X4024077Y4140532D01*
G01X4038600Y4138620D01*
G01X4053123Y4140532D01*
G01X4066657Y4146138D01*
G01X4078278Y4155055D01*
G01X4087196Y4166677D01*
G01X4092802Y4180211D01*
G01X4093446Y4185107D01*
G01X4606793Y4185107D01*
G01X4608705Y4170584D01*
G01X4614311Y4157050D01*
G01X4623228Y4145429D01*
G01X4634850Y4136511D01*
G01X4648383Y4130906D01*
G01X4662907Y4128994D01*
G01X4677430Y4130906D01*
G01X4690963Y4136511D01*
G01X4702585Y4145429D01*
G01X4711502Y4157050D01*
G01X4717108Y4170584D01*
G01X4718689Y4182593D01*
G01X4869988Y4182593D01*
G01X4871900Y4168069D01*
G01X4877506Y4154536D01*
G01X4886423Y4142914D01*
G01X4898045Y4133997D01*
G01X4911578Y4128391D01*
G01X4926101Y4126479D01*
G01X4940625Y4128391D01*
G01X4954158Y4133997D01*
G01X4965780Y4142914D01*
G01X4974697Y4154536D01*
G01X4980303Y4168069D01*
G01X4982215Y4182593D01*
G01X4980303Y4197116D01*
G01X4974697Y4210649D01*
G01X4965780Y4222271D01*
G01X4954158Y4231188D01*
G01X4940625Y4236794D01*
G01X4926101Y4238706D01*
G01X4911578Y4236794D01*
G01X4898045Y4231188D01*
G01X4886423Y4222271D01*
G01X4877506Y4210649D01*
G01X4871900Y4197116D01*
G01X4869988Y4182593D01*
G01X4869988Y4182593D01*
G01X4718689Y4182593D01*
G01X4719020Y4185107D01*
G01X4717108Y4199630D01*
G01X4711502Y4213164D01*
G01X4702585Y4224786D01*
G01X4690963Y4233703D01*
G01X4677430Y4239309D01*
G01X4662907Y4241221D01*
G01X4648383Y4239309D01*
G01X4634850Y4233703D01*
G01X4623228Y4224786D01*
G01X4614311Y4213164D01*
G01X4608705Y4199630D01*
G01X4606793Y4185107D01*
G01X4606793Y4185107D01*
G01X4093446Y4185107D01*
G01X4094714Y4194734D01*
G01X4092802Y4209257D01*
G01X4087196Y4222791D01*
G01X4078278Y4234412D01*
G01X4066657Y4243330D01*
G01X4053123Y4248935D01*
G01X4038600Y4250847D01*
G01X4024077Y4248935D01*
G01X4010543Y4243330D01*
G01X3998922Y4234412D01*
G01X3990004Y4222791D01*
G01X3984398Y4209257D01*
G01X3982486Y4194734D01*
G01X3982486Y4194734D01*
G01X3857382Y4194734D01*
G01X3848601Y4202657D01*
G01X3835776Y4209271D01*
G01X3821689Y4212396D01*
G01X3807271Y4211826D01*
G01X3793475Y4207597D01*
G01X3781213Y4199991D01*
G01X3771297Y4189508D01*
G01X3764382Y4176844D01*
G01X3760924Y4162834D01*
G01X2231041Y4162834D01*
G01X2231041Y4175806D01*
G01X2227291Y4195871D01*
G01X2219917Y4214905D01*
G01X2209171Y4232259D01*
G01X2195420Y4247344D01*
G01X2179130Y4259645D01*
G01X2160858Y4268744D01*
G01X2141225Y4274330D01*
G01X2120900Y4276213D01*
G01X2120900Y4276213D01*
G01X2100575Y4274330D01*
G01X2080942Y4268744D01*
G01X2062670Y4259645D01*
G01X2046380Y4247344D01*
G01X2032629Y4232259D01*
G01X2021883Y4214905D01*
G01X2014509Y4195871D01*
G01X2010759Y4175806D01*
G01X1575013Y4175806D01*
G01X1575013Y4284294D01*
G01X3646394Y4284294D01*
G01X3648306Y4269771D01*
G01X3653911Y4256237D01*
G01X3662829Y4244616D01*
G01X3674450Y4235698D01*
G01X3687984Y4230093D01*
G01X3702507Y4228181D01*
G01X3717030Y4230093D01*
G01X3730564Y4235698D01*
G01X3742186Y4244616D01*
G01X3751103Y4256237D01*
G01X3756709Y4269771D01*
G01X3758621Y4284294D01*
G01X3756709Y4298817D01*
G01X3751103Y4312351D01*
G01X3742247Y4323893D01*
G01X4047180Y4323893D01*
G01X4049092Y4309370D01*
G01X4054698Y4295836D01*
G01X4063615Y4284214D01*
G01X4075237Y4275297D01*
G01X4088771Y4269691D01*
G01X4103294Y4267779D01*
G01X4117817Y4269691D01*
G01X4131351Y4275297D01*
G01X4142972Y4284214D01*
G01X4151890Y4295836D01*
G01X4157495Y4309370D01*
G01X4159407Y4323893D01*
G01X4157495Y4338416D01*
G01X4151890Y4351950D01*
G01X4142972Y4363571D01*
G01X4131351Y4372489D01*
G01X4117817Y4378094D01*
G01X4103294Y4380006D01*
G01X4088771Y4378094D01*
G01X4075237Y4372489D01*
G01X4063615Y4363571D01*
G01X4054698Y4351950D01*
G01X4049092Y4338416D01*
G01X4047180Y4323893D01*
G01X4047180Y4323893D01*
G01X3742247Y4323893D01*
G01X3742186Y4323973D01*
G01X3730564Y4332890D01*
G01X3717030Y4338496D01*
G01X3702507Y4340408D01*
G01X3687984Y4338496D01*
G01X3674450Y4332890D01*
G01X3662829Y4323973D01*
G01X3653911Y4312351D01*
G01X3648306Y4298817D01*
G01X3646394Y4284294D01*
G01X3646394Y4284294D01*
G01X1575013Y4284294D01*
G01X1575013Y4429806D01*
G01X2010759Y4429806D01*
G01X2010759Y4409394D01*
G01X2014509Y4389329D01*
G01X2021883Y4370295D01*
G01X2032629Y4352941D01*
G01X2046380Y4337856D01*
G01X2062670Y4325555D01*
G01X2080942Y4316456D01*
G01X2100575Y4310870D01*
G01X2120900Y4308987D01*
G01X2141225Y4310870D01*
G01X2160858Y4316456D01*
G01X2179130Y4325555D01*
G01X2195420Y4337856D01*
G01X2209171Y4352941D01*
G01X2219917Y4370295D01*
G01X2226895Y4388307D01*
G01X4250380Y4388307D01*
G01X4252292Y4373784D01*
G01X4257898Y4360250D01*
G01X4266815Y4348629D01*
G01X4278437Y4339711D01*
G01X4291971Y4334106D01*
G01X4306494Y4332194D01*
G01X4321017Y4334106D01*
G01X4329229Y4337507D01*
G01X4455993Y4337507D01*
G01X4457905Y4322984D01*
G01X4463511Y4309450D01*
G01X4472428Y4297829D01*
G01X4484050Y4288911D01*
G01X4497584Y4283306D01*
G01X4512107Y4281394D01*
G01X4526630Y4283306D01*
G01X4540164Y4288911D01*
G01X4551785Y4297829D01*
G01X4560703Y4309450D01*
G01X4566308Y4322984D01*
G01X4568220Y4337507D01*
G01X4566308Y4352030D01*
G01X4560703Y4365564D01*
G01X4551785Y4377186D01*
G01X4540164Y4386103D01*
G01X4526630Y4391709D01*
G01X4512107Y4393621D01*
G01X4497584Y4391709D01*
G01X4484050Y4386103D01*
G01X4472428Y4377186D01*
G01X4463511Y4365564D01*
G01X4457905Y4352030D01*
G01X4455993Y4337507D01*
G01X4455993Y4337507D01*
G01X4329229Y4337507D01*
G01X4334551Y4339711D01*
G01X4346172Y4348629D01*
G01X4355090Y4360250D01*
G01X4360695Y4373784D01*
G01X4362607Y4388307D01*
G01X4360695Y4402830D01*
G01X4355090Y4416364D01*
G01X4346172Y4427986D01*
G01X4334551Y4436903D01*
G01X4321017Y4442509D01*
G01X4306494Y4444421D01*
G01X4291971Y4442509D01*
G01X4278437Y4436903D01*
G01X4266815Y4427986D01*
G01X4257898Y4416364D01*
G01X4252292Y4402830D01*
G01X4250380Y4388307D01*
G01X4250380Y4388307D01*
G01X2226895Y4388307D01*
G01X2227291Y4389329D01*
G01X2231041Y4409394D01*
G01X2231041Y4429806D01*
G01X2227291Y4449871D01*
G01X2219917Y4468905D01*
G01X2209171Y4486259D01*
G01X2201268Y4494928D01*
G01X4134714Y4494928D01*
G01X4137340Y4480738D01*
G01X4137340Y4480738D01*
G01X4143499Y4467686D01*
G01X4152782Y4456637D01*
G01X4164577Y4448321D01*
G01X4178103Y4443288D01*
G01X4192464Y4441872D01*
G01X4206713Y4444165D01*
G01X4208510Y4444962D01*
G01X4598392Y4444962D01*
G01X4601816Y4431362D01*
G01X4608506Y4419036D01*
G01X4618044Y4408754D01*
G01X4629833Y4401158D01*
G01X4643137Y4396723D01*
G01X4632403Y4387697D01*
G01X4624242Y4376292D01*
G01X4619165Y4363219D01*
G01X4617487Y4349295D01*
G01X4619315Y4335390D01*
G01X4624533Y4322373D01*
G01X4632816Y4311056D01*
G01X4643647Y4302147D01*
G01X4656349Y4296201D01*
G01X4670129Y4293591D01*
G01X4684125Y4294480D01*
G01X4684125Y4294480D01*
G01X4697464Y4298811D01*
G01X4709312Y4306315D01*
G01X4718929Y4316522D01*
G01X4725715Y4328795D01*
G01X4729246Y4342368D01*
G01X4729299Y4355906D01*
G01X4928196Y4355906D01*
G01X4930107Y4342711D01*
G01X4930107Y4342711D01*
G01X4935077Y4330339D01*
G01X4942826Y4319489D01*
G01X4952915Y4310773D01*
G01X4964776Y4304684D01*
G01X4977739Y4301564D01*
G01X4991071Y4301591D01*
G01X4983567Y4289016D01*
G01X4979572Y4274928D01*
G01X4979358Y4260286D01*
G01X4982939Y4246087D01*
G01X4990073Y4233298D01*
G01X5000272Y4222791D01*
G01X5012843Y4215280D01*
G01X5026929Y4211277D01*
G01X5041571Y4211055D01*
G01X5055772Y4214629D01*
G01X5055558Y4199984D01*
G01X5059141Y4185783D01*
G01X5066278Y4172992D01*
G01X5076481Y4162484D01*
G01X5089056Y4154974D01*
G01X5103146Y4150975D01*
G01X5117791Y4150758D01*
G01X5131994Y4154338D01*
G01X5137294Y4157294D01*
G01X5563179Y4157294D01*
G01X5565091Y4142771D01*
G01X5570697Y4129237D01*
G01X5579614Y4117616D01*
G01X5591236Y4108698D01*
G01X5604770Y4103093D01*
G01X5619293Y4101181D01*
G01X5633816Y4103093D01*
G01X5647350Y4108698D01*
G01X5658971Y4117616D01*
G01X5667889Y4129237D01*
G01X5673494Y4142771D01*
G01X5675406Y4157294D01*
G01X5673494Y4171817D01*
G01X5667889Y4185351D01*
G01X5658971Y4196973D01*
G01X5647350Y4205890D01*
G01X5633816Y4211496D01*
G01X5619293Y4213408D01*
G01X5604770Y4211496D01*
G01X5591236Y4205890D01*
G01X5579614Y4196973D01*
G01X5570697Y4185351D01*
G01X5565091Y4171817D01*
G01X5563179Y4157294D01*
G01X5563179Y4157294D01*
G01X5137294Y4157294D01*
G01X5144786Y4161472D01*
G01X5155296Y4171673D01*
G01X5162808Y4184247D01*
G01X5166810Y4198336D01*
G01X5167030Y4212981D01*
G01X5163453Y4227184D01*
G01X5156322Y4239977D01*
G01X5146123Y4250490D01*
G01X5137416Y4255694D01*
G01X5981390Y4255694D01*
G01X5983302Y4241171D01*
G01X5988908Y4227637D01*
G01X5997825Y4216015D01*
G01X6009447Y4207098D01*
G01X6022981Y4201492D01*
G01X6037504Y4199580D01*
G01X6052027Y4201492D01*
G01X6065561Y4207098D01*
G01X6077182Y4216015D01*
G01X6086100Y4227637D01*
G01X6091705Y4241171D01*
G01X6093617Y4255694D01*
G01X6092878Y4261307D01*
G01X6433993Y4261307D01*
G01X6435905Y4246784D01*
G01X6441511Y4233250D01*
G01X6450428Y4221629D01*
G01X6462050Y4212711D01*
G01X6475583Y4207106D01*
G01X6490106Y4205194D01*
G01X6504630Y4207106D01*
G01X6518163Y4212711D01*
G01X6529785Y4221629D01*
G01X6538702Y4233250D01*
G01X6544308Y4246784D01*
G01X6546220Y4261307D01*
G01X6545193Y4269105D01*
G01X6565590Y4269105D01*
G01X6567502Y4254582D01*
G01X6573108Y4241048D01*
G01X6582025Y4229427D01*
G01X6593647Y4220509D01*
G01X6607181Y4214903D01*
G01X6621704Y4212991D01*
G01X6636227Y4214903D01*
G01X6649761Y4220509D01*
G01X6661382Y4229427D01*
G01X6670300Y4241048D01*
G01X6675905Y4254582D01*
G01X6677817Y4269105D01*
G01X6675905Y4283628D01*
G01X6670300Y4297162D01*
G01X6661382Y4308783D01*
G01X6649761Y4317701D01*
G01X6636227Y4323307D01*
G01X6621704Y4325219D01*
G01X6607181Y4323307D01*
G01X6593647Y4317701D01*
G01X6582025Y4308783D01*
G01X6573108Y4297162D01*
G01X6567502Y4283628D01*
G01X6565590Y4269105D01*
G01X6565590Y4269105D01*
G01X6545193Y4269105D01*
G01X6544308Y4275830D01*
G01X6538702Y4289364D01*
G01X6529785Y4300986D01*
G01X6518163Y4309903D01*
G01X6504630Y4315509D01*
G01X6490106Y4317421D01*
G01X6475583Y4315509D01*
G01X6462050Y4309903D01*
G01X6450428Y4300986D01*
G01X6441511Y4289364D01*
G01X6435905Y4275830D01*
G01X6433993Y4261307D01*
G01X6433993Y4261307D01*
G01X6092878Y4261307D01*
G01X6091705Y4270217D01*
G01X6086100Y4283751D01*
G01X6077182Y4295372D01*
G01X6065561Y4304290D01*
G01X6052027Y4309895D01*
G01X6037504Y4311807D01*
G01X6022981Y4309895D01*
G01X6009447Y4304290D01*
G01X5997825Y4295372D01*
G01X5988908Y4283751D01*
G01X5983302Y4270217D01*
G01X5981390Y4255694D01*
G01X5981390Y4255694D01*
G01X5137416Y4255694D01*
G01X5133551Y4258004D01*
G01X5119462Y4262010D01*
G01X5104817Y4262233D01*
G01X5090614Y4258658D01*
G01X5090823Y4273344D01*
G01X5087214Y4287580D01*
G01X5080036Y4300393D01*
G01X5069778Y4310903D01*
G01X5057144Y4318393D01*
G01X5043000Y4322347D01*
G01X5028314Y4322496D01*
G01X5035541Y4334439D01*
G01X5039597Y4347796D01*
G01X5040230Y4361741D01*
G01X5037401Y4375411D01*
G01X5049812Y4382741D01*
G01X5059946Y4392991D01*
G01X5065596Y4402811D01*
G01X6352383Y4402811D01*
G01X6354295Y4388287D01*
G01X6359900Y4374754D01*
G01X6368818Y4363132D01*
G01X6380439Y4354215D01*
G01X6393973Y4348609D01*
G01X6408496Y4346697D01*
G01X6423019Y4348609D01*
G01X6436553Y4354215D01*
G01X6448175Y4363132D01*
G01X6457092Y4374754D01*
G01X6462698Y4388287D01*
G01X6464610Y4402811D01*
G01X6462698Y4417334D01*
G01X6457092Y4430867D01*
G01X6448175Y4442489D01*
G01X6436553Y4451406D01*
G01X6431232Y4453611D01*
G01X6555583Y4453611D01*
G01X6557495Y4439087D01*
G01X6563100Y4425554D01*
G01X6572018Y4413932D01*
G01X6583639Y4405015D01*
G01X6597173Y4399409D01*
G01X6611696Y4397497D01*
G01X6626219Y4399409D01*
G01X6639753Y4405015D01*
G01X6651375Y4413932D01*
G01X6660292Y4425554D01*
G01X6665898Y4439087D01*
G01X6667810Y4453611D01*
G01X6665898Y4468134D01*
G01X6660292Y4481667D01*
G01X6651375Y4493289D01*
G01X6639753Y4502206D01*
G01X6626219Y4507812D01*
G01X6611696Y4509724D01*
G01X6597173Y4507812D01*
G01X6583639Y4502206D01*
G01X6572018Y4493289D01*
G01X6563100Y4481667D01*
G01X6557495Y4468134D01*
G01X6555583Y4453611D01*
G01X6555583Y4453611D01*
G01X6431232Y4453611D01*
G01X6423019Y4457012D01*
G01X6408496Y4458924D01*
G01X6393973Y4457012D01*
G01X6380439Y4451406D01*
G01X6368818Y4442489D01*
G01X6359900Y4430867D01*
G01X6354295Y4417334D01*
G01X6352383Y4402811D01*
G01X6352383Y4402811D01*
G01X5065596Y4402811D01*
G01X5067135Y4405484D01*
G01X5070904Y4419397D01*
G01X5071004Y4433810D01*
G01X5067430Y4447774D01*
G01X5060416Y4460366D01*
G01X5050426Y4470756D01*
G01X5038119Y4478259D01*
G01X5024306Y4482379D01*
G01X5009900Y4482844D01*
G01X4995850Y4479624D01*
G01X4983084Y4472932D01*
G01X4972445Y4463208D01*
G01X4964633Y4451095D01*
G01X4960165Y4437391D01*
G01X4959335Y4423001D01*
G01X4962198Y4408874D01*
G01X4950653Y4402206D01*
G01X4941007Y4393002D01*
G01X4933804Y4381782D01*
G01X4929452Y4369179D01*
G01X4928196Y4355906D01*
G01X4729299Y4355906D01*
G01X4729301Y4356392D01*
G01X4725876Y4369992D01*
G01X4719187Y4382318D01*
G01X4709649Y4392600D01*
G01X4697860Y4400196D01*
G01X4684556Y4404631D01*
G01X4695290Y4413657D01*
G01X4703450Y4425062D01*
G01X4708528Y4438135D01*
G01X4710206Y4452059D01*
G01X4708378Y4465964D01*
G01X4703160Y4478981D01*
G01X4694876Y4490298D01*
G01X4684045Y4499207D01*
G01X4671344Y4505153D01*
G01X4657564Y4507763D01*
G01X4643568Y4506874D01*
G01X4630229Y4502543D01*
G01X4618381Y4495039D01*
G01X4608764Y4484832D01*
G01X4601978Y4472559D01*
G01X4598447Y4458986D01*
G01X4598392Y4444962D01*
G01X4208510Y4444962D01*
G01X4219905Y4450016D01*
G01X4231168Y4459038D01*
G01X4239758Y4470635D01*
G01X4245106Y4484039D01*
G01X4257277Y4476284D01*
G01X4271023Y4471890D01*
G01X4285435Y4471147D01*
G01X4299561Y4474105D01*
G01X4312464Y4480567D01*
G01X4323293Y4490107D01*
G01X4331331Y4502093D01*
G01X4336046Y4515733D01*
G01X4337126Y4530124D01*
G01X4334771Y4542847D01*
G01X4377421Y4542847D01*
G01X4378852Y4527941D01*
G01X4384174Y4513944D01*
G01X4393008Y4501853D01*
G01X4404725Y4492529D01*
G01X4418492Y4486636D01*
G01X4433326Y4484594D01*
G01X4448173Y4486548D01*
G01X4461974Y4492358D01*
G01X4473747Y4501612D01*
G01X4482653Y4513650D01*
G01X4488059Y4527615D01*
G01X4489578Y4542513D01*
G01X4487104Y4557281D01*
G01X4485616Y4560494D01*
G01X5791779Y4560494D01*
G01X5793691Y4545971D01*
G01X5799297Y4532437D01*
G01X5808214Y4520815D01*
G01X5819836Y4511898D01*
G01X5833370Y4506292D01*
G01X5847893Y4504380D01*
G01X5862416Y4506292D01*
G01X5875950Y4511898D01*
G01X5887571Y4520815D01*
G01X5896489Y4532437D01*
G01X5898915Y4538294D01*
G01X5969579Y4538294D01*
G01X5971491Y4523771D01*
G01X5977097Y4510237D01*
G01X5986014Y4498616D01*
G01X5997636Y4489698D01*
G01X6011170Y4484093D01*
G01X6025693Y4482181D01*
G01X6040216Y4484093D01*
G01X6053750Y4489698D01*
G01X6065371Y4498616D01*
G01X6072117Y4507408D01*
G01X6235390Y4507408D01*
G01X6237302Y4492885D01*
G01X6242908Y4479351D01*
G01X6251825Y4467729D01*
G01X6263447Y4458812D01*
G01X6276981Y4453206D01*
G01X6291504Y4451294D01*
G01X6306027Y4453206D01*
G01X6319561Y4458812D01*
G01X6331182Y4467729D01*
G01X6340100Y4479351D01*
G01X6345705Y4492885D01*
G01X6347617Y4507408D01*
G01X6345705Y4521931D01*
G01X6340100Y4535465D01*
G01X6331182Y4547086D01*
G01X6319561Y4556004D01*
G01X6306027Y4561609D01*
G01X6291504Y4563521D01*
G01X6276981Y4561609D01*
G01X6263447Y4556004D01*
G01X6251825Y4547086D01*
G01X6242908Y4535465D01*
G01X6237302Y4521931D01*
G01X6235390Y4507408D01*
G01X6235390Y4507408D01*
G01X6072117Y4507408D01*
G01X6074289Y4510237D01*
G01X6079894Y4523771D01*
G01X6081806Y4538294D01*
G01X6079894Y4552817D01*
G01X6074289Y4566351D01*
G01X6065371Y4577973D01*
G01X6053750Y4586890D01*
G01X6040216Y4592496D01*
G01X6025693Y4594408D01*
G01X6011170Y4592496D01*
G01X5997636Y4586890D01*
G01X5986014Y4577973D01*
G01X5977097Y4566351D01*
G01X5971491Y4552817D01*
G01X5969579Y4538294D01*
G01X5969579Y4538294D01*
G01X5898915Y4538294D01*
G01X5902094Y4545971D01*
G01X5904006Y4560494D01*
G01X5902094Y4575017D01*
G01X5896489Y4588551D01*
G01X5887571Y4600172D01*
G01X5875950Y4609090D01*
G01X5862416Y4614695D01*
G01X5847893Y4616607D01*
G01X5833370Y4614695D01*
G01X5819836Y4609090D01*
G01X5808214Y4600172D01*
G01X5799297Y4588551D01*
G01X5793691Y4575017D01*
G01X5791779Y4560494D01*
G01X5791779Y4560494D01*
G01X4485616Y4560494D01*
G01X4480812Y4570870D01*
G01X4494130Y4564024D01*
G01X4508784Y4560944D01*
G01X4523731Y4561850D01*
G01X4537907Y4566677D01*
G01X4550301Y4575080D01*
G01X4560031Y4586463D01*
G01X4566404Y4600013D01*
G01X4568967Y4614767D01*
G01X4567989Y4624959D01*
G01X4591832Y4624959D01*
G01X4593744Y4610436D01*
G01X4599350Y4596902D01*
G01X4608268Y4585281D01*
G01X4619889Y4576363D01*
G01X4633423Y4570757D01*
G01X4647946Y4568845D01*
G01X4662469Y4570757D01*
G01X4676003Y4576363D01*
G01X4687624Y4585281D01*
G01X4696542Y4596902D01*
G01X4702148Y4610436D01*
G01X4704060Y4624959D01*
G01X4702148Y4639482D01*
G01X4696542Y4653016D01*
G01X4687624Y4664637D01*
G01X4676003Y4673555D01*
G01X4662469Y4679161D01*
G01X4647946Y4681073D01*
G01X4633423Y4679161D01*
G01X4619889Y4673555D01*
G01X4608268Y4664637D01*
G01X4599350Y4653016D01*
G01X4593744Y4639482D01*
G01X4591832Y4624959D01*
G01X4591832Y4624959D01*
G01X4567989Y4624959D01*
G01X4567536Y4629673D01*
G01X4562214Y4643670D01*
G01X4553380Y4655761D01*
G01X4553380Y4655761D01*
G01X4541663Y4665085D01*
G01X4527896Y4670978D01*
G01X4513062Y4673021D01*
G01X4498215Y4671067D01*
G01X4484414Y4665256D01*
G01X4472641Y4656002D01*
G01X4463735Y4643964D01*
G01X4458329Y4629999D01*
G01X4456810Y4615102D01*
G01X4459284Y4600333D01*
G01X4465576Y4586745D01*
G01X4452258Y4593590D01*
G01X4437604Y4596670D01*
G01X4422657Y4595764D01*
G01X4408481Y4590938D01*
G01X4396087Y4582534D01*
G01X4386357Y4571152D01*
G01X4379984Y4557601D01*
G01X4377421Y4542847D01*
G01X4334771Y4542847D01*
G01X4334500Y4544314D01*
G01X4328341Y4557366D01*
G01X4319057Y4568415D01*
G01X4307263Y4576731D01*
G01X4293737Y4581764D01*
G01X4279375Y4583180D01*
G01X4265127Y4580887D01*
G01X4251935Y4575036D01*
G01X4240672Y4566013D01*
G01X4232082Y4554417D01*
G01X4226734Y4541013D01*
G01X4214563Y4548767D01*
G01X4200817Y4553162D01*
G01X4186404Y4553904D01*
G01X4172279Y4550947D01*
G01X4159375Y4544485D01*
G01X4148547Y4534945D01*
G01X4140509Y4522959D01*
G01X4135794Y4509319D01*
G01X4134714Y4494928D01*
G01X2201268Y4494928D01*
G01X2195420Y4501344D01*
G01X2179130Y4513645D01*
G01X2160858Y4522744D01*
G01X2141225Y4528330D01*
G01X2120900Y4530213D01*
G01X2120900Y4530213D01*
G01X2100575Y4528330D01*
G01X2080942Y4522744D01*
G01X2062670Y4513645D01*
G01X2046380Y4501344D01*
G01X2032629Y4486259D01*
G01X2021883Y4468905D01*
G01X2014509Y4449871D01*
G01X2010759Y4429806D01*
G01X1575013Y4429806D01*
G01X1575013Y4588600D01*
G01X2010287Y4588600D01*
G01X2012237Y4578798D01*
G01X2017789Y4570489D01*
G01X2026098Y4564937D01*
G01X2035900Y4562987D01*
G01X2205900Y4562987D01*
G01X2215702Y4564937D01*
G01X2224011Y4570489D01*
G01X2229563Y4578798D01*
G01X2231513Y4588600D01*
G01X2231513Y4679493D01*
G01X4224193Y4679493D01*
G01X4226105Y4664970D01*
G01X4231711Y4651436D01*
G01X4240628Y4639814D01*
G01X4252250Y4630897D01*
G01X4265783Y4625291D01*
G01X4280306Y4623379D01*
G01X4294830Y4625291D01*
G01X4308363Y4630897D01*
G01X4319985Y4639814D01*
G01X4328902Y4651436D01*
G01X4334508Y4664970D01*
G01X4336420Y4679493D01*
G01X4334508Y4694016D01*
G01X4328902Y4707550D01*
G01X4319985Y4719171D01*
G01X4308363Y4728089D01*
G01X4294830Y4733694D01*
G01X4280306Y4735606D01*
G01X4265783Y4733694D01*
G01X4252250Y4728089D01*
G01X4240628Y4719171D01*
G01X4231711Y4707550D01*
G01X4226105Y4694016D01*
G01X4224193Y4679493D01*
G01X4224193Y4679493D01*
G01X2231513Y4679493D01*
G01X2231513Y4750892D01*
G01X3945885Y4750892D01*
G01X3947797Y4736369D01*
G01X3953403Y4722835D01*
G01X3962320Y4711214D01*
G01X3973942Y4702296D01*
G01X3987475Y4696691D01*
G01X4001999Y4694779D01*
G01X4016522Y4696691D01*
G01X4030055Y4702296D01*
G01X4041677Y4711214D01*
G01X4050594Y4722835D01*
G01X4056200Y4736369D01*
G01X4058112Y4750892D01*
G01X4056200Y4765415D01*
G01X4052612Y4774079D01*
G01X4922321Y4774079D01*
G01X4924494Y4760479D01*
G01X4929914Y4747818D01*
G01X4938254Y4736858D01*
G01X4949013Y4728260D01*
G01X4961542Y4722542D01*
G01X4975087Y4720048D01*
G01X4973100Y4706420D01*
G01X4974492Y4692718D01*
G01X4979179Y4679768D01*
G01X4986880Y4668349D01*
G01X4997130Y4659151D01*
G01X5009313Y4652726D01*
G01X5022693Y4649463D01*
G01X5036465Y4649556D01*
G01X5049799Y4653002D01*
G01X5061893Y4659591D01*
G01X5061893Y4659591D01*
G01X5072017Y4668928D01*
G01X5079562Y4680450D01*
G01X5079749Y4680991D01*
G01X5390993Y4680991D01*
G01X5392905Y4666468D01*
G01X5398510Y4652935D01*
G01X5407428Y4641313D01*
G01X5419049Y4632396D01*
G01X5432583Y4626790D01*
G01X5447106Y4624878D01*
G01X5461629Y4626790D01*
G01X5475163Y4632396D01*
G01X5486785Y4641313D01*
G01X5495702Y4652935D01*
G01X5501308Y4666468D01*
G01X5503220Y4680991D01*
G01X5501308Y4695515D01*
G01X5495702Y4709048D01*
G01X5486785Y4720670D01*
G01X5475163Y4729587D01*
G01X5461629Y4735193D01*
G01X5447106Y4737105D01*
G01X5432583Y4735193D01*
G01X5419049Y4729587D01*
G01X5407428Y4720670D01*
G01X5398510Y4709048D01*
G01X5392905Y4695515D01*
G01X5390993Y4680991D01*
G01X5390993Y4680991D01*
G01X5079749Y4680991D01*
G01X5084073Y4693463D01*
G01X5085279Y4707182D01*
G01X5083106Y4720782D01*
G01X5077686Y4733443D01*
G01X5073995Y4738294D01*
G01X6108390Y4738294D01*
G01X6110302Y4723771D01*
G01X6115908Y4710237D01*
G01X6124825Y4698615D01*
G01X6136447Y4689698D01*
G01X6149981Y4684092D01*
G01X6164504Y4682180D01*
G01X6179027Y4684092D01*
G01X6192561Y4689698D01*
G01X6204182Y4698615D01*
G01X6213100Y4710237D01*
G01X6218705Y4723771D01*
G01X6218842Y4724806D01*
G01X6682583Y4724806D01*
G01X6684495Y4710283D01*
G01X6690100Y4696750D01*
G01X6699018Y4685128D01*
G01X6710639Y4676211D01*
G01X6724173Y4670605D01*
G01X6738696Y4668693D01*
G01X6753219Y4670605D01*
G01X6766753Y4676211D01*
G01X6778375Y4685128D01*
G01X6787292Y4696750D01*
G01X6792898Y4710283D01*
G01X6794810Y4724806D01*
G01X6792898Y4739330D01*
G01X6787292Y4752863D01*
G01X6778375Y4764485D01*
G01X6766753Y4773402D01*
G01X6753219Y4779008D01*
G01X6738696Y4780920D01*
G01X6724173Y4779008D01*
G01X6710639Y4773402D01*
G01X6699018Y4764485D01*
G01X6690100Y4752863D01*
G01X6684495Y4739330D01*
G01X6682583Y4724806D01*
G01X6682583Y4724806D01*
G01X6218842Y4724806D01*
G01X6220617Y4738294D01*
G01X6218705Y4752817D01*
G01X6213100Y4766351D01*
G01X6204182Y4777972D01*
G01X6192561Y4786890D01*
G01X6179027Y4792495D01*
G01X6164504Y4794407D01*
G01X6149981Y4792495D01*
G01X6136447Y4786890D01*
G01X6124825Y4777972D01*
G01X6115908Y4766351D01*
G01X6110302Y4752817D01*
G01X6108390Y4738294D01*
G01X6108390Y4738294D01*
G01X5073995Y4738294D01*
G01X5069346Y4744403D01*
G01X5058587Y4753001D01*
G01X5046058Y4758719D01*
G01X5032513Y4761213D01*
G01X5034500Y4774842D01*
G01X5033108Y4788543D01*
G01X5028421Y4801494D01*
G01X5020720Y4812912D01*
G01X5010470Y4822110D01*
G01X4998287Y4828535D01*
G01X4984907Y4831799D01*
G01X4971135Y4831705D01*
G01X4957801Y4828260D01*
G01X4945707Y4821670D01*
G01X4935583Y4812333D01*
G01X4928038Y4800811D01*
G01X4923527Y4787798D01*
G01X4922321Y4774079D01*
G01X4052612Y4774079D01*
G01X4050594Y4778949D01*
G01X4041677Y4790571D01*
G01X4030055Y4799488D01*
G01X4016522Y4805094D01*
G01X4001999Y4807006D01*
G01X3987475Y4805094D01*
G01X3973942Y4799488D01*
G01X3962320Y4790571D01*
G01X3953403Y4778949D01*
G01X3947797Y4765415D01*
G01X3945885Y4750892D01*
G01X3945885Y4750892D01*
G01X2231513Y4750892D01*
G01X2231513Y4758600D01*
G01X2229563Y4768402D01*
G01X2224011Y4776711D01*
G01X2215702Y4782263D01*
G01X2205900Y4784213D01*
G01X2035900Y4784213D01*
G01X2026098Y4782263D01*
G01X2017789Y4776711D01*
G01X2012237Y4768402D01*
G01X2010287Y4758600D01*
G01X2010287Y4588600D01*
G01X2010287Y4588600D01*
G01X1575013Y4588600D01*
G01X1575013Y4933493D01*
G01X4250380Y4933493D01*
G01X4252292Y4918970D01*
G01X4257898Y4905436D01*
G01X4266815Y4893814D01*
G01X4278437Y4884897D01*
G01X4291971Y4879291D01*
G01X4306494Y4877379D01*
G01X4321017Y4879291D01*
G01X4334551Y4884897D01*
G01X4346172Y4893814D01*
G01X4355090Y4905436D01*
G01X4360695Y4918970D01*
G01X4362607Y4933493D01*
G01X4362425Y4934882D01*
G01X4389229Y4934882D01*
G01X4389425Y4920939D01*
G01X4393053Y4907474D01*
G01X4399889Y4895319D01*
G01X4409511Y4885226D01*
G01X4421325Y4877817D01*
G01X4421325Y4877817D01*
G01X4434602Y4873550D01*
G01X4448520Y4872689D01*
G01X4462221Y4875286D01*
G01X4474858Y4881182D01*
G01X4485652Y4890012D01*
G01X4493935Y4901231D01*
G01X4499195Y4914145D01*
G01X4500597Y4924261D01*
G01X4674663Y4924261D01*
G01X4674695Y4909318D01*
G01X4678669Y4894913D01*
G01X4686304Y4882068D01*
G01X4697059Y4871693D01*
G01X4688675Y4859323D01*
G01X4683853Y4845179D01*
G01X4682935Y4830264D01*
G01X4685987Y4815636D01*
G01X4692791Y4802331D01*
G01X4702865Y4791295D01*
G01X4715495Y4783308D01*
G01X4729785Y4778938D01*
G01X4744721Y4778495D01*
G01X4744721Y4778495D01*
G01X4759245Y4782009D01*
G01X4772327Y4789232D01*
G01X4783038Y4799652D01*
G01X4790619Y4812529D01*
G01X4794533Y4826951D01*
G01X4794502Y4841894D01*
G01X4790527Y4856299D01*
G01X4782892Y4869145D01*
G01X4772137Y4879519D01*
G01X4780521Y4891889D01*
G01X4785343Y4906033D01*
G01X4786261Y4920948D01*
G01X4783210Y4935577D01*
G01X4776406Y4948881D01*
G01X4766331Y4959918D01*
G01X4753702Y4967904D01*
G01X4739412Y4972274D01*
G01X4724475Y4972718D01*
G01X4709951Y4969203D01*
G01X4696869Y4961980D01*
G01X4686158Y4951560D01*
G01X4678577Y4938683D01*
G01X4674663Y4924261D01*
G01X4500597Y4924261D01*
G01X4501109Y4927958D01*
G01X4499557Y4941817D01*
G01X4494636Y4954865D01*
G01X4507787Y4959503D01*
G01X4519389Y4967240D01*
G01X4528724Y4977600D01*
G01X4535216Y4989941D01*
G01X4538465Y5003503D01*
G01X4538269Y5017446D01*
G01X4538202Y5017694D01*
G01X6235390Y5017694D01*
G01X6237302Y5003171D01*
G01X6242908Y4989637D01*
G01X6251825Y4978015D01*
G01X6263447Y4969098D01*
G01X6276981Y4963492D01*
G01X6291504Y4961580D01*
G01X6306027Y4963492D01*
G01X6319561Y4969098D01*
G01X6331182Y4978015D01*
G01X6340100Y4989637D01*
G01X6345705Y5003171D01*
G01X6347617Y5017694D01*
G01X6345705Y5032217D01*
G01X6340100Y5045751D01*
G01X6331182Y5057372D01*
G01X6319561Y5066290D01*
G01X6306027Y5071895D01*
G01X6291504Y5073807D01*
G01X6276981Y5071895D01*
G01X6263447Y5066290D01*
G01X6251825Y5057372D01*
G01X6242908Y5045751D01*
G01X6237302Y5032217D01*
G01X6235390Y5017694D01*
G01X6235390Y5017694D01*
G01X4538202Y5017694D01*
G01X4534641Y5030911D01*
G01X4527805Y5043066D01*
G01X4518182Y5053159D01*
G01X4506368Y5060568D01*
G01X4493092Y5064835D01*
G01X4479174Y5065696D01*
G01X4465473Y5063099D01*
G01X4452835Y5057203D01*
G01X4442042Y5048373D01*
G01X4433759Y5037154D01*
G01X4428498Y5024240D01*
G01X4426585Y5010427D01*
G01X4428136Y4996568D01*
G01X4433057Y4983520D01*
G01X4419906Y4978882D01*
G01X4408305Y4971145D01*
G01X4398970Y4960785D01*
G01X4392477Y4948444D01*
G01X4389229Y4934882D01*
G01X4362425Y4934882D01*
G01X4360695Y4948016D01*
G01X4355090Y4961550D01*
G01X4346172Y4973171D01*
G01X4334551Y4982089D01*
G01X4321017Y4987694D01*
G01X4306494Y4989606D01*
G01X4291971Y4987694D01*
G01X4278437Y4982089D01*
G01X4266815Y4973171D01*
G01X4257898Y4961550D01*
G01X4252292Y4948016D01*
G01X4250380Y4933493D01*
G01X4250380Y4933493D01*
G01X1575013Y4933493D01*
G01X1575013Y5150002D01*
G01X4998486Y5150002D01*
G01X5000398Y5135479D01*
G01X5006004Y5121946D01*
G01X5014922Y5110324D01*
G01X5026543Y5101407D01*
G01X5040077Y5095801D01*
G01X5054600Y5093889D01*
G01X5069123Y5095801D01*
G01X5082657Y5101407D01*
G01X5094278Y5110324D01*
G01X5103196Y5121946D01*
G01X5108802Y5135479D01*
G01X5110423Y5147793D01*
G01X5276388Y5147793D01*
G01X5278300Y5133269D01*
G01X5283906Y5119736D01*
G01X5292823Y5108114D01*
G01X5304445Y5099197D01*
G01X5317978Y5093591D01*
G01X5332501Y5091679D01*
G01X5347025Y5093591D01*
G01X5360558Y5099197D01*
G01X5372180Y5108114D01*
G01X5381097Y5119736D01*
G01X5386703Y5133269D01*
G01X5388615Y5147793D01*
G01X5386703Y5162316D01*
G01X5381097Y5175849D01*
G01X5372180Y5187471D01*
G01X5360558Y5196388D01*
G01X5347025Y5201994D01*
G01X5332501Y5203906D01*
G01X5317978Y5201994D01*
G01X5304445Y5196388D01*
G01X5292823Y5187471D01*
G01X5283906Y5175849D01*
G01X5278300Y5162316D01*
G01X5276388Y5147793D01*
G01X5276388Y5147793D01*
G01X5110423Y5147793D01*
G01X5110714Y5150002D01*
G01X5108802Y5164526D01*
G01X5103196Y5178059D01*
G01X5094278Y5189681D01*
G01X5082657Y5198598D01*
G01X5069123Y5204204D01*
G01X5054600Y5206116D01*
G01X5040077Y5204204D01*
G01X5026543Y5198598D01*
G01X5014922Y5189681D01*
G01X5006004Y5178059D01*
G01X5000398Y5164526D01*
G01X4998486Y5150002D01*
G01X4998486Y5150002D01*
G01X1575013Y5150002D01*
G01X1575013Y5244008D01*
G01X6540190Y5244008D01*
G01X6542102Y5229485D01*
G01X6547708Y5215951D01*
G01X6556625Y5204329D01*
G01X6568247Y5195412D01*
G01X6581781Y5189806D01*
G01X6596304Y5187894D01*
G01X6610827Y5189806D01*
G01X6624361Y5195412D01*
G01X6635982Y5204329D01*
G01X6644900Y5215951D01*
G01X6650505Y5229485D01*
G01X6652417Y5244008D01*
G01X6650505Y5258531D01*
G01X6644900Y5272065D01*
G01X6635982Y5283686D01*
G01X6624361Y5292604D01*
G01X6610827Y5298209D01*
G01X6596304Y5300121D01*
G01X6581781Y5298209D01*
G01X6568247Y5292604D01*
G01X6556625Y5283686D01*
G01X6547708Y5272065D01*
G01X6542102Y5258531D01*
G01X6540190Y5244008D01*
G01X6540190Y5244008D01*
G01X1575013Y5244008D01*
G01X1575013Y5340661D01*
G01X6301616Y5340661D01*
G01X6303760Y5327130D01*
G01X6309119Y5314522D01*
G01X6317372Y5303588D01*
G01X6328030Y5294980D01*
G01X6340455Y5289211D01*
G01X6353908Y5286625D01*
G01X6367587Y5287375D01*
G01X6380676Y5291418D01*
G01X6392396Y5298512D01*
G01X6402047Y5308234D01*
G01X6412351Y5299206D01*
G01X6424535Y5292943D01*
G01X6437873Y5289819D01*
G01X6451571Y5290020D01*
G01X6464812Y5293535D01*
G01X6476807Y5300153D01*
G01X6486840Y5309480D01*
G01X6494315Y5320961D01*
G01X6498785Y5333911D01*
G01X6499984Y5347558D01*
G01X6497840Y5361088D01*
G01X6492481Y5373696D01*
G01X6484228Y5384630D01*
G01X6473570Y5393238D01*
G01X6473199Y5393411D01*
G01X6530183Y5393411D01*
G01X6532095Y5378887D01*
G01X6537700Y5365354D01*
G01X6546618Y5353732D01*
G01X6558239Y5344815D01*
G01X6571773Y5339209D01*
G01X6586296Y5337297D01*
G01X6600819Y5339209D01*
G01X6614353Y5344815D01*
G01X6625975Y5353732D01*
G01X6634892Y5365354D01*
G01X6640498Y5378887D01*
G01X6642410Y5393411D01*
G01X6640498Y5407934D01*
G01X6634892Y5421467D01*
G01X6625975Y5433089D01*
G01X6614353Y5442006D01*
G01X6600819Y5447612D01*
G01X6586296Y5449524D01*
G01X6571773Y5447612D01*
G01X6558239Y5442006D01*
G01X6546618Y5433089D01*
G01X6537700Y5421467D01*
G01X6532095Y5407934D01*
G01X6530183Y5393411D01*
G01X6530183Y5393411D01*
G01X6473199Y5393411D01*
G01X6461145Y5399007D01*
G01X6447692Y5401593D01*
G01X6434013Y5400843D01*
G01X6420924Y5396800D01*
G01X6409204Y5389706D01*
G01X6399553Y5379984D01*
G01X6389249Y5389013D01*
G01X6377065Y5395275D01*
G01X6363727Y5398399D01*
G01X6350029Y5398198D01*
G01X6336788Y5394684D01*
G01X6324793Y5388065D01*
G01X6314760Y5378738D01*
G01X6307285Y5367257D01*
G01X6302815Y5354308D01*
G01X6301616Y5340661D01*
G01X6301616Y5340661D01*
G01X1575013Y5340661D01*
G01X1575013Y5551907D01*
G01X5359979Y5551907D01*
G01X5361891Y5537383D01*
G01X5367497Y5523850D01*
G01X5376414Y5512228D01*
G01X5388036Y5503311D01*
G01X5401570Y5497705D01*
G01X5416093Y5495793D01*
G01X5430616Y5497705D01*
G01X5444150Y5503311D01*
G01X5455771Y5512228D01*
G01X5464689Y5523850D01*
G01X5470294Y5537383D01*
G01X5472206Y5551907D01*
G01X5470294Y5566430D01*
G01X5464689Y5579963D01*
G01X5455771Y5591585D01*
G01X5444150Y5600502D01*
G01X5430616Y5606108D01*
G01X5416093Y5608020D01*
G01X5401570Y5606108D01*
G01X5388036Y5600502D01*
G01X5376414Y5591585D01*
G01X5367497Y5579963D01*
G01X5361891Y5566430D01*
G01X5359979Y5551907D01*
G01X5359979Y5551907D01*
G01X1575013Y5551907D01*
G01X1575013Y5664606D01*
G01X6105291Y5664606D01*
G01X6107203Y5650083D01*
G01X6112809Y5636550D01*
G01X6121727Y5624928D01*
G01X6133348Y5616011D01*
G01X6146882Y5610405D01*
G01X6161405Y5608493D01*
G01X6175928Y5610405D01*
G01X6189462Y5616011D01*
G01X6201083Y5624928D01*
G01X6210001Y5636550D01*
G01X6215607Y5650083D01*
G01X6217519Y5664606D01*
G01X6682583Y5664606D01*
G01X6684495Y5650083D01*
G01X6690100Y5636550D01*
G01X6699018Y5624928D01*
G01X6710639Y5616011D01*
G01X6724173Y5610405D01*
G01X6738696Y5608493D01*
G01X6753219Y5610405D01*
G01X6766753Y5616011D01*
G01X6778375Y5624928D01*
G01X6787292Y5636550D01*
G01X6792898Y5650083D01*
G01X6794810Y5664606D01*
G01X6792898Y5679130D01*
G01X6787292Y5692663D01*
G01X6778375Y5704285D01*
G01X6766753Y5713202D01*
G01X6753219Y5718808D01*
G01X6738696Y5720720D01*
G01X6724173Y5718808D01*
G01X6710639Y5713202D01*
G01X6699018Y5704285D01*
G01X6690100Y5692663D01*
G01X6684495Y5679130D01*
G01X6682583Y5664606D01*
G01X6682583Y5664606D01*
G01X6217519Y5664606D01*
G01X6217519Y5664606D01*
G01X6215607Y5679130D01*
G01X6210001Y5692663D01*
G01X6201083Y5704285D01*
G01X6189462Y5713202D01*
G01X6175928Y5718808D01*
G01X6161405Y5720720D01*
G01X6146882Y5718808D01*
G01X6133348Y5713202D01*
G01X6121727Y5704285D01*
G01X6112809Y5692663D01*
G01X6107203Y5679130D01*
G01X6105291Y5664606D01*
G01X6105291Y5664606D01*
G01X1575013Y5664606D01*
G01X1575013Y5988507D01*
G01X5571180Y5988507D01*
G01X5573092Y5973984D01*
G01X5578698Y5960450D01*
G01X5587615Y5948829D01*
G01X5599237Y5939911D01*
G01X5612771Y5934306D01*
G01X5627294Y5932394D01*
G01X5641817Y5934306D01*
G01X5655351Y5939911D01*
G01X5666972Y5948829D01*
G01X5675890Y5960450D01*
G01X5681495Y5973984D01*
G01X5683407Y5988507D01*
G01X5681495Y6003030D01*
G01X5675890Y6016564D01*
G01X5666972Y6028186D01*
G01X5655351Y6037103D01*
G01X5641817Y6042709D01*
G01X5627294Y6044621D01*
G01X5612771Y6042709D01*
G01X5599237Y6037103D01*
G01X5587615Y6028186D01*
G01X5578698Y6016564D01*
G01X5573092Y6003030D01*
G01X5571180Y5988507D01*
G01X5571180Y5988507D01*
G01X1575013Y5988507D01*
G01X1575013Y6267907D01*
G01X5596580Y6267907D01*
G01X5598492Y6253384D01*
G01X5604098Y6239850D01*
G01X5613015Y6228229D01*
G01X5624637Y6219311D01*
G01X5638171Y6213706D01*
G01X5652694Y6211794D01*
G01X5667217Y6213706D01*
G01X5680751Y6219311D01*
G01X5692372Y6228229D01*
G01X5701290Y6239850D01*
G01X5706895Y6253384D01*
G01X5708807Y6267907D01*
G01X5706895Y6282430D01*
G01X5702390Y6293307D01*
G01X5929981Y6293307D01*
G01X5931893Y6278784D01*
G01X5937498Y6265250D01*
G01X5946416Y6253629D01*
G01X5958037Y6244711D01*
G01X5971571Y6239106D01*
G01X5986094Y6237194D01*
G01X6000617Y6239106D01*
G01X6014151Y6244711D01*
G01X6025773Y6253629D01*
G01X6032733Y6262700D01*
G01X6423299Y6262700D01*
G01X6425211Y6248177D01*
G01X6430817Y6234643D01*
G01X6439735Y6223022D01*
G01X6451356Y6214104D01*
G01X6464890Y6208499D01*
G01X6479413Y6206587D01*
G01X6493936Y6208499D01*
G01X6507470Y6214104D01*
G01X6519091Y6223022D01*
G01X6528009Y6234643D01*
G01X6533615Y6248177D01*
G01X6535527Y6262700D01*
G01X6533615Y6277223D01*
G01X6528009Y6290757D01*
G01X6519091Y6302379D01*
G01X6507470Y6311296D01*
G01X6493936Y6316902D01*
G01X6479413Y6318814D01*
G01X6464890Y6316902D01*
G01X6451356Y6311296D01*
G01X6439735Y6302379D01*
G01X6430817Y6290757D01*
G01X6425211Y6277223D01*
G01X6423299Y6262700D01*
G01X6423299Y6262700D01*
G01X6032733Y6262700D01*
G01X6034690Y6265250D01*
G01X6040296Y6278784D01*
G01X6042208Y6293307D01*
G01X6040296Y6307830D01*
G01X6034690Y6321364D01*
G01X6025773Y6332986D01*
G01X6014151Y6341903D01*
G01X6000617Y6347509D01*
G01X5986094Y6349421D01*
G01X5971571Y6347509D01*
G01X5958037Y6341903D01*
G01X5946416Y6332986D01*
G01X5937498Y6321364D01*
G01X5931893Y6307830D01*
G01X5929981Y6293307D01*
G01X5929981Y6293307D01*
G01X5702390Y6293307D01*
G01X5701290Y6295964D01*
G01X5692372Y6307586D01*
G01X5680751Y6316503D01*
G01X5667217Y6322109D01*
G01X5652694Y6324021D01*
G01X5638171Y6322109D01*
G01X5624637Y6316503D01*
G01X5613015Y6307586D01*
G01X5604098Y6295964D01*
G01X5598492Y6282430D01*
G01X5596580Y6267907D01*
G01X5596580Y6267907D01*
G01X1575013Y6267907D01*
G01X1575013Y6355893D01*
G01X6052180Y6355893D01*
G01X6054092Y6341370D01*
G01X6059698Y6327836D01*
G01X6068615Y6316214D01*
G01X6080237Y6307297D01*
G01X6093770Y6301691D01*
G01X6108294Y6299779D01*
G01X6122817Y6301691D01*
G01X6136350Y6307297D01*
G01X6147972Y6316214D01*
G01X6156889Y6327836D01*
G01X6162495Y6341370D01*
G01X6164407Y6355893D01*
G01X6162495Y6370416D01*
G01X6156889Y6383950D01*
G01X6147972Y6395571D01*
G01X6136350Y6404489D01*
G01X6122817Y6410094D01*
G01X6108294Y6412006D01*
G01X6093770Y6410094D01*
G01X6080237Y6404489D01*
G01X6068615Y6395571D01*
G01X6059698Y6383950D01*
G01X6054092Y6370416D01*
G01X6052180Y6355893D01*
G01X6052180Y6355893D01*
G01X1575013Y6355893D01*
G01X1575013Y6451600D01*
G01X5149362Y6451600D01*
G01X5151274Y6437077D01*
G01X5156880Y6423543D01*
G01X5165798Y6411922D01*
G01X5177419Y6403004D01*
G01X5190953Y6397398D01*
G01X5205476Y6395486D01*
G01X5219999Y6397398D01*
G01X5233533Y6403004D01*
G01X5245154Y6411922D01*
G01X5254072Y6423543D01*
G01X5259678Y6437077D01*
G01X5260814Y6445707D01*
G01X5926780Y6445707D01*
G01X5928692Y6431184D01*
G01X5934298Y6417650D01*
G01X5943215Y6406029D01*
G01X5954837Y6397111D01*
G01X5968371Y6391506D01*
G01X5982894Y6389594D01*
G01X5997417Y6391506D01*
G01X6010951Y6397111D01*
G01X6022572Y6406029D01*
G01X6031490Y6417650D01*
G01X6037095Y6431184D01*
G01X6039007Y6445707D01*
G01X6037095Y6460230D01*
G01X6031490Y6473764D01*
G01X6022572Y6485386D01*
G01X6010951Y6494303D01*
G01X5997417Y6499909D01*
G01X5982894Y6501821D01*
G01X5968371Y6499909D01*
G01X5954837Y6494303D01*
G01X5943215Y6485386D01*
G01X5934298Y6473764D01*
G01X5928692Y6460230D01*
G01X5926780Y6445707D01*
G01X5926780Y6445707D01*
G01X5260814Y6445707D01*
G01X5261590Y6451600D01*
G01X5259678Y6466123D01*
G01X5254072Y6479657D01*
G01X5245154Y6491278D01*
G01X5233533Y6500196D01*
G01X5219999Y6505802D01*
G01X5205476Y6507714D01*
G01X5190953Y6505802D01*
G01X5177419Y6500196D01*
G01X5165798Y6491278D01*
G01X5156880Y6479657D01*
G01X5151274Y6466123D01*
G01X5149362Y6451600D01*
G01X5149362Y6451600D01*
G01X1575013Y6451600D01*
G01X1575013Y6553200D01*
G01X5047762Y6553200D01*
G01X5049674Y6538677D01*
G01X5055280Y6525143D01*
G01X5064198Y6513522D01*
G01X5075819Y6504604D01*
G01X5089353Y6498998D01*
G01X5103876Y6497086D01*
G01X5118399Y6498998D01*
G01X5131933Y6504604D01*
G01X5143554Y6513522D01*
G01X5149989Y6521907D01*
G01X6335593Y6521907D01*
G01X6337505Y6507384D01*
G01X6343111Y6493850D01*
G01X6352028Y6482229D01*
G01X6363650Y6473311D01*
G01X6377184Y6467706D01*
G01X6391707Y6465794D01*
G01X6406230Y6467706D01*
G01X6419764Y6473311D01*
G01X6431385Y6482229D01*
G01X6440303Y6493850D01*
G01X6445908Y6507384D01*
G01X6447820Y6521907D01*
G01X6445908Y6536430D01*
G01X6440303Y6549964D01*
G01X6431385Y6561586D01*
G01X6419764Y6570503D01*
G01X6406230Y6576109D01*
G01X6391707Y6578021D01*
G01X6377184Y6576109D01*
G01X6363650Y6570503D01*
G01X6352028Y6561586D01*
G01X6343111Y6549964D01*
G01X6337505Y6536430D01*
G01X6335593Y6521907D01*
G01X6335593Y6521907D01*
G01X5149989Y6521907D01*
G01X5152472Y6525143D01*
G01X5158078Y6538677D01*
G01X5159990Y6553200D01*
G01X5158078Y6567723D01*
G01X5152472Y6581257D01*
G01X5143554Y6592878D01*
G01X5131933Y6601796D01*
G01X5118399Y6607402D01*
G01X5103876Y6609314D01*
G01X5089353Y6607402D01*
G01X5075819Y6601796D01*
G01X5064198Y6592878D01*
G01X5055280Y6581257D01*
G01X5049674Y6567723D01*
G01X5047762Y6553200D01*
G01X5047762Y6553200D01*
G01X1575013Y6553200D01*
G01X1575013Y6692900D01*
G01X3229446Y6692900D01*
G01X3231328Y6673790D01*
G01X3236902Y6655415D01*
G01X3245954Y6638480D01*
G01X3258136Y6623636D01*
G01X3272980Y6611454D01*
G01X3289915Y6602402D01*
G01X3308290Y6596828D01*
G01X3327400Y6594946D01*
G01X3346510Y6596828D01*
G01X3364885Y6602402D01*
G01X3381820Y6611454D01*
G01X3396664Y6623636D01*
G01X3408846Y6638480D01*
G01X3417898Y6655415D01*
G01X3423472Y6673790D01*
G01X3425354Y6692900D01*
G01X3425354Y6692900D01*
G01X3470787Y6692900D01*
G01X3472670Y6672575D01*
G01X3478256Y6652942D01*
G01X3487355Y6634670D01*
G01X3499656Y6618380D01*
G01X3514741Y6604629D01*
G01X3532095Y6593883D01*
G01X3551129Y6586509D01*
G01X3571194Y6582759D01*
G01X3591606Y6582759D01*
G01X3611671Y6586509D01*
G01X3630705Y6593883D01*
G01X3648059Y6604629D01*
G01X3663144Y6618380D01*
G01X3675445Y6634670D01*
G01X3684544Y6652942D01*
G01X3690130Y6672575D01*
G01X3692013Y6692900D01*
G01X3692013Y6692900D01*
G01X3724787Y6692900D01*
G01X3726670Y6672575D01*
G01X3732256Y6652942D01*
G01X3741355Y6634670D01*
G01X3753656Y6618380D01*
G01X3768741Y6604629D01*
G01X3786095Y6593883D01*
G01X3805129Y6586509D01*
G01X3825194Y6582759D01*
G01X3845606Y6582759D01*
G01X3865671Y6586509D01*
G01X3884705Y6593883D01*
G01X3902059Y6604629D01*
G01X3917144Y6618380D01*
G01X3929445Y6634670D01*
G01X3938544Y6652942D01*
G01X3944130Y6672575D01*
G01X3946013Y6692900D01*
G01X3946013Y6692900D01*
G01X3944130Y6713225D01*
G01X3938544Y6732858D01*
G01X3929445Y6751130D01*
G01X3917144Y6767420D01*
G01X3905648Y6777900D01*
G01X3978787Y6777900D01*
G01X3978787Y6607900D01*
G01X3980737Y6598098D01*
G01X3986289Y6589789D01*
G01X3994598Y6584237D01*
G01X4004400Y6582287D01*
G01X4174400Y6582287D01*
G01X4184202Y6584237D01*
G01X4192511Y6589789D01*
G01X4198063Y6598098D01*
G01X4200013Y6607900D01*
G01X4200013Y6777900D01*
G01X4198063Y6787702D01*
G01X4192511Y6796011D01*
G01X4184202Y6801563D01*
G01X4174400Y6803513D01*
G01X4004400Y6803513D01*
G01X4004400Y6803513D01*
G01X3994598Y6801563D01*
G01X3986289Y6796011D01*
G01X3980737Y6787702D01*
G01X3978787Y6777900D01*
G01X3905648Y6777900D01*
G01X3902059Y6781171D01*
G01X3884705Y6791917D01*
G01X3865671Y6799291D01*
G01X3845606Y6803041D01*
G01X3825194Y6803041D01*
G01X3805129Y6799291D01*
G01X3786095Y6791917D01*
G01X3768741Y6781171D01*
G01X3753656Y6767420D01*
G01X3741355Y6751130D01*
G01X3732256Y6732858D01*
G01X3726670Y6713225D01*
G01X3724787Y6692900D01*
G01X3692013Y6692900D01*
G01X3690130Y6713225D01*
G01X3684544Y6732858D01*
G01X3675445Y6751130D01*
G01X3663144Y6767420D01*
G01X3648059Y6781171D01*
G01X3630705Y6791917D01*
G01X3611671Y6799291D01*
G01X3591606Y6803041D01*
G01X3571194Y6803041D01*
G01X3551129Y6799291D01*
G01X3532095Y6791917D01*
G01X3514741Y6781171D01*
G01X3499656Y6767420D01*
G01X3487355Y6751130D01*
G01X3478256Y6732858D01*
G01X3472670Y6713225D01*
G01X3470787Y6692900D01*
G01X3425354Y6692900D01*
G01X3423472Y6712010D01*
G01X3417898Y6730385D01*
G01X3408846Y6747320D01*
G01X3396664Y6762164D01*
G01X3381820Y6774346D01*
G01X3364885Y6783398D01*
G01X3346510Y6788972D01*
G01X3327400Y6790854D01*
G01X3308290Y6788972D01*
G01X3289915Y6783398D01*
G01X3272980Y6774346D01*
G01X3258136Y6762164D01*
G01X3245954Y6747320D01*
G01X3236902Y6730385D01*
G01X3231328Y6712010D01*
G01X3229446Y6692900D01*
G01X1575013Y6692900D01*
G01X1575013Y7022887D01*
G37*
G54D10*
G01X1575013Y7022887D02*
G01X8013487Y7022887D01*
G01X8013487Y1867113D01*
G01X1575013Y1867113D01*
G01X1575013Y7022887D01*
G01X1878104Y3401065D02*
G01X1818104Y3401065D01*
G03X1818104Y3255157I0J-72954D01*
G01X1878104Y3255157D01*
G03X1878104Y3401065I0J72954D01*
G01X1878104Y2536043D02*
G01X1818104Y2536043D01*
G03X1818104Y2390135I0J-72954D01*
G01X1878104Y2390135D01*
G03X1878104Y2536043I0J72954D01*
G01X2010287Y4588600D02*
G03X2035900Y4562987I25613J0D01*
G01X2205900Y4562987D01*
G03X2231513Y4588600I0J25613D01*
G01X2231513Y4758600D01*
G03X2205900Y4784213I-25613J0D01*
G01X2035900Y4784213D01*
G03X2010287Y4758600I0J-25613D01*
G01X2010287Y4588600D01*
G01X2120900Y4530213D02*
G03X2120900Y4308987I0J-110613D01*
G03X2120900Y4530213I0J110613D01*
G01X2120900Y4276213D02*
G03X2120900Y4054987I0J-110613D01*
G03X2120900Y4276213I0J110613D01*
G01X2120900Y4009554D02*
G03X2120900Y3813646I0J-97954D01*
G03X2120900Y4009554I0J97954D01*
G01X2151766Y2605608D02*
G03X2277994Y2605608I63114J0D01*
G03X2151766Y2605608I-63114J0D01*
G01X2151766Y3185592D02*
G03X2277994Y3185592I63114J0D01*
G03X2151766Y3185592I-63114J0D01*
G01X2306086Y3401065D02*
G01X2226086Y3401065D01*
G03X2226086Y3255157I0J-72954D01*
G01X2306086Y3255157D01*
G03X2306086Y3401065I0J72954D01*
G01X2306086Y2536043D02*
G01X2226086Y2536043D01*
G03X2226086Y2390135I0J-72954D01*
G01X2306086Y2390135D01*
G03X2306086Y2536043I0J72954D01*
G01X2179086Y3734892D02*
G03X2291314Y3734892I56114J0D01*
G03X2179086Y3734892I-56114J0D01*
G01X2396485Y2989529D02*
G03X2508712Y2989529I56114J0D01*
G03X2396485Y2989529I-56114J0D01*
G01X2421885Y2786329D02*
G03X2534112Y2786329I56114J0D01*
G03X2421885Y2786329I-56114J0D01*
G01X2622088Y2996108D02*
G03X2734315Y2996108I56114J0D01*
G03X2622088Y2996108I-56114J0D01*
G01X2853685Y2919908D02*
G03X2965912Y2919908I56114J0D01*
G03X2853685Y2919908I-56114J0D01*
G01X3021320Y3021285D02*
G03X3003197Y3124356I-29022J48026D01*
G03X2920375Y3188329I-53800J15948D01*
G03X2938498Y3085259I29022J-48026D01*
G03X3021320Y3021285I53800J-15948D01*
G01X3425354Y6692900D02*
G03X3229446Y6692900I-97954J0D01*
G03X3425354Y6692900I97954J0D01*
G01X3266384Y2815311D02*
G03X3378611Y2815311I56114J0D01*
G03X3266384Y2815311I-56114J0D01*
G01X3285485Y4014292D02*
G03X3397712Y4014292I56114J0D01*
G03X3285485Y4014292I-56114J0D01*
G01X3413603Y2668092D02*
G03X3525830Y2668092I56114J0D01*
G03X3413603Y2668092I-56114J0D01*
G01X3692013Y6692900D02*
G03X3470787Y6692900I-110613J0D01*
G03X3692013Y6692900I110613J0D01*
G01X3646394Y4284294D02*
G03X3758621Y4284294I56114J0D01*
G03X3646394Y4284294I-56114J0D01*
G01X3665393Y2659101D02*
G03X3777620Y2659101I56114J0D01*
G03X3665393Y2659101I-56114J0D01*
G01X3946013Y6692900D02*
G03X3724787Y6692900I-110613J0D01*
G03X3946013Y6692900I110613J0D01*
G01X3747994Y3928694D02*
G03X3860221Y3928694I56114J0D01*
G03X3747994Y3928694I-56114J0D01*
G01X3838916Y4025775D02*
G03X3863571Y4125685I-9409J55319D01*
G03X3807271Y4211826I-46891J30821D01*
G03X3782616Y4111916I9409J-55319D01*
G03X3838916Y4025775I46891J-30821D01*
G01X3820003Y2242515D02*
G03X3932230Y2242515I56114J0D01*
G03X3820003Y2242515I-56114J0D01*
G01X3945885Y4750892D02*
G03X4058112Y4750892I56114J0D01*
G03X3945885Y4750892I-56114J0D01*
G01X4004400Y6803513D02*
G03X3978787Y6777900I0J-25613D01*
G01X3978787Y6607900D01*
G03X4004400Y6582287I25613J0D01*
G01X4174400Y6582287D01*
G03X4200013Y6607900I0J25613D01*
G01X4200013Y6777900D01*
G03X4174400Y6803513I-25613J0D01*
G01X4004400Y6803513D01*
G01X3982486Y4194734D02*
G03X4094714Y4194734I56114J0D01*
G03X3982486Y4194734I-56114J0D01*
G01X4047180Y4323893D02*
G03X4159407Y4323893I56114J0D01*
G03X4047180Y4323893I-56114J0D01*
G01X4137340Y4480738D02*
G03X4245106Y4484039I53406J17221D01*
G03X4334500Y4544314I35988J43054D01*
G03X4226734Y4541013I-53406J-17221D01*
G03X4137340Y4480738I-35988J-43054D01*
G01X4204175Y3786021D02*
G03X4307471Y3778987I53119J18086D01*
G03X4385013Y3847593I24423J50520D01*
G03X4281717Y3854627I-53119J-18086D01*
G03X4204175Y3786021I-24423J-50520D01*
G01X4224193Y4679493D02*
G03X4336420Y4679493I56114J0D01*
G03X4224193Y4679493I-56114J0D01*
G01X4250380Y4933493D02*
G03X4362607Y4933493I56114J0D01*
G03X4250380Y4933493I-56114J0D01*
G01X4250380Y4388307D02*
G03X4362607Y4388307I56114J0D01*
G03X4250380Y4388307I-56114J0D01*
G01X4340549Y3441692D02*
G03X4446083Y3436759I53651J16442D01*
G03X4530731Y3499976I30997J46775D01*
G03X4425197Y3504909I-53651J-16442D01*
G03X4340549Y3441692I-30997J-46775D01*
G01X4553380Y4655761D02*
G03X4465576Y4586745I-40486J-38854D01*
G03X4393008Y4501853I-32083J-46037D01*
G03X4480812Y4570870I40486J38854D01*
G03X4553380Y4655761I32083J46037D01*
G01X4421325Y4877817D02*
G03X4494636Y4954865I23675J50875D01*
G03X4506368Y5060568I-11943J54828D01*
G03X4433057Y4983520I-23675J-50875D01*
G03X4421325Y4877817I11943J-54828D01*
G01X4455993Y4337507D02*
G03X4568220Y4337507I56114J0D01*
G03X4455993Y4337507I-56114J0D01*
G01X4490232Y3820617D02*
G03X4602460Y3820617I56114J0D01*
G03X4490232Y3820617I-56114J0D01*
G01X4500392Y4083507D02*
G03X4612620Y4083507I56114J0D01*
G03X4500392Y4083507I-56114J0D01*
G01X4515632Y3693617D02*
G03X4627860Y3693617I56114J0D01*
G03X4515632Y3693617I-56114J0D01*
G01X4591832Y4624959D02*
G03X4704060Y4624959I56114J0D01*
G03X4591832Y4624959I-56114J0D01*
G01X4684125Y4294480D02*
G03X4684556Y4404631I-10525J55118D01*
G03X4643568Y4506874I-30463J47125D01*
G03X4643137Y4396723I10525J-55118D01*
G03X4684125Y4294480I30463J-47125D01*
G01X4606793Y4185107D02*
G03X4719020Y4185107I56114J0D01*
G03X4606793Y4185107I-56114J0D01*
G01X4744721Y4778495D02*
G03X4772137Y4879519I-5818J55811D01*
G03X4724475Y4972718I-41844J37387D01*
G03X4697059Y4871693I5818J-55811D01*
G03X4744721Y4778495I41844J-37387D01*
G01X4861580Y3169107D02*
G03X4973808Y3169107I56114J0D01*
G03X4861580Y3169107I-56114J0D01*
G01X4869988Y4182593D02*
G03X4982215Y4182593I56114J0D01*
G03X4869988Y4182593I-56114J0D01*
G01X4896632Y3896817D02*
G03X5008860Y3896817I56114J0D01*
G03X4896632Y3896817I-56114J0D01*
G01X5061893Y4659591D02*
G03X5032513Y4761213I-32693J45606D01*
G03X4945707Y4821670I-54113J14850D01*
G03X4975087Y4720048I32693J-45606D01*
G03X5061893Y4659591I54113J-14850D01*
G01X4930107Y4342711D02*
G03X4991071Y4301591I54186J14583D01*
G03X5055772Y4214629I44021J-34797D01*
G03X5155296Y4171673I55521J-8135D01*
G03X5090614Y4258658I-44003J34821D01*
G03X5028314Y4322496I-55521J8135D01*
G03X5037401Y4375411I-44021J34797D01*
G03X5038119Y4478259I-22095J51581D01*
G03X4962198Y4408874I-22812J-51267D01*
G03X4930107Y4342711I22095J-51581D01*
G01X4998486Y5150002D02*
G03X5110714Y5150002I56114J0D01*
G03X4998486Y5150002I-56114J0D01*
G01X5141191Y3955983D02*
G03X5137879Y4059971I-22685J51324D01*
G03X5063208Y4132418I-51986J21123D01*
G03X5066520Y4028431I22685J-51324D01*
G03X5141191Y3955983I51986J-21123D01*
G01X5047762Y6553200D02*
G03X5159990Y6553200I56114J0D01*
G03X5047762Y6553200I-56114J0D01*
G01X5149362Y6451600D02*
G03X5261590Y6451600I56114J0D01*
G03X5149362Y6451600I-56114J0D01*
G01X5276388Y5147793D02*
G03X5388615Y5147793I56114J0D01*
G03X5276388Y5147793I-56114J0D01*
G01X5359979Y5551907D02*
G03X5472206Y5551907I56114J0D01*
G03X5359979Y5551907I-56114J0D01*
G01X5368793Y3626307D02*
G03X5481020Y3626307I56114J0D01*
G03X5368793Y3626307I-56114J0D01*
G01X5390993Y4680991D02*
G03X5503220Y4680991I56114J0D01*
G03X5390993Y4680991I-56114J0D01*
G01X5563179Y4157294D02*
G03X5675406Y4157294I56114J0D01*
G03X5563179Y4157294I-56114J0D01*
G01X5571180Y5988507D02*
G03X5683407Y5988507I56114J0D01*
G03X5571180Y5988507I-56114J0D01*
G01X5596580Y6267907D02*
G03X5708807Y6267907I56114J0D01*
G03X5596580Y6267907I-56114J0D01*
G01X5681377Y3824341D02*
G03X5699635Y3931787I-4070J55966D01*
G03X5722829Y3960321I-29543J47707D01*
G03X5806739Y4025057I30677J46986D01*
G03X5700770Y4026480I-53232J-17750D01*
G03X5620683Y4006092I-30677J-46986D01*
G03X5647764Y3928014I49409J-26598D01*
G03X5681377Y3824341I29543J-47707D01*
G01X5738592Y3873906D02*
G03X5850819Y3873906I56114J0D01*
G03X5738592Y3873906I-56114J0D01*
G01X5791779Y4560494D02*
G03X5904006Y4560494I56114J0D01*
G03X5791779Y4560494I-56114J0D01*
G01X5874786Y2867863D02*
G03X5987014Y2867863I56114J0D01*
G03X5874786Y2867863I-56114J0D01*
G01X5926780Y6445707D02*
G03X6039007Y6445707I56114J0D01*
G03X5926780Y6445707I-56114J0D01*
G01X5929981Y6293307D02*
G03X6042208Y6293307I56114J0D01*
G03X5929981Y6293307I-56114J0D01*
G01X5943036Y2393213D02*
G03X6055263Y2393213I56114J0D01*
G03X5943036Y2393213I-56114J0D01*
G01X5969579Y4538294D02*
G03X6081806Y4538294I56114J0D01*
G03X5969579Y4538294I-56114J0D01*
G01X5969579Y3700094D02*
G03X6081806Y3700094I56114J0D01*
G03X5969579Y3700094I-56114J0D01*
G01X5976386Y4026764D02*
G03X6088614Y4026764I56114J0D01*
G03X5976386Y4026764I-56114J0D01*
G01X5976386Y3366364D02*
G03X6088614Y3366364I56114J0D01*
G03X5976386Y3366364I-56114J0D01*
G01X5981390Y4255694D02*
G03X6093617Y4255694I56114J0D01*
G03X5981390Y4255694I-56114J0D01*
G01X5994979Y2709494D02*
G03X6107206Y2709494I56114J0D01*
G03X5994979Y2709494I-56114J0D01*
G01X6052180Y6355893D02*
G03X6164407Y6355893I56114J0D01*
G03X6052180Y6355893I-56114J0D01*
G01X6105291Y5664606D02*
G03X6217519Y5664606I56114J0D01*
G03X6105291Y5664606I-56114J0D01*
G01X6108390Y4738294D02*
G03X6220617Y4738294I56114J0D01*
G03X6108390Y4738294I-56114J0D01*
G01X6108390Y4012794D02*
G03X6220617Y4012794I56114J0D01*
G03X6108390Y4012794I-56114J0D01*
G01X6108390Y3034894D02*
G03X6220617Y3034894I56114J0D01*
G03X6108390Y3034894I-56114J0D01*
G01X6108390Y2031594D02*
G03X6220617Y2031594I56114J0D01*
G03X6108390Y2031594I-56114J0D01*
G01X6235390Y5017694D02*
G03X6347617Y5017694I56114J0D01*
G03X6235390Y5017694I-56114J0D01*
G01X6235390Y4507408D02*
G03X6347617Y4507408I56114J0D01*
G03X6235390Y4507408I-56114J0D01*
G01X6301616Y5340661D02*
G03X6402047Y5308234I56080J1950D01*
G03X6499984Y5347558I41857J37373D01*
G03X6399553Y5379984I-56080J-1950D01*
G03X6301616Y5340661I-41857J-37373D01*
G01X6301583Y3170911D02*
G03X6413810Y3170911I56114J0D01*
G03X6301583Y3170911I-56114J0D01*
G01X6335593Y6521907D02*
G03X6447820Y6521907I56114J0D01*
G03X6335593Y6521907I-56114J0D01*
G01X6336990Y3453308D02*
G03X6449217Y3453308I56114J0D01*
G03X6336990Y3453308I-56114J0D01*
G01X6336990Y2450008D02*
G03X6449217Y2450008I56114J0D01*
G03X6336990Y2450008I-56114J0D01*
G01X6352383Y4402811D02*
G03X6464610Y4402811I56114J0D01*
G03X6352383Y4402811I-56114J0D01*
G01X6403183Y2167611D02*
G03X6515410Y2167611I56114J0D01*
G03X6403183Y2167611I-56114J0D01*
G01X6423299Y6262700D02*
G03X6535527Y6262700I56114J0D01*
G03X6423299Y6262700I-56114J0D01*
G01X6433993Y4261307D02*
G03X6546220Y4261307I56114J0D01*
G03X6433993Y4261307I-56114J0D01*
G01X6518189Y3251891D02*
G03X6598504Y3319341I27315J49017D01*
G03X6613611Y3423127I-12207J54770D01*
G03X6533296Y3355678I-27315J-49017D01*
G03X6518189Y3251891I12207J-54770D01*
G01X6507868Y2255987D02*
G03X6598416Y2316291I37635J41621D01*
G03X6649332Y2412432I13280J54520D01*
G03X6558784Y2352127I-37635J-41621D01*
G03X6507868Y2255987I-13280J-54520D01*
G01X6530183Y5393411D02*
G03X6642410Y5393411I56114J0D01*
G03X6530183Y5393411I-56114J0D01*
G01X6540190Y5244008D02*
G03X6652417Y5244008I56114J0D01*
G03X6540190Y5244008I-56114J0D01*
G01X6555583Y4453611D02*
G03X6667810Y4453611I56114J0D01*
G03X6555583Y4453611I-56114J0D01*
G01X6565590Y4269105D02*
G03X6677817Y4269105I56114J0D01*
G03X6565590Y4269105I-56114J0D01*
G01X6719912Y4053783D02*
G03X6616720Y4055701I-52005J-21075D01*
G03X6686691Y3979831I51186J-22994D01*
G03X6789882Y3977912I52005J21075D01*
G03X6719912Y4053783I-51186J22994D01*
G01X6631783Y2883306D02*
G03X6744010Y2883306I56114J0D01*
G03X6631783Y2883306I-56114J0D01*
G01X6662593Y2026107D02*
G03X6774820Y2026107I56114J0D01*
G03X6662593Y2026107I-56114J0D01*
G01X6682583Y5664606D02*
G03X6794810Y5664606I56114J0D01*
G03X6682583Y5664606I-56114J0D01*
G01X6682583Y4724806D02*
G03X6794810Y4724806I56114J0D01*
G03X6682583Y4724806I-56114J0D01*
G01X6682583Y3036697D02*
G03X6794810Y3036697I56114J0D01*
G03X6682583Y3036697I-56114J0D01*
G01X7119386Y2235200D02*
G03X7231614Y2235200I56114J0D01*
G03X7119386Y2235200I-56114J0D01*
G54D11*
G01X1848104Y2522835D02*
G01X1848104Y2525883D01*
G01X1848104Y2403343D02*
G01X1848104Y2400295D01*
G54D12*
G01X1937850Y2463089D02*
G01X1940898Y2463089D01*
G01X1758358Y2463089D02*
G01X1755310Y2463089D01*
G54D13*
G01X2266086Y2403343D02*
G01X2266086Y2400295D01*
G54D12*
G01X2365832Y2463089D02*
G01X2368880Y2463089D01*
G01X2166341Y2463089D02*
G01X2163293Y2463089D01*
G54D13*
G01X2266086Y3387857D02*
G01X2266086Y3390905D01*
G54D12*
G01X2365832Y3328111D02*
G01X2368880Y3328111D01*
G01X2166341Y3328111D02*
G01X2163293Y3328111D01*
G54D11*
G01X1848104Y3387857D02*
G01X1848104Y3390905D01*
G01X1848104Y3268365D02*
G01X1848104Y3265317D01*
G54D12*
G01X1937850Y3328111D02*
G01X1940898Y3328111D01*
G01X1758358Y3328111D02*
G01X1755310Y3328111D01*
G54D14*
G01X2120900Y3996346D02*
G01X2120900Y3999394D01*
G01X2120900Y3826854D02*
G01X2120900Y3823806D01*
G01X2205646Y3911600D02*
G01X2208694Y3911600D01*
G01X2036154Y3911600D02*
G01X2033106Y3911600D01*
G01X3412146Y6692900D02*
G01X3415194Y6692900D01*
G01X3242654Y6692900D02*
G01X3239606Y6692900D01*
G01X3327400Y6608154D02*
G01X3327400Y6605106D01*
G01X3327400Y6777646D02*
G01X3327400Y6780694D01*
G04 Copper End*

G04 Pad Start*
G54D16*
G01X4089400Y6692900D03*
G54D17*
G01X3835400Y6692900D03*
G01X3581400Y6692900D03*
G01X3327400Y6692900D03*
G54D16*
G01X2120900Y4673600D03*
G54D17*
G01X2120900Y4419600D03*
G01X2120900Y4165600D03*
G01X2120900Y3911600D03*
G54D18*
G01X1848104Y2463089D03*
G54D19*
G01X2266086Y2463089D03*
G01X2266086Y3328111D03*
G54D18*
G01X1848104Y3328111D03*
G04 Pad End*

G04 Via Start*
G54D20*
G01X7175500Y2235200D03*
G01X5999150Y2393213D03*
G01X5930900Y2867863D03*
G01X6032500Y3366364D03*
G01X6032500Y4026764D03*
G01X4952746Y3896817D03*
G01X4546346Y3820617D03*
G01X4571746Y3693617D03*
G01X4647946Y4624959D03*
G01X4738903Y4834306D03*
G01X5054600Y5150002D03*
G01X4190746Y4497959D03*
G01X3469716Y2668092D03*
G01X3322498Y2815311D03*
G01X2992298Y3069311D03*
G01X5332501Y5147793D03*
G01X4926101Y4182593D03*
G01X4257294Y3804107D03*
G01X4917694Y3169107D03*
G01X6393104Y2450008D03*
G01X6545504Y2297608D03*
G01X6611696Y2370811D03*
G01X6459296Y2167611D03*
G01X4662907Y4185107D03*
G01X5424907Y3626307D03*
G01X6393104Y3453308D03*
G01X6545504Y3300908D03*
G01X6586296Y3374111D03*
G01X6357696Y3170911D03*
G01X5111293Y4206494D03*
G01X6291504Y4507408D03*
G01X6621704Y4269105D03*
G01X6611696Y4453611D03*
G01X6408496Y4402811D03*
G01X4730293Y4916907D03*
G01X5416093Y5551907D03*
G01X6443904Y5345608D03*
G01X6596304Y5244008D03*
G01X6586296Y5393411D03*
G01X6357696Y5342611D03*
G01X4381500Y5117236D03*
G01X4610100Y5244236D03*
G01X4159098Y3251200D03*
G01X4032098Y3124200D03*
G01X4902200Y5175402D03*
G01X5003800Y5277002D03*
G01X5549900Y4241800D03*
G01X5778500Y4394200D03*
G01X6316904Y4414012D03*
G01X6621704Y4363212D03*
G01X6627089Y5324221D03*
G01X5429098Y3276600D03*
G01X6814896Y3019704D03*
G01X6865696Y3320313D03*
G01X6865696Y2435504D03*
G01X7221296Y2664104D03*
G01X4597400Y6900012D03*
G01X5640375Y6807200D03*
G01X5447106Y4680991D03*
G01X5015306Y4426991D03*
G01X5029200Y4705198D03*
G01X4673600Y4349598D03*
G01X4978400Y4776064D03*
G01X4654093Y4451756D03*
G01X5035093Y4266794D03*
G01X4394200Y3458134D03*
G01X4038600Y4194734D03*
G01X4477080Y3483534D03*
G01X3816680Y4156507D03*
G01X4331894Y3829507D03*
G01X4306494Y4388307D03*
G01X4433494Y4540707D03*
G01X5627294Y5988507D03*
G01X5652694Y6267907D03*
G01X5982894Y6445707D03*
G01X3829507Y4081094D03*
G01X3804107Y3928694D03*
G01X3702507Y4284294D03*
G01X6479413Y6262700D03*
G01X4512107Y4337507D03*
G01X6391707Y6521907D03*
G01X4482694Y5009693D03*
G01X6108294Y6355893D03*
G01X4512894Y4616907D03*
G01X5986094Y6293307D03*
G01X5118506Y4007307D03*
G01X5677306Y3880307D03*
G01X5753506Y4007307D03*
G01X6667906Y4032707D03*
G01X6490106Y4261307D03*
G01X6738696Y3036697D03*
G01X6718706Y2026107D03*
G01X4556506Y4083507D03*
G01X5794705Y3873906D03*
G01X6738696Y4000906D03*
G01X6738696Y4724806D03*
G01X6738696Y5664606D03*
G01X6687896Y2883306D03*
G01X5085893Y4081094D03*
G01X6025693Y3700094D03*
G01X5670093Y3979494D03*
G01X5619293Y4157294D03*
G01X6025693Y4538294D03*
G01X6161405Y5664606D03*
G01X6051093Y2709494D03*
G01X4984293Y4357294D03*
G01X5847893Y4560494D03*
G01X6164504Y4738294D03*
G01X6037504Y4255694D03*
G01X6291504Y5017694D03*
G01X6164504Y4012794D03*
G01X6164504Y3034894D03*
G01X6164504Y2031594D03*
G01X5103876Y6553200D03*
G01X5205476Y6451600D03*
G01X4306494Y4933493D03*
G01X4281094Y4527093D03*
G01X4103294Y4323893D03*
G01X3876116Y2242515D03*
G01X4280306Y4679493D03*
G01X3721506Y2659101D03*
G01X3341599Y4014292D03*
G01X4001999Y4750892D03*
G01X2235200Y3734892D03*
G01X4445000Y4928692D03*
G01X2909799Y2919908D03*
G01X2477999Y2786329D03*
G01X2452599Y2989529D03*
G01X2678201Y2996108D03*
G01X2949397Y3140304D03*
G04 Via End*

M02*

