G04 Layer: DrillDrawingLayer*
G04 EasyEDA Pro v2.2.47.7, 2026-04-29 11:09:57*
G04 Gerber Generator version 0.3*
G04 Scale: 100 percent, Rotated: No, Reflected: No*
G04 Dimensions in millimeters*
G04 Leading zeros omitted, absolute positions, 4 integers and 5 decimals*
G04 Generated by one-click*
G04 Object Configs: Pad,Via,Track,Text,Image,Dimension,BoardOutline,BoardCutout,CopperFilled,SolidRegion,FPCStiffener,Line,PlaneZone,ComponentProperty,ComponentSilkscreen,TearDrop*
G04 Layer Configs: 1,15,16,17,18,2,3,4,5,6,7,8,9,10,11,13,14,56*
G04 Copper Areas: 0*
%FSLAX45Y45*%
%MOMM*%
%AMIconRect*4,1,4,0.28,-0.28,-0.28,-0.28,-0.28,0.28,0.28,0.28,0.28,-0.28,0*4,0,4,0.233333,-0.233333,0.233333,0.233333,-0.233333,0.233333,-0.233333,-0.233333,0.233333,-0.233333,0*%
%AMIconTriangle*4,1,3,-0.339593,0.240473,0.339593,0.240473,0,-0.37884,-0.339593,0.240473,0*4,0,3,-0.265673,0.19404,0,-0.27342,0.266233,0.19404,-0.265673,0.19404,0*%
%AMIconStar6*4,1,12,0.12068,0.20888,0.298527,0.172713,0.241313,0,0.298527,-0.17206,0.12068,-0.208227,0,-0.344073,-0.120073,-0.208227,-0.298573,-0.17206,-0.240707,0,-0.298573,0.17206,-0.120073,0.20888,0,0.344073,0.12068,0.20888,0*4,0,12,-0.000467,0.273467,-0.090067,0.171733,-0.237533,0.136733,-0.193667,-0.007467,-0.237533,-0.1372,-0.090067,-0.171733,-0.000467,-0.273933,0.090067,-0.171733,0.237533,-0.1372,0.194133,0.007,0.237533,0.1372,0.090067,0.171267,-0.000467,0.273467,0*%
%AMIconStar4*4,1,8,-0.311733,0.311733,0,0.202533,0.311733,0.311733,0.202533,0,0.311733,-0.311733,0,-0.202533,-0.304407,-0.311733,-0.202533,0,-0.311733,0.311733,0*4,0,8,0.233333,-0.233333,0.1512,0,0.233333,0.233333,0,0.1512,-0.233333,0.233333,-0.1512,0,-0.233333,-0.233333,0,-0.1512,0.233333,-0.233333,0*%
%ADD10IconRect*%
%ADD11C,0.616X0.522667*%
%ADD12IconTriangle*%
%ADD13IconStar6*%
%ADD14IconStar4*%
G75*


G04 Drill Drawing Start*
G54D10*
G01X1848104Y2463089D03*
G01X1848104Y3328111D03*
G54D11*
G01X2266086Y2463089D03*
G01X2266086Y3328111D03*
G54D12*
G01X2214880Y2605608D03*
G01X2214880Y3185592D03*
G54D13*
G01X2120900Y3911600D03*
G01X2120900Y4165600D03*
G01X2120900Y4419600D03*
G01X2120900Y4673600D03*
G01X3327400Y6692900D03*
G01X3581400Y6692900D03*
G01X3835400Y6692900D03*
G01X4089400Y6692900D03*
G54D14*
G01X2235200Y3734892D03*
G01X2452599Y2989529D03*
G01X2477999Y2786329D03*
G01X2678201Y2996108D03*
G01X2909799Y2919908D03*
G01X2949397Y3140304D03*
G01X2992298Y3069311D03*
G01X3322498Y2815311D03*
G01X3341599Y4014292D03*
G01X3469716Y2668092D03*
G01X3702507Y4284294D03*
G01X3721506Y2659101D03*
G01X3804107Y3928694D03*
G01X3816680Y4156507D03*
G01X3829507Y4081094D03*
G01X3876116Y2242515D03*
G01X4001999Y4750892D03*
G01X4032098Y3124200D03*
G01X4038600Y4194734D03*
G01X4103294Y4323893D03*
G01X4159098Y3251200D03*
G01X4190746Y4497959D03*
G01X4257294Y3804107D03*
G01X4280306Y4679493D03*
G01X4281094Y4527093D03*
G01X4306494Y4388307D03*
G01X4306494Y4933493D03*
G01X4331894Y3829507D03*
G01X4381500Y5117236D03*
G01X4394200Y3458134D03*
G01X4433494Y4540707D03*
G01X4445000Y4928692D03*
G01X4477080Y3483534D03*
G01X4482694Y5009693D03*
G01X4512107Y4337507D03*
G01X4512894Y4616907D03*
G01X4546346Y3820617D03*
G01X4556506Y4083507D03*
G01X4571746Y3693617D03*
G01X4597400Y6900012D03*
G01X4610100Y5244236D03*
G01X4647946Y4624959D03*
G01X4654093Y4451756D03*
G01X4662907Y4185107D03*
G01X4673600Y4349598D03*
G01X4730293Y4916907D03*
G01X4738903Y4834306D03*
G01X4902200Y5175402D03*
G01X4917694Y3169107D03*
G01X4926101Y4182593D03*
G01X4952746Y3896817D03*
G01X4978400Y4776064D03*
G01X4984293Y4357294D03*
G01X5003800Y5277002D03*
G01X5015306Y4426991D03*
G01X5029200Y4705198D03*
G01X5035093Y4266794D03*
G01X5054600Y5150002D03*
G01X5085893Y4081094D03*
G01X5103876Y6553200D03*
G01X5111293Y4206494D03*
G01X5118506Y4007307D03*
G01X5205476Y6451600D03*
G01X5332501Y5147793D03*
G01X5416093Y5551907D03*
G01X5424907Y3626307D03*
G01X5429098Y3276600D03*
G01X5447106Y4680991D03*
G01X5549900Y4241800D03*
G01X5619293Y4157294D03*
G01X5627294Y5988507D03*
G01X5640375Y6807200D03*
G01X5652694Y6267907D03*
G01X5670093Y3979494D03*
G01X5677306Y3880307D03*
G01X5753506Y4007307D03*
G01X5778500Y4394200D03*
G01X5794705Y3873906D03*
G01X5847893Y4560494D03*
G01X5930900Y2867863D03*
G01X5982894Y6445707D03*
G01X5986094Y6293307D03*
G01X5999150Y2393213D03*
G01X6025693Y3700094D03*
G01X6025693Y4538294D03*
G01X6032500Y3366364D03*
G01X6032500Y4026764D03*
G01X6037504Y4255694D03*
G01X6051093Y2709494D03*
G01X6108294Y6355893D03*
G01X6161405Y5664606D03*
G01X6164504Y2031594D03*
G01X6164504Y3034894D03*
G01X6164504Y4012794D03*
G01X6164504Y4738294D03*
G01X6291504Y4507408D03*
G01X6291504Y5017694D03*
G01X6316904Y4414012D03*
G01X6357696Y3170911D03*
G01X6357696Y5342611D03*
G01X6391707Y6521907D03*
G01X6393104Y2450008D03*
G01X6393104Y3453308D03*
G01X6408496Y4402811D03*
G01X6443904Y5345608D03*
G01X6459296Y2167611D03*
G01X6479413Y6262700D03*
G01X6490106Y4261307D03*
G01X6545504Y2297608D03*
G01X6545504Y3300908D03*
G01X6586296Y3374111D03*
G01X6586296Y5393411D03*
G01X6596304Y5244008D03*
G01X6611696Y2370811D03*
G01X6611696Y4453611D03*
G01X6621704Y4269105D03*
G01X6621704Y4363212D03*
G01X6627089Y5324221D03*
G01X6667906Y4032707D03*
G01X6687896Y2883306D03*
G01X6718706Y2026107D03*
G01X6738696Y3036697D03*
G01X6738696Y4000906D03*
G01X6738696Y4724806D03*
G01X6738696Y5664606D03*
G01X6814896Y3019704D03*
G01X6865696Y2435504D03*
G01X6865696Y3320313D03*
G01X7175500Y2235200D03*
G01X7221296Y2664104D03*
G04 Drill Drawing End*

M02*

