G04 Layer: TopSilkscreenLayer*
G04 EasyEDA Pro v2.2.47.7, 2026-04-29 11:09:57*
G04 Gerber Generator version 0.3*
G04 Scale: 100 percent, Rotated: No, Reflected: No*
G04 Dimensions in millimeters*
G04 Leading zeros omitted, absolute positions, 4 integers and 5 decimals*
G04 Generated by one-click*
G04 Object Configs: Pad,Via,Track,Text,Image,Dimension,BoardOutline,BoardCutout,CopperFilled,SolidRegion,FPCStiffener,Line,PlaneZone,ComponentProperty,ComponentSilkscreen,TearDrop*
G04 Layer Configs: 1,15,16,17,18,2,3,4,5,6,7,8,9,10,11,13,14,56*
G04 Copper Areas: 0*
%FSLAX45Y45*%
%MOMM*%
%ADD10C,0.1524*%
%ADD11C,0.254*%
%ADD12C,0.15199*%
%ADD13C,0.127*%
%ADD14C,0.15001*%
%ADD15C,0.2*%
%ADD16C,0.4095*%
%ADD17C,0.4*%
%ADD18C,0.1*%
%ADD19C,0.06251*%
%ADD20C,0.3*%
G75*


G04 Text Start*
G54D10*
G01X4643120Y2977388D02*
G01X4649216Y2980690D01*
G01X4658614Y2989834D01*
G01X4658614Y2924810D01*
G01X7407910Y2337054D02*
G01X7401814Y2330704D01*
G01X7398766Y2321560D01*
G01X7398766Y2309114D01*
G01X7401814Y2299716D01*
G01X7407910Y2293620D01*
G01X7414260Y2293620D01*
G01X7420356Y2296668D01*
G01X7423404Y2299716D01*
G01X7426452Y2306066D01*
G01X7432802Y2324608D01*
G01X7435850Y2330704D01*
G01X7438898Y2333752D01*
G01X7445248Y2337054D01*
G01X7454392Y2337054D01*
G01X7460742Y2330704D01*
G01X7463790Y2321560D01*
G01X7463790Y2309114D01*
G01X7460742Y2299716D01*
G01X7454392Y2293620D01*
G01X7438898Y2367280D02*
G01X7438898Y2404364D01*
G01X7432802Y2404364D01*
G01X7426452Y2401316D01*
G01X7423404Y2398014D01*
G01X7420356Y2391918D01*
G01X7420356Y2382520D01*
G01X7423404Y2376424D01*
G01X7429754Y2370328D01*
G01X7438898Y2367280D01*
G01X7445248Y2367280D01*
G01X7454392Y2370328D01*
G01X7460742Y2376424D01*
G01X7463790Y2382520D01*
G01X7463790Y2391918D01*
G01X7460742Y2398014D01*
G01X7454392Y2404364D01*
G01X7420356Y2434590D02*
G01X7463790Y2434590D01*
G01X7432802Y2434590D02*
G01X7423404Y2443734D01*
G01X7420356Y2449830D01*
G01X7420356Y2459228D01*
G01X7423404Y2465324D01*
G01X7432802Y2468626D01*
G01X7463790Y2468626D01*
G01X7429754Y2532888D02*
G01X7423404Y2529586D01*
G01X7420356Y2520442D01*
G01X7420356Y2511044D01*
G01X7423404Y2501900D01*
G01X7429754Y2498852D01*
G01X7435850Y2501900D01*
G01X7438898Y2507996D01*
G01X7441946Y2523490D01*
G01X7445248Y2529586D01*
G01X7451344Y2532888D01*
G01X7454392Y2532888D01*
G01X7460742Y2529586D01*
G01X7463790Y2520442D01*
G01X7463790Y2511044D01*
G01X7460742Y2501900D01*
G01X7454392Y2498852D01*
G01X7420356Y2578354D02*
G01X7423404Y2572258D01*
G01X7429754Y2566162D01*
G01X7438898Y2563114D01*
G01X7445248Y2563114D01*
G01X7454392Y2566162D01*
G01X7460742Y2572258D01*
G01X7463790Y2578354D01*
G01X7463790Y2587752D01*
G01X7460742Y2593848D01*
G01X7454392Y2600198D01*
G01X7445248Y2603246D01*
G01X7438898Y2603246D01*
G01X7429754Y2600198D01*
G01X7423404Y2593848D01*
G01X7420356Y2587752D01*
G01X7420356Y2578354D01*
G01X7420356Y2633472D02*
G01X7463790Y2633472D01*
G01X7438898Y2633472D02*
G01X7429754Y2636520D01*
G01X7423404Y2642616D01*
G01X7420356Y2648712D01*
G01X7420356Y2658110D01*
G01X7398766Y2706878D02*
G01X7401814Y2697480D01*
G01X7411212Y2691384D01*
G01X7426452Y2688336D01*
G01X7435850Y2688336D01*
G01X7451344Y2691384D01*
G01X7460742Y2697480D01*
G01X7463790Y2706878D01*
G01X7463790Y2712974D01*
G01X7460742Y2722372D01*
G01X7451344Y2728468D01*
G01X7435850Y2731516D01*
G01X7426452Y2731516D01*
G01X7411212Y2728468D01*
G01X7401814Y2722372D01*
G01X7398766Y2712974D01*
G01X7398766Y2706878D01*
G01X7407910Y4661154D02*
G01X7401814Y4654804D01*
G01X7398766Y4645660D01*
G01X7398766Y4633214D01*
G01X7401814Y4623816D01*
G01X7407910Y4617720D01*
G01X7414260Y4617720D01*
G01X7420356Y4620768D01*
G01X7423404Y4623816D01*
G01X7426452Y4630166D01*
G01X7432802Y4648708D01*
G01X7435850Y4654804D01*
G01X7438898Y4657852D01*
G01X7445248Y4661154D01*
G01X7454392Y4661154D01*
G01X7460742Y4654804D01*
G01X7463790Y4645660D01*
G01X7463790Y4633214D01*
G01X7460742Y4623816D01*
G01X7454392Y4617720D01*
G01X7438898Y4691380D02*
G01X7438898Y4728464D01*
G01X7432802Y4728464D01*
G01X7426452Y4725416D01*
G01X7423404Y4722114D01*
G01X7420356Y4716018D01*
G01X7420356Y4706620D01*
G01X7423404Y4700524D01*
G01X7429754Y4694428D01*
G01X7438898Y4691380D01*
G01X7445248Y4691380D01*
G01X7454392Y4694428D01*
G01X7460742Y4700524D01*
G01X7463790Y4706620D01*
G01X7463790Y4716018D01*
G01X7460742Y4722114D01*
G01X7454392Y4728464D01*
G01X7420356Y4758690D02*
G01X7463790Y4758690D01*
G01X7432802Y4758690D02*
G01X7423404Y4767834D01*
G01X7420356Y4773930D01*
G01X7420356Y4783328D01*
G01X7423404Y4789424D01*
G01X7432802Y4792726D01*
G01X7463790Y4792726D01*
G01X7429754Y4856988D02*
G01X7423404Y4853686D01*
G01X7420356Y4844542D01*
G01X7420356Y4835144D01*
G01X7423404Y4826000D01*
G01X7429754Y4822952D01*
G01X7435850Y4826000D01*
G01X7438898Y4832096D01*
G01X7441946Y4847590D01*
G01X7445248Y4853686D01*
G01X7451344Y4856988D01*
G01X7454392Y4856988D01*
G01X7460742Y4853686D01*
G01X7463790Y4844542D01*
G01X7463790Y4835144D01*
G01X7460742Y4826000D01*
G01X7454392Y4822952D01*
G01X7420356Y4902454D02*
G01X7423404Y4896358D01*
G01X7429754Y4890262D01*
G01X7438898Y4887214D01*
G01X7445248Y4887214D01*
G01X7454392Y4890262D01*
G01X7460742Y4896358D01*
G01X7463790Y4902454D01*
G01X7463790Y4911852D01*
G01X7460742Y4917948D01*
G01X7454392Y4924298D01*
G01X7445248Y4927346D01*
G01X7438898Y4927346D01*
G01X7429754Y4924298D01*
G01X7423404Y4917948D01*
G01X7420356Y4911852D01*
G01X7420356Y4902454D01*
G01X7420356Y4957572D02*
G01X7463790Y4957572D01*
G01X7438898Y4957572D02*
G01X7429754Y4960620D01*
G01X7423404Y4966716D01*
G01X7420356Y4972812D01*
G01X7420356Y4982210D01*
G01X7398766Y5018532D02*
G01X7398766Y5052568D01*
G01X7423404Y5034026D01*
G01X7423404Y5043170D01*
G01X7426452Y5049520D01*
G01X7429754Y5052568D01*
G01X7438898Y5055616D01*
G01X7445248Y5055616D01*
G01X7454392Y5052568D01*
G01X7460742Y5046472D01*
G01X7463790Y5037074D01*
G01X7463790Y5027676D01*
G01X7460742Y5018532D01*
G01X7457440Y5015484D01*
G01X7451344Y5012436D01*
G01X5169408Y2989834D02*
G01X5138420Y2946654D01*
G01X5184902Y2946654D01*
G01X5169408Y2989834D02*
G01X5169408Y2924810D01*
G01X3856990Y6467856D02*
G01X3863086Y6474206D01*
G01X3866134Y6483350D01*
G01X3866134Y6495796D01*
G01X3863086Y6505194D01*
G01X3856990Y6511290D01*
G01X3850640Y6511290D01*
G01X3844544Y6508242D01*
G01X3841496Y6505194D01*
G01X3838448Y6498844D01*
G01X3832098Y6480302D01*
G01X3829050Y6474206D01*
G01X3826002Y6471158D01*
G01X3819652Y6467856D01*
G01X3810508Y6467856D01*
G01X3804158Y6474206D01*
G01X3801110Y6483350D01*
G01X3801110Y6495796D01*
G01X3804158Y6505194D01*
G01X3810508Y6511290D01*
G01X3866134Y6437630D02*
G01X3801110Y6422390D01*
G01X3866134Y6406896D02*
G01X3801110Y6422390D01*
G01X3866134Y6406896D02*
G01X3801110Y6391402D01*
G01X3866134Y6375908D02*
G01X3801110Y6391402D01*
G01X3866134Y6345682D02*
G01X3801110Y6345682D01*
G01X3866134Y6345682D02*
G01X3866134Y6324092D01*
G01X3863086Y6314948D01*
G01X3856990Y6308598D01*
G01X3850640Y6305550D01*
G01X3841496Y6302502D01*
G01X3826002Y6302502D01*
G01X3816604Y6305550D01*
G01X3810508Y6308598D01*
G01X3804158Y6314948D01*
G01X3801110Y6324092D01*
G01X3801110Y6345682D01*
G01X3866134Y6272276D02*
G01X3801110Y6272276D01*
G01X3866134Y6223508D02*
G01X3863086Y6229858D01*
G01X3856990Y6235954D01*
G01X3850640Y6239002D01*
G01X3841496Y6242050D01*
G01X3826002Y6242050D01*
G01X3816604Y6239002D01*
G01X3810508Y6235954D01*
G01X3804158Y6229858D01*
G01X3801110Y6223508D01*
G01X3801110Y6211316D01*
G01X3804158Y6204966D01*
G01X3810508Y6198870D01*
G01X3816604Y6195822D01*
G01X3826002Y6192520D01*
G01X3841496Y6192520D01*
G01X3850640Y6195822D01*
G01X3856990Y6198870D01*
G01X3863086Y6204966D01*
G01X3866134Y6211316D01*
G01X3866134Y6223508D01*
G01X3590290Y6463538D02*
G01X3596386Y6469888D01*
G01X3599434Y6479032D01*
G01X3599434Y6491478D01*
G01X3596386Y6500876D01*
G01X3590290Y6506972D01*
G01X3583940Y6506972D01*
G01X3577844Y6503924D01*
G01X3574796Y6500876D01*
G01X3571748Y6494526D01*
G01X3565398Y6475984D01*
G01X3562350Y6469888D01*
G01X3559302Y6466840D01*
G01X3552952Y6463538D01*
G01X3543808Y6463538D01*
G01X3537458Y6469888D01*
G01X3534410Y6479032D01*
G01X3534410Y6491478D01*
G01X3537458Y6500876D01*
G01X3543808Y6506972D01*
G01X3599434Y6433312D02*
G01X3534410Y6418072D01*
G01X3599434Y6402578D02*
G01X3534410Y6418072D01*
G01X3599434Y6402578D02*
G01X3534410Y6387084D01*
G01X3599434Y6371590D02*
G01X3534410Y6387084D01*
G01X3583940Y6295136D02*
G01X3590290Y6298184D01*
G01X3596386Y6304280D01*
G01X3599434Y6310630D01*
G01X3599434Y6322822D01*
G01X3596386Y6329172D01*
G01X3590290Y6335268D01*
G01X3583940Y6338316D01*
G01X3574796Y6341364D01*
G01X3559302Y6341364D01*
G01X3549904Y6338316D01*
G01X3543808Y6335268D01*
G01X3537458Y6329172D01*
G01X3534410Y6322822D01*
G01X3534410Y6310630D01*
G01X3537458Y6304280D01*
G01X3543808Y6298184D01*
G01X3549904Y6295136D01*
G01X3599434Y6264910D02*
G01X3534410Y6264910D01*
G01X3534410Y6264910D02*
G01X3534410Y6227826D01*
G01X3599434Y6197600D02*
G01X3534410Y6197600D01*
G01X3599434Y6154420D02*
G01X3556254Y6197600D01*
G01X3571748Y6182360D02*
G01X3534410Y6154420D01*
G01X3342640Y6466332D02*
G01X3348990Y6469380D01*
G01X3355086Y6475730D01*
G01X3358134Y6481826D01*
G01X3358134Y6494272D01*
G01X3355086Y6500368D01*
G01X3348990Y6506718D01*
G01X3342640Y6509766D01*
G01X3333496Y6512814D01*
G01X3318002Y6512814D01*
G01X3308604Y6509766D01*
G01X3302508Y6506718D01*
G01X3296158Y6500368D01*
G01X3293110Y6494272D01*
G01X3293110Y6481826D01*
G01X3296158Y6475730D01*
G01X3302508Y6469380D01*
G01X3308604Y6466332D01*
G01X3318002Y6466332D01*
G01X3318002Y6481826D02*
G01X3318002Y6466332D01*
G01X3358134Y6436106D02*
G01X3293110Y6436106D01*
G01X3358134Y6436106D02*
G01X3293110Y6392926D01*
G01X3358134Y6392926D02*
G01X3293110Y6392926D01*
G01X3358134Y6362700D02*
G01X3293110Y6362700D01*
G01X3358134Y6362700D02*
G01X3358134Y6341110D01*
G01X3355086Y6331966D01*
G01X3348990Y6325616D01*
G01X3342640Y6322568D01*
G01X3333496Y6319520D01*
G01X3318002Y6319520D01*
G01X3308604Y6322568D01*
G01X3302508Y6325616D01*
G01X3296158Y6331966D01*
G01X3293110Y6341110D01*
G01X3293110Y6362700D01*
G01X2105660Y6033770D02*
G01X2105660Y6012688D01*
G01X2090420Y6024118D01*
G01X2090420Y6018530D01*
G01X2088388Y6014720D01*
G01X2086610Y6012688D01*
G01X2080768Y6010910D01*
G01X2076958Y6010910D01*
G01X2071370Y6012688D01*
G01X2067560Y6016498D01*
G01X2065528Y6022340D01*
G01X2065528Y6027928D01*
G01X2067560Y6033770D01*
G01X2069338Y6035548D01*
G01X2073148Y6037580D01*
G01X2105660Y5986526D02*
G01X2065528Y5971286D01*
G01X2105660Y5956046D02*
G01X2065528Y5971286D01*
G01X2105660Y5927852D02*
G01X2105660Y5906770D01*
G01X2090420Y5918200D01*
G01X2090420Y5912612D01*
G01X2088388Y5908802D01*
G01X2086610Y5906770D01*
G01X2080768Y5904992D01*
G01X2076958Y5904992D01*
G01X2071370Y5906770D01*
G01X2067560Y5910580D01*
G01X2065528Y5916422D01*
G01X2065528Y5922010D01*
G01X2067560Y5927852D01*
G01X2069338Y5929630D01*
G01X2073148Y5931662D01*
G01X2108708Y5411978D02*
G01X2112518Y5414010D01*
G01X2116328Y5417820D01*
G01X2118360Y5421630D01*
G01X2118360Y5429250D01*
G01X2116328Y5433060D01*
G01X2112518Y5436870D01*
G01X2108708Y5438648D01*
G01X2103120Y5440680D01*
G01X2093468Y5440680D01*
G01X2087880Y5438648D01*
G01X2084070Y5436870D01*
G01X2080260Y5433060D01*
G01X2078228Y5429250D01*
G01X2078228Y5421630D01*
G01X2080260Y5417820D01*
G01X2084070Y5414010D01*
G01X2087880Y5411978D01*
G01X2093468Y5411978D01*
G01X2093468Y5421630D02*
G01X2093468Y5411978D01*
G01X2118360Y5387594D02*
G01X2078228Y5387594D01*
G01X2118360Y5387594D02*
G01X2078228Y5360924D01*
G01X2118360Y5360924D02*
G01X2078228Y5360924D01*
G01X2118360Y5336540D02*
G01X2078228Y5336540D01*
G01X2118360Y5336540D02*
G01X2118360Y5323078D01*
G01X2116328Y5317490D01*
G01X2112518Y5313680D01*
G01X2108708Y5311648D01*
G01X2103120Y5309870D01*
G01X2093468Y5309870D01*
G01X2087880Y5311648D01*
G01X2084070Y5313680D01*
G01X2080260Y5317490D01*
G01X2078228Y5323078D01*
G01X2078228Y5336540D01*
G01X7246366Y5960110D02*
G01X7311390Y5960110D01*
G01X7246366Y5938520D02*
G01X7246366Y5981954D01*
G01X7246366Y6012180D02*
G01X7311390Y6012180D01*
G01X7246366Y6012180D02*
G01X7246366Y6052312D01*
G01X7277354Y6012180D02*
G01X7277354Y6036818D01*
G01X7311390Y6012180D02*
G01X7311390Y6052312D01*
G01X7246366Y6082538D02*
G01X7311390Y6082538D01*
G01X7246366Y6082538D02*
G01X7311390Y6125718D01*
G01X7246366Y6125718D02*
G01X7311390Y6125718D01*
G01X7261860Y6202172D02*
G01X7255510Y6199124D01*
G01X7249414Y6193028D01*
G01X7246366Y6186678D01*
G01X7246366Y6174486D01*
G01X7249414Y6168136D01*
G01X7255510Y6162040D01*
G01X7261860Y6158992D01*
G01X7271004Y6155944D01*
G01X7286498Y6155944D01*
G01X7295896Y6158992D01*
G01X7301992Y6162040D01*
G01X7308342Y6168136D01*
G01X7311390Y6174486D01*
G01X7311390Y6186678D01*
G01X7308342Y6193028D01*
G01X7301992Y6199124D01*
G01X7295896Y6202172D01*
G01X7286498Y6202172D01*
G01X7286498Y6186678D02*
G01X7286498Y6202172D01*
G01X7246366Y6433820D02*
G01X7311390Y6433820D01*
G01X7311390Y6433820D02*
G01X7311390Y6470904D01*
G01X7246366Y6501130D02*
G01X7311390Y6501130D01*
G01X7246366Y6501130D02*
G01X7246366Y6522720D01*
G01X7249414Y6531864D01*
G01X7255510Y6538214D01*
G01X7261860Y6541262D01*
G01X7271004Y6544310D01*
G01X7286498Y6544310D01*
G01X7295896Y6541262D01*
G01X7301992Y6538214D01*
G01X7308342Y6531864D01*
G01X7311390Y6522720D01*
G01X7311390Y6501130D01*
G01X7261860Y6620764D02*
G01X7255510Y6617716D01*
G01X7249414Y6611620D01*
G01X7246366Y6605270D01*
G01X7246366Y6593078D01*
G01X7249414Y6586728D01*
G01X7255510Y6580632D01*
G01X7261860Y6577584D01*
G01X7271004Y6574536D01*
G01X7286498Y6574536D01*
G01X7295896Y6577584D01*
G01X7301992Y6580632D01*
G01X7308342Y6586728D01*
G01X7311390Y6593078D01*
G01X7311390Y6605270D01*
G01X7308342Y6611620D01*
G01X7301992Y6617716D01*
G01X7295896Y6620764D01*
G01X7258812Y6650990D02*
G01X7255510Y6657086D01*
G01X7246366Y6666230D01*
G01X7311390Y6666230D01*
G01X7258812Y6696456D02*
G01X7255510Y6702552D01*
G01X7246366Y6711696D01*
G01X7311390Y6711696D01*
G01X7246366Y6760464D02*
G01X7249414Y6751066D01*
G01X7258812Y6744970D01*
G01X7274052Y6741922D01*
G01X7283450Y6741922D01*
G01X7298944Y6744970D01*
G01X7308342Y6751066D01*
G01X7311390Y6760464D01*
G01X7311390Y6766560D01*
G01X7308342Y6775958D01*
G01X7298944Y6782054D01*
G01X7283450Y6785102D01*
G01X7274052Y6785102D01*
G01X7258812Y6782054D01*
G01X7249414Y6775958D01*
G01X7246366Y6766560D01*
G01X7246366Y6760464D01*
G01X7258812Y6815328D02*
G01X7255510Y6821424D01*
G01X7246366Y6830568D01*
G01X7311390Y6830568D01*
G01X1728216Y4704334D02*
G01X1762252Y4704334D01*
G01X1743710Y4679696D01*
G01X1753108Y4679696D01*
G01X1759204Y4676648D01*
G01X1762252Y4673346D01*
G01X1765554Y4664202D01*
G01X1765554Y4657852D01*
G01X1762252Y4648708D01*
G01X1756156Y4642358D01*
G01X1747012Y4639310D01*
G01X1737614Y4639310D01*
G01X1728216Y4642358D01*
G01X1725168Y4645660D01*
G01X1722120Y4651756D01*
G01X1795780Y4704334D02*
G01X1820418Y4639310D01*
G01X1845310Y4704334D02*
G01X1820418Y4639310D01*
G01X1881632Y4704334D02*
G01X1915668Y4704334D01*
G01X1897126Y4679696D01*
G01X1906270Y4679696D01*
G01X1912620Y4676648D01*
G01X1915668Y4673346D01*
G01X1918716Y4664202D01*
G01X1918716Y4657852D01*
G01X1915668Y4648708D01*
G01X1909572Y4642358D01*
G01X1900174Y4639310D01*
G01X1890776Y4639310D01*
G01X1881632Y4642358D01*
G01X1878584Y4645660D01*
G01X1875536Y4651756D01*
G01X1731010Y4450334D02*
G01X1731010Y4385310D01*
G01X1709420Y4450334D02*
G01X1752854Y4450334D01*
G01X1783080Y4450334D02*
G01X1826260Y4385310D01*
G01X1826260Y4450334D02*
G01X1783080Y4385310D01*
G01X1856486Y4450334D02*
G01X1856486Y4385310D01*
G01X1856486Y4450334D02*
G01X1878076Y4450334D01*
G01X1887220Y4447286D01*
G01X1893570Y4441190D01*
G01X1896618Y4434840D01*
G01X1899666Y4425696D01*
G01X1899666Y4410202D01*
G01X1896618Y4400804D01*
G01X1893570Y4394708D01*
G01X1887220Y4388358D01*
G01X1878076Y4385310D01*
G01X1856486Y4385310D01*
G01X1709420Y4196334D02*
G01X1709420Y4131310D01*
G01X1709420Y4196334D02*
G01X1737360Y4196334D01*
G01X1746504Y4193286D01*
G01X1749552Y4190238D01*
G01X1752854Y4183888D01*
G01X1752854Y4177792D01*
G01X1749552Y4171696D01*
G01X1746504Y4168648D01*
G01X1737360Y4165346D01*
G01X1709420Y4165346D01*
G01X1731010Y4165346D02*
G01X1752854Y4131310D01*
G01X1783080Y4196334D02*
G01X1826260Y4131310D01*
G01X1826260Y4196334D02*
G01X1783080Y4131310D01*
G01X1856486Y4196334D02*
G01X1856486Y4131310D01*
G01X1856486Y4196334D02*
G01X1878076Y4196334D01*
G01X1887220Y4193286D01*
G01X1893570Y4187190D01*
G01X1896618Y4180840D01*
G01X1899666Y4171696D01*
G01X1899666Y4156202D01*
G01X1896618Y4146804D01*
G01X1893570Y4140708D01*
G01X1887220Y4134358D01*
G01X1878076Y4131310D01*
G01X1856486Y4131310D01*
G01X1755902Y3926840D02*
G01X1752854Y3933190D01*
G01X1746504Y3939286D01*
G01X1740408Y3942334D01*
G01X1727962Y3942334D01*
G01X1721866Y3939286D01*
G01X1715516Y3933190D01*
G01X1712468Y3926840D01*
G01X1709420Y3917696D01*
G01X1709420Y3902202D01*
G01X1712468Y3892804D01*
G01X1715516Y3886708D01*
G01X1721866Y3880358D01*
G01X1727962Y3877310D01*
G01X1740408Y3877310D01*
G01X1746504Y3880358D01*
G01X1752854Y3886708D01*
G01X1755902Y3892804D01*
G01X1755902Y3902202D01*
G01X1740408Y3902202D02*
G01X1755902Y3902202D01*
G01X1786128Y3942334D02*
G01X1786128Y3877310D01*
G01X1786128Y3942334D02*
G01X1829308Y3877310D01*
G01X1829308Y3942334D02*
G01X1829308Y3877310D01*
G01X1859534Y3942334D02*
G01X1859534Y3877310D01*
G01X1859534Y3942334D02*
G01X1881124Y3942334D01*
G01X1890268Y3939286D01*
G01X1896618Y3933190D01*
G01X1899666Y3926840D01*
G01X1902714Y3917696D01*
G01X1902714Y3902202D01*
G01X1899666Y3892804D01*
G01X1896618Y3886708D01*
G01X1890268Y3880358D01*
G01X1881124Y3877310D01*
G01X1859534Y3877310D01*
G01X4798568Y2974340D02*
G01X4798568Y2977388D01*
G01X4801616Y2983738D01*
G01X4804918Y2986786D01*
G01X4811014Y2989834D01*
G01X4823460Y2989834D01*
G01X4829556Y2986786D01*
G01X4832604Y2983738D01*
G01X4835652Y2977388D01*
G01X4835652Y2971292D01*
G01X4832604Y2965196D01*
G01X4826508Y2955798D01*
G01X4795520Y2924810D01*
G01X4838954Y2924810D01*
G01X4979416Y2989834D02*
G01X5013452Y2989834D01*
G01X4994910Y2965196D01*
G01X5004308Y2965196D01*
G01X5010404Y2962148D01*
G01X5013452Y2958846D01*
G01X5016754Y2949702D01*
G01X5016754Y2943352D01*
G01X5013452Y2934208D01*
G01X5007356Y2927858D01*
G01X4998212Y2924810D01*
G01X4988814Y2924810D01*
G01X4979416Y2927858D01*
G01X4976368Y2931160D01*
G01X4973320Y2937256D01*
G01X2380234Y4462780D02*
G01X2333752Y4462780D01*
G01X2324608Y4459732D01*
G01X2318258Y4453382D01*
G01X2315210Y4444238D01*
G01X2315210Y4437888D01*
G01X2318258Y4428744D01*
G01X2324608Y4422648D01*
G01X2333752Y4419346D01*
G01X2380234Y4419346D01*
G01X2380234Y4364482D02*
G01X2315210Y4389120D01*
G01X2380234Y4364482D02*
G01X2315210Y4339590D01*
G01X2337054Y4379976D02*
G01X2337054Y4348988D01*
G01X2380234Y4309364D02*
G01X2315210Y4309364D01*
G01X2380234Y4309364D02*
G01X2380234Y4281678D01*
G01X2377186Y4272280D01*
G01X2374138Y4269232D01*
G01X2367788Y4266184D01*
G01X2361692Y4266184D01*
G01X2355596Y4269232D01*
G01X2352548Y4272280D01*
G01X2349246Y4281678D01*
G01X2349246Y4309364D01*
G01X2349246Y4287774D02*
G01X2315210Y4266184D01*
G01X2380234Y4214368D02*
G01X2315210Y4214368D01*
G01X2380234Y4235958D02*
G01X2380234Y4192778D01*
G01X2364740Y4159504D02*
G01X2367788Y4159504D01*
G01X2374138Y4156456D01*
G01X2377186Y4153408D01*
G01X2380234Y4147312D01*
G01X2380234Y4134866D01*
G01X2377186Y4128516D01*
G01X2374138Y4125468D01*
G01X2367788Y4122420D01*
G01X2361692Y4122420D01*
G01X2355596Y4125468D01*
G01X2346198Y4131818D01*
G01X2315210Y4162552D01*
G01X2315210Y4119372D01*
G01X2278634Y5834380D02*
G01X2213610Y5834380D01*
G01X2278634Y5834380D02*
G01X2278634Y5806440D01*
G01X2275586Y5797296D01*
G01X2272538Y5794248D01*
G01X2266188Y5790946D01*
G01X2257044Y5790946D01*
G01X2250948Y5794248D01*
G01X2247646Y5797296D01*
G01X2244598Y5806440D01*
G01X2244598Y5834380D01*
G01X2278634Y5742178D02*
G01X2275586Y5748528D01*
G01X2269490Y5754624D01*
G01X2263140Y5757672D01*
G01X2253996Y5760720D01*
G01X2238502Y5760720D01*
G01X2229104Y5757672D01*
G01X2223008Y5754624D01*
G01X2216658Y5748528D01*
G01X2213610Y5742178D01*
G01X2213610Y5729986D01*
G01X2216658Y5723636D01*
G01X2223008Y5717540D01*
G01X2229104Y5714492D01*
G01X2238502Y5711190D01*
G01X2253996Y5711190D01*
G01X2263140Y5714492D01*
G01X2269490Y5717540D01*
G01X2275586Y5723636D01*
G01X2278634Y5729986D01*
G01X2278634Y5742178D01*
G01X2278634Y5680964D02*
G01X2213610Y5665724D01*
G01X2278634Y5650230D02*
G01X2213610Y5665724D01*
G01X2278634Y5650230D02*
G01X2213610Y5634736D01*
G01X2278634Y5619242D02*
G01X2213610Y5634736D01*
G01X2278634Y5589016D02*
G01X2213610Y5589016D01*
G01X2278634Y5589016D02*
G01X2278634Y5548884D01*
G01X2247646Y5589016D02*
G01X2247646Y5564378D01*
G01X2213610Y5589016D02*
G01X2213610Y5548884D01*
G01X2278634Y5518658D02*
G01X2213610Y5518658D01*
G01X2278634Y5518658D02*
G01X2278634Y5490972D01*
G01X2275586Y5481574D01*
G01X2272538Y5478526D01*
G01X2266188Y5475478D01*
G01X2260092Y5475478D01*
G01X2253996Y5478526D01*
G01X2250948Y5481574D01*
G01X2247646Y5490972D01*
G01X2247646Y5518658D01*
G01X2247646Y5497068D02*
G01X2213610Y5475478D01*
G01X2979420Y3586734D02*
G01X2979420Y3521710D01*
G01X2979420Y3586734D02*
G01X3007360Y3586734D01*
G01X3016504Y3583686D01*
G01X3019552Y3580638D01*
G01X3022854Y3574288D01*
G01X3022854Y3568192D01*
G01X3019552Y3562096D01*
G01X3016504Y3559048D01*
G01X3007360Y3555746D01*
G01X2979420Y3555746D01*
G01X3001010Y3555746D02*
G01X3022854Y3521710D01*
G01X3053080Y3586734D02*
G01X3053080Y3521710D01*
G01X3053080Y3586734D02*
G01X3093212Y3586734D01*
G01X3053080Y3555746D02*
G01X3077718Y3555746D01*
G01X3053080Y3521710D02*
G01X3093212Y3521710D01*
G01X3166618Y3577590D02*
G01X3160522Y3583686D01*
G01X3151124Y3586734D01*
G01X3138678Y3586734D01*
G01X3129534Y3583686D01*
G01X3123438Y3577590D01*
G01X3123438Y3571240D01*
G01X3126486Y3565144D01*
G01X3129534Y3562096D01*
G01X3135630Y3559048D01*
G01X3154172Y3552698D01*
G01X3160522Y3549650D01*
G01X3163570Y3546602D01*
G01X3166618Y3540252D01*
G01X3166618Y3531108D01*
G01X3160522Y3524758D01*
G01X3151124Y3521710D01*
G01X3138678Y3521710D01*
G01X3129534Y3524758D01*
G01X3123438Y3531108D01*
G01X3196844Y3586734D02*
G01X3196844Y3521710D01*
G01X3196844Y3586734D02*
G01X3236976Y3586734D01*
G01X3196844Y3555746D02*
G01X3221482Y3555746D01*
G01X3196844Y3521710D02*
G01X3236976Y3521710D01*
G01X3288792Y3586734D02*
G01X3288792Y3521710D01*
G01X3267202Y3586734D02*
G01X3310382Y3586734D01*
G01X2532634Y3053080D02*
G01X2486152Y3053080D01*
G01X2477008Y3050032D01*
G01X2470658Y3043682D01*
G01X2467610Y3034538D01*
G01X2467610Y3028188D01*
G01X2470658Y3019044D01*
G01X2477008Y3012948D01*
G01X2486152Y3009646D01*
G01X2532634Y3009646D01*
G01X2532634Y2954782D02*
G01X2467610Y2979420D01*
G01X2532634Y2954782D02*
G01X2467610Y2929890D01*
G01X2489454Y2970276D02*
G01X2489454Y2939288D01*
G01X2532634Y2899664D02*
G01X2467610Y2899664D01*
G01X2532634Y2899664D02*
G01X2532634Y2871978D01*
G01X2529586Y2862580D01*
G01X2526538Y2859532D01*
G01X2520188Y2856484D01*
G01X2514092Y2856484D01*
G01X2507996Y2859532D01*
G01X2504948Y2862580D01*
G01X2501646Y2871978D01*
G01X2501646Y2899664D01*
G01X2501646Y2878074D02*
G01X2467610Y2856484D01*
G01X2532634Y2804668D02*
G01X2467610Y2804668D01*
G01X2532634Y2826258D02*
G01X2532634Y2783078D01*
G01X2520188Y2752852D02*
G01X2523490Y2746756D01*
G01X2532634Y2737612D01*
G01X2467610Y2737612D01*
G04 Text End*

G04 PolygonModel Start*
G01X5864840Y2357679D02*
G01X5864840Y2261791D01*
G01X5996960Y2261791D01*
G01X5996960Y2357679D01*
G01X5864840Y2442921D02*
G01X5864840Y2538809D01*
G01X5996960Y2538809D01*
G01X5996960Y2442921D01*
G01X5864840Y3373679D02*
G01X5864840Y3277791D01*
G01X5996960Y3277791D01*
G01X5996960Y3373679D01*
G01X5864840Y3458921D02*
G01X5864840Y3554809D01*
G01X5996960Y3554809D01*
G01X5996960Y3458921D01*
G01X5996960Y4462221D02*
G01X5996960Y4558109D01*
G01X5864840Y4558109D01*
G01X5864840Y4462221D01*
G01X5996960Y4376979D02*
G01X5996960Y4281091D01*
G01X5864840Y4281091D01*
G01X5864840Y4376979D01*
G01X5864840Y5304079D02*
G01X5864840Y5208191D01*
G01X5996960Y5208191D01*
G01X5996960Y5304079D01*
G01X5864840Y5389321D02*
G01X5864840Y5485209D01*
G01X5996960Y5485209D01*
G01X5996960Y5389321D01*
G01X4295160Y5160721D02*
G01X4295160Y5256609D01*
G01X4163040Y5256609D01*
G01X4163040Y5160721D01*
G01X4295160Y5075479D02*
G01X4295160Y4979591D01*
G01X4163040Y4979591D01*
G01X4163040Y5075479D01*
G01X3462579Y6085860D02*
G01X3366691Y6085860D01*
G01X3366691Y5953740D01*
G01X3462579Y5953740D01*
G01X3547821Y6085860D02*
G01X3643709Y6085860D01*
G01X3643709Y5953740D01*
G01X3547821Y5953740D01*
G01X3780079Y6085860D02*
G01X3684191Y6085860D01*
G01X3684191Y5953740D01*
G01X3780079Y5953740D01*
G01X3865321Y6085860D02*
G01X3961209Y6085860D01*
G01X3961209Y5953740D01*
G01X3865321Y5953740D01*
G01X4937740Y4935779D02*
G01X4937740Y4839891D01*
G01X5069860Y4839891D01*
G01X5069860Y4935779D01*
G01X4937740Y5021021D02*
G01X4937740Y5116909D01*
G01X5069860Y5116909D01*
G01X5069860Y5021021D01*
G01X3221279Y4180860D02*
G01X3125391Y4180860D01*
G01X3125391Y4048740D01*
G01X3221279Y4048740D01*
G01X3306521Y4180860D02*
G01X3402409Y4180860D01*
G01X3402409Y4048740D01*
G01X3306521Y4048740D01*
G01X2386140Y6010420D02*
G01X2386140Y5869419D01*
G01X2566861Y5869419D02*
G01X2566861Y6010420D01*
G01X2551621Y6025660D02*
G01X2401380Y6025660D01*
G01X2386140Y5648180D02*
G01X2386140Y5789181D01*
G01X2566861Y5789181D02*
G01X2566861Y5648180D01*
G01X2551621Y5632940D02*
G01X2401380Y5632940D01*
G01X2566861Y6010420D02*
G03X2551621Y6025660I-15240J0D01*
G01X2401380Y6025660D02*
G03X2386140Y6010420I0J-15240D01*
G01X2566861Y5648180D02*
G02X2551621Y5632940I-15240J0D01*
G01X2401380Y5632940D02*
G02X2386140Y5648180I0J15240D01*
G01X4073380Y3491040D02*
G01X4214381Y3491040D01*
G01X4214381Y3671761D02*
G01X4073380Y3671761D01*
G01X4058140Y3656521D02*
G01X4058140Y3506280D01*
G01X4435620Y3491040D02*
G01X4294619Y3491040D01*
G01X4294619Y3671761D02*
G01X4435620Y3671761D01*
G01X4450860Y3656521D02*
G01X4450860Y3506280D01*
G01X4073380Y3671761D02*
G03X4058140Y3656521I0J-15240D01*
G01X4058140Y3506280D02*
G03X4073380Y3491040I15240J0D01*
G01X4435620Y3671761D02*
G02X4450860Y3656521I0J-15240D01*
G01X4450860Y3506280D02*
G02X4435620Y3491040I-15240J0D01*
G01X4867420Y3671761D02*
G01X4726419Y3671761D01*
G01X4726419Y3491040D02*
G01X4867420Y3491040D01*
G01X4882660Y3506280D02*
G01X4882660Y3656521D01*
G01X4505180Y3671761D02*
G01X4646181Y3671761D01*
G01X4646181Y3491040D02*
G01X4505180Y3491040D01*
G01X4489940Y3506280D02*
G01X4489940Y3656521D01*
G01X4867420Y3491040D02*
G03X4882660Y3506280I0J15240D01*
G01X4882660Y3656521D02*
G03X4867420Y3671761I-15240J0D01*
G01X4505180Y3491040D02*
G02X4489940Y3506280I0J15240D01*
G01X4489940Y3656521D02*
G02X4505180Y3671761I15240J0D01*
G54D11*
G01X4226481Y3307243D02*
G01X4146484Y3307243D01*
G01X4282526Y3307197D02*
G01X4362524Y3307197D01*
G01X4226481Y3449211D02*
G01X4146484Y3449211D01*
G01X4282526Y3449163D02*
G01X4362524Y3449163D01*
G01X4115509Y3338225D02*
G01X4115509Y3418230D01*
G01X4393502Y3418177D02*
G01X4393502Y3338175D01*
G01X4362519Y3449163D02*
G02X4393502Y3418177I0J-30983D01*
G01X4393502Y3338180D02*
G02X4362519Y3307197I-30983J0D01*
G01X4146489Y3307243D02*
G02X4115509Y3338225I3J30983D01*
G01X4115509Y3418223D02*
G02X4146489Y3449211I30983J5D01*
G01X2829481Y5123343D02*
G01X2749484Y5123343D01*
G01X2885526Y5123297D02*
G01X2965524Y5123297D01*
G01X2829481Y5265311D02*
G01X2749484Y5265311D01*
G01X2885526Y5265263D02*
G01X2965524Y5265263D01*
G01X2718509Y5154325D02*
G01X2718509Y5234330D01*
G01X2996502Y5234277D02*
G01X2996502Y5154275D01*
G01X2965519Y5265263D02*
G02X2996502Y5234277I0J-30983D01*
G01X2996502Y5154280D02*
G02X2965519Y5123297I-30983J0D01*
G01X2749489Y5123343D02*
G02X2718509Y5154325I3J30983D01*
G01X2718509Y5234323D02*
G02X2749489Y5265311I30983J5D01*
G01X2829481Y4704243D02*
G01X2749484Y4704243D01*
G01X2885526Y4704197D02*
G01X2965524Y4704197D01*
G01X2829481Y4846211D02*
G01X2749484Y4846211D01*
G01X2885526Y4846163D02*
G01X2965524Y4846163D01*
G01X2718509Y4735225D02*
G01X2718509Y4815230D01*
G01X2996502Y4815177D02*
G01X2996502Y4735175D01*
G01X2965519Y4846163D02*
G02X2996502Y4815177I0J-30983D01*
G01X2996502Y4735180D02*
G02X2965519Y4704197I-30983J0D01*
G01X2749489Y4704243D02*
G02X2718509Y4735225I3J30983D01*
G01X2718509Y4815223D02*
G02X2749489Y4846211I30983J5D01*
G01X6644719Y6928957D02*
G01X6724716Y6928957D01*
G01X6588674Y6929003D02*
G01X6508676Y6929003D01*
G01X6644719Y6786989D02*
G01X6724716Y6786989D01*
G01X6588674Y6787037D02*
G01X6508676Y6787037D01*
G01X6755691Y6897975D02*
G01X6755691Y6817970D01*
G01X6477699Y6818023D02*
G01X6477699Y6898025D01*
G01X6508681Y6787037D02*
G02X6477699Y6818023I0J30983D01*
G01X6477699Y6898020D02*
G02X6508681Y6929003I30983J0D01*
G01X6724711Y6928957D02*
G02X6755691Y6897975I-3J-30983D01*
G01X6755691Y6817977D02*
G02X6724711Y6786989I-30983J-5D01*
G01X6012343Y6822519D02*
G01X6012343Y6902516D01*
G01X6012297Y6766474D02*
G01X6012297Y6686476D01*
G01X6154311Y6822519D02*
G01X6154311Y6902516D01*
G01X6154263Y6766474D02*
G01X6154263Y6686476D01*
G01X6043325Y6933491D02*
G01X6123330Y6933491D01*
G01X6123277Y6655499D02*
G01X6043275Y6655499D01*
G01X6154263Y6686481D02*
G02X6123277Y6655499I-30983J0D01*
G01X6043280Y6655499D02*
G02X6012297Y6686481I0J30983D01*
G01X6012343Y6902511D02*
G02X6043325Y6933491I30983J-3D01*
G01X6123323Y6933491D02*
G02X6154311Y6902511I5J-30983D01*
G01X5100157Y3832781D02*
G01X5100157Y3752784D01*
G01X5100203Y3888826D02*
G01X5100203Y3968824D01*
G01X4958189Y3832781D02*
G01X4958189Y3752784D01*
G01X4958237Y3888826D02*
G01X4958237Y3968824D01*
G01X5069175Y3721809D02*
G01X4989170Y3721809D01*
G01X4989223Y3999802D02*
G01X5069225Y3999802D01*
G01X4958237Y3968819D02*
G02X4989223Y3999802I30983J0D01*
G01X5069220Y3999802D02*
G02X5100203Y3968819I0J-30983D01*
G01X5100157Y3752789D02*
G02X5069175Y3721809I-30983J3D01*
G01X4989177Y3721809D02*
G02X4958189Y3752789I-5J30983D01*
G01X4755043Y5006419D02*
G01X4755043Y5086416D01*
G01X4754997Y4950374D02*
G01X4754997Y4870376D01*
G01X4897011Y5006419D02*
G01X4897011Y5086416D01*
G01X4896963Y4950374D02*
G01X4896963Y4870376D01*
G01X4786025Y5117391D02*
G01X4866030Y5117391D01*
G01X4865977Y4839399D02*
G01X4785975Y4839399D01*
G01X4896963Y4870381D02*
G02X4865977Y4839399I-30983J0D01*
G01X4785980Y4839399D02*
G02X4754997Y4870381I0J30983D01*
G01X4755043Y5086411D02*
G02X4786025Y5117391I30983J-3D01*
G01X4866023Y5117391D02*
G02X4897011Y5086411I5J-30983D01*
G01X3858181Y4958243D02*
G01X3778184Y4958243D01*
G01X3914226Y4958197D02*
G01X3994224Y4958197D01*
G01X3858181Y5100211D02*
G01X3778184Y5100211D01*
G01X3914226Y5100163D02*
G01X3994224Y5100163D01*
G01X3747209Y4989225D02*
G01X3747209Y5069230D01*
G01X4025202Y5069177D02*
G01X4025202Y4989175D01*
G01X3994219Y5100163D02*
G02X4025202Y5069177I0J-30983D01*
G01X4025202Y4989180D02*
G02X3994219Y4958197I-30983J0D01*
G01X3778189Y4958243D02*
G02X3747209Y4989225I3J30983D01*
G01X3747209Y5069223D02*
G02X3778189Y5100211I30983J5D01*
G01X4714319Y3449157D02*
G01X4794316Y3449157D01*
G01X4658274Y3449203D02*
G01X4578276Y3449203D01*
G01X4714319Y3307189D02*
G01X4794316Y3307189D01*
G01X4658274Y3307237D02*
G01X4578276Y3307237D01*
G01X4825291Y3418175D02*
G01X4825291Y3338170D01*
G01X4547299Y3338223D02*
G01X4547299Y3418225D01*
G01X4578281Y3307237D02*
G02X4547299Y3338223I0J30983D01*
G01X4547299Y3418220D02*
G02X4578281Y3449203I30983J0D01*
G01X4794311Y3449157D02*
G02X4825291Y3418175I-3J-30983D01*
G01X4825291Y3338177D02*
G02X4794311Y3307189I-30983J-5D01*
G01X7233757Y2918381D02*
G01X7233757Y2838384D01*
G01X7233803Y2974426D02*
G01X7233803Y3054424D01*
G01X7091789Y2918381D02*
G01X7091789Y2838384D01*
G01X7091837Y2974426D02*
G01X7091837Y3054424D01*
G01X7202775Y2807409D02*
G01X7122770Y2807409D01*
G01X7122823Y3085402D02*
G01X7202825Y3085402D01*
G01X7091837Y3054419D02*
G02X7122823Y3085402I30983J0D01*
G01X7202820Y3085402D02*
G02X7233803Y3054419I0J-30983D01*
G01X7233757Y2838389D02*
G02X7202775Y2807409I-30983J3D01*
G01X7122777Y2807409D02*
G02X7091789Y2838389I-5J30983D01*
G01X7233757Y3235881D02*
G01X7233757Y3155884D01*
G01X7233803Y3291926D02*
G01X7233803Y3371924D01*
G01X7091789Y3235881D02*
G01X7091789Y3155884D01*
G01X7091837Y3291926D02*
G01X7091837Y3371924D01*
G01X7202775Y3124909D02*
G01X7122770Y3124909D01*
G01X7122823Y3402902D02*
G01X7202825Y3402902D01*
G01X7091837Y3371919D02*
G02X7122823Y3402902I30983J0D01*
G01X7202820Y3402902D02*
G02X7233803Y3371919I0J-30983D01*
G01X7233757Y3155889D02*
G02X7202775Y3124909I-30983J3D01*
G01X7122777Y3124909D02*
G02X7091789Y3155889I-5J30983D01*
G01X7091843Y4155519D02*
G01X7091843Y4235516D01*
G01X7091797Y4099474D02*
G01X7091797Y4019476D01*
G01X7233811Y4155519D02*
G01X7233811Y4235516D01*
G01X7233763Y4099474D02*
G01X7233763Y4019476D01*
G01X7122825Y4266491D02*
G01X7202830Y4266491D01*
G01X7202777Y3988499D02*
G01X7122775Y3988499D01*
G01X7233763Y4019481D02*
G02X7202777Y3988499I-30983J0D01*
G01X7122780Y3988499D02*
G02X7091797Y4019481I0J30983D01*
G01X7091843Y4235511D02*
G02X7122825Y4266491I30983J-3D01*
G01X7202823Y4266491D02*
G02X7233811Y4235511I5J-30983D01*
G01X7091843Y4473019D02*
G01X7091843Y4553016D01*
G01X7091797Y4416974D02*
G01X7091797Y4336976D01*
G01X7233811Y4473019D02*
G01X7233811Y4553016D01*
G01X7233763Y4416974D02*
G01X7233763Y4336976D01*
G01X7122825Y4583991D02*
G01X7202830Y4583991D01*
G01X7202777Y4305999D02*
G01X7122775Y4305999D01*
G01X7233763Y4336981D02*
G02X7202777Y4305999I-30983J0D01*
G01X7122780Y4305999D02*
G02X7091797Y4336981I0J30983D01*
G01X7091843Y4553011D02*
G02X7122825Y4583991I30983J-3D01*
G01X7202823Y4583991D02*
G02X7233811Y4553011I5J-30983D01*
G01X7132157Y6512481D02*
G01X7132157Y6432484D01*
G01X7132203Y6568526D02*
G01X7132203Y6648524D01*
G01X6990189Y6512481D02*
G01X6990189Y6432484D01*
G01X6990237Y6568526D02*
G01X6990237Y6648524D01*
G01X7101175Y6401509D02*
G01X7021170Y6401509D01*
G01X7021223Y6679502D02*
G01X7101225Y6679502D01*
G01X6990237Y6648519D02*
G02X7021223Y6679502I30983J0D01*
G01X7101220Y6679502D02*
G02X7132203Y6648519I0J-30983D01*
G01X7132157Y6432489D02*
G02X7101175Y6401509I-30983J3D01*
G01X7021177Y6401509D02*
G02X6990189Y6432489I-5J30983D01*
G54D10*
G01X6107654Y6269739D02*
G01X6107654Y6219739D01*
G01X6023176Y6284981D02*
G01X6092416Y6284981D01*
G01X6007936Y6219739D02*
G01X6007936Y6269739D01*
G01X6008149Y6125461D02*
G01X6008149Y6175461D01*
G01X6107862Y6175461D02*
G01X6107862Y6125461D01*
G01X6092627Y6110219D02*
G01X6023384Y6110219D01*
G01X6107864Y6125461D02*
G02X6092624Y6110221I-15240J0D01*
G01X6023384Y6110221D02*
G02X6008144Y6125461I0J15240D01*
G01X6007936Y6269739D02*
G02X6023176Y6284979I15240J0D01*
G01X6092416Y6284979D02*
G02X6107656Y6269739I0J-15240D01*
G01X4471446Y6760461D02*
G01X4471446Y6810461D01*
G01X4555924Y6745219D02*
G01X4486684Y6745219D01*
G01X4571164Y6810461D02*
G01X4571164Y6760461D01*
G01X4570951Y6904739D02*
G01X4570951Y6854739D01*
G01X4471238Y6854739D02*
G01X4471238Y6904739D01*
G01X4486473Y6919981D02*
G01X4555716Y6919981D01*
G01X4471236Y6904739D02*
G02X4486476Y6919979I15240J0D01*
G01X4555716Y6919979D02*
G02X4570956Y6904739I0J-15240D01*
G01X4571164Y6760461D02*
G02X4555924Y6745221I-15240J0D01*
G01X4486684Y6745221D02*
G02X4471444Y6760461I0J15240D01*
G01X4471446Y6481061D02*
G01X4471446Y6531061D01*
G01X4555924Y6465819D02*
G01X4486684Y6465819D01*
G01X4571164Y6531061D02*
G01X4571164Y6481061D01*
G01X4570951Y6625339D02*
G01X4570951Y6575339D01*
G01X4471238Y6575339D02*
G01X4471238Y6625339D01*
G01X4486473Y6640581D02*
G01X4555716Y6640581D01*
G01X4471236Y6625339D02*
G02X4486476Y6640579I15240J0D01*
G01X4555716Y6640579D02*
G02X4570956Y6625339I0J-15240D01*
G01X4571164Y6481061D02*
G02X4555924Y6465821I-15240J0D01*
G01X4486684Y6465821D02*
G02X4471444Y6481061I0J15240D01*
G01X6107654Y5964939D02*
G01X6107654Y5914939D01*
G01X6023176Y5980181D02*
G01X6092416Y5980181D01*
G01X6007936Y5914939D02*
G01X6007936Y5964939D01*
G01X6008149Y5820661D02*
G01X6008149Y5870661D01*
G01X6107862Y5870661D02*
G01X6107862Y5820661D01*
G01X6092627Y5805419D02*
G01X6023384Y5805419D01*
G01X6107864Y5820661D02*
G02X6092624Y5805421I-15240J0D01*
G01X6023384Y5805421D02*
G02X6008144Y5820661I0J15240D01*
G01X6007936Y5964939D02*
G02X6023176Y5980179I15240J0D01*
G01X6092416Y5980179D02*
G02X6107656Y5964939I0J-15240D01*
G54D11*
G01X7518405Y4530512D02*
G01X7518405Y4779899D01*
G01X7518405Y3779901D02*
G01X7518405Y4029283D01*
G01X7604590Y3779901D02*
G01X7518405Y3779901D01*
G01X8022704Y3779901D02*
G01X7950817Y3779901D01*
G01X7604590Y4779899D02*
G01X7518405Y4779899D01*
G01X8022704Y4779899D02*
G01X7950817Y4779899D01*
G01X8022704Y3779901D02*
G01X8022704Y4779899D01*
G01X7518405Y3349412D02*
G01X7518405Y3598799D01*
G01X7518405Y2598801D02*
G01X7518405Y2848183D01*
G01X7604590Y2598801D02*
G01X7518405Y2598801D01*
G01X8022704Y2598801D02*
G01X7950817Y2598801D01*
G01X7604590Y3598799D02*
G01X7518405Y3598799D01*
G01X8022704Y3598799D02*
G01X7950817Y3598799D01*
G01X8022704Y2598801D02*
G01X8022704Y3598799D01*
G01X7518405Y6676812D02*
G01X7518405Y6926199D01*
G01X7518405Y5926201D02*
G01X7518405Y6175583D01*
G01X7604590Y5926201D02*
G01X7518405Y5926201D01*
G01X8022704Y5926201D02*
G01X7950817Y5926201D01*
G01X7604590Y6926199D02*
G01X7518405Y6926199D01*
G01X8022704Y6926199D02*
G01X7950817Y6926199D01*
G01X8022704Y5926201D02*
G01X8022704Y6926199D01*
G54D12*
G01X2618080Y5842000D02*
G01X2995320Y5842000D01*
G54D10*
G01X2618080Y5669229D02*
G01X2618080Y6217971D01*
G01X2995320Y5669229D02*
G01X2995320Y6217971D01*
G01X2618080Y6217971D02*
G01X2676761Y6217971D01*
G01X2995320Y6217971D02*
G01X2936639Y6217971D01*
G36*
G01X2610460Y5676849D02*
G01X2681841Y5676849D01*
G01X2681841Y5631129D01*
G01X2610460Y5631129D01*
G01X2610460Y5676849D01*
G37*
G36*
G01X3002940Y5676849D02*
G01X2931559Y5676849D01*
G01X2931559Y5631129D01*
G01X3002940Y5631129D01*
G01X3002940Y5676849D01*
G37*
G54D13*
G01X2895765Y2939900D02*
G01X2904000Y2939900D01*
G01X2684000Y2939900D02*
G01X2692235Y2939900D01*
G01X2895765Y3079900D02*
G01X2904000Y3079900D01*
G01X2684000Y3079900D02*
G01X2692235Y3079900D01*
G01X2684000Y2939900D02*
G01X2684000Y3079900D01*
G01X2904000Y2939900D02*
G01X2904000Y3079900D01*
G54D11*
G01X3960048Y6565900D02*
G01X3200400Y6565900D01*
G01X3200400Y6819900D01*
G01X4216400Y6819900D01*
G01X4216400Y6565900D01*
G01X3960048Y6565900D01*
G01X3960048Y6565900D02*
G01X3960048Y6819900D01*
G01X2247900Y4544248D02*
G01X2247900Y3784600D01*
G01X1993900Y3784600D01*
G01X1993900Y4800600D01*
G01X2247900Y4800600D01*
G01X2247900Y4544248D01*
G01X2247900Y4544248D02*
G01X1993900Y4544248D01*
G54D14*
G01X4680552Y2739842D02*
G01X4680552Y2738846D01*
G01X4647547Y2705842D01*
G01X4612549Y2739842D02*
G01X4613547Y2739842D01*
G01X4647547Y2705842D01*
G01X4612549Y2739842D02*
G01X4680552Y2739842D01*
G01X4572541Y2741846D02*
G01X4572541Y2856847D01*
G01X4722553Y2741846D02*
G01X4722553Y2856847D01*
G01X4572551Y2856847D02*
G01X4720544Y2856847D01*
G01X4722785Y2703845D02*
G01X4722785Y2598834D01*
G01X4682777Y2568839D02*
G01X4692780Y2568839D01*
G01X4722785Y2598834D01*
G01X4612782Y2568839D02*
G01X4682777Y2568839D01*
G01X4612782Y2568839D02*
G01X4602767Y2568839D01*
G01X4572772Y2598834D01*
G01X4572772Y2703845D02*
G01X4572772Y2598834D01*
G01X4647547Y2739842D02*
G01X4647547Y2705842D01*
G01X4858352Y2739842D02*
G01X4858352Y2738846D01*
G01X4825347Y2705842D01*
G01X4790349Y2739842D02*
G01X4791347Y2739842D01*
G01X4825347Y2705842D01*
G01X4790349Y2739842D02*
G01X4858352Y2739842D01*
G01X4750341Y2741846D02*
G01X4750341Y2856847D01*
G01X4900353Y2741846D02*
G01X4900353Y2856847D01*
G01X4750351Y2856847D02*
G01X4898344Y2856847D01*
G01X4900585Y2703845D02*
G01X4900585Y2598834D01*
G01X4860577Y2568839D02*
G01X4870580Y2568839D01*
G01X4900585Y2598834D01*
G01X4790582Y2568839D02*
G01X4860577Y2568839D01*
G01X4790582Y2568839D02*
G01X4780567Y2568839D01*
G01X4750572Y2598834D01*
G01X4750572Y2703845D02*
G01X4750572Y2598834D01*
G01X4825347Y2739842D02*
G01X4825347Y2705842D01*
G01X5036152Y2739842D02*
G01X5036152Y2738846D01*
G01X5003147Y2705842D01*
G01X4968149Y2739842D02*
G01X4969147Y2739842D01*
G01X5003147Y2705842D01*
G01X4968149Y2739842D02*
G01X5036152Y2739842D01*
G01X4928141Y2741846D02*
G01X4928141Y2856847D01*
G01X5078153Y2741846D02*
G01X5078153Y2856847D01*
G01X4928151Y2856847D02*
G01X5076144Y2856847D01*
G01X5078385Y2703845D02*
G01X5078385Y2598834D01*
G01X5038377Y2568839D02*
G01X5048380Y2568839D01*
G01X5078385Y2598834D01*
G01X4968382Y2568839D02*
G01X5038377Y2568839D01*
G01X4968382Y2568839D02*
G01X4958367Y2568839D01*
G01X4928372Y2598834D01*
G01X4928372Y2703845D02*
G01X4928372Y2598834D01*
G01X5003147Y2739842D02*
G01X5003147Y2705842D01*
G01X5213952Y2739842D02*
G01X5213952Y2738846D01*
G01X5180947Y2705842D01*
G01X5145949Y2739842D02*
G01X5146947Y2739842D01*
G01X5180947Y2705842D01*
G01X5145949Y2739842D02*
G01X5213952Y2739842D01*
G01X5105941Y2741846D02*
G01X5105941Y2856847D01*
G01X5255953Y2741846D02*
G01X5255953Y2856847D01*
G01X5105951Y2856847D02*
G01X5253944Y2856847D01*
G01X5256185Y2703845D02*
G01X5256185Y2598834D01*
G01X5216177Y2568839D02*
G01X5226180Y2568839D01*
G01X5256185Y2598834D01*
G01X5146182Y2568839D02*
G01X5216177Y2568839D01*
G01X5146182Y2568839D02*
G01X5136167Y2568839D01*
G01X5106172Y2598834D01*
G01X5106172Y2703845D02*
G01X5106172Y2598834D01*
G01X5180947Y2739842D02*
G01X5180947Y2705842D01*
G54D10*
G01X4714260Y2430221D02*
G01X4714260Y2526109D01*
G01X4582140Y2526109D01*
G01X4582140Y2430221D01*
G01X4714260Y2344979D02*
G01X4714260Y2249091D01*
G01X4582140Y2249091D01*
G01X4582140Y2344979D01*
G01X4892060Y2430221D02*
G01X4892060Y2526109D01*
G01X4759940Y2526109D01*
G01X4759940Y2430221D01*
G01X4892060Y2344979D02*
G01X4892060Y2249091D01*
G01X4759940Y2249091D01*
G01X4759940Y2344979D01*
G01X5069860Y2430221D02*
G01X5069860Y2526109D01*
G01X4937740Y2526109D01*
G01X4937740Y2430221D01*
G01X5069860Y2344979D02*
G01X5069860Y2249091D01*
G01X4937740Y2249091D01*
G01X4937740Y2344979D01*
G01X5247660Y2430221D02*
G01X5247660Y2526109D01*
G01X5115540Y2526109D01*
G01X5115540Y2430221D01*
G01X5247660Y2344979D02*
G01X5247660Y2249091D01*
G01X5115540Y2249091D01*
G01X5115540Y2344979D01*
G01X2758460Y2646121D02*
G01X2758460Y2742009D01*
G01X2626340Y2742009D01*
G01X2626340Y2646121D01*
G01X2758460Y2560879D02*
G01X2758460Y2464991D01*
G01X2626340Y2464991D01*
G01X2626340Y2560879D01*
G54D11*
G01X1958518Y6035492D02*
G01X2003397Y6035492D01*
G01X2003397Y5765493D01*
G01X1612288Y5267495D02*
G01X1574394Y5267495D01*
G01X1574394Y6035492D01*
G01X1612288Y6035492D01*
G01X2010397Y5534492D02*
G01X2010397Y5267495D01*
G01X1958518Y5267495D01*
G54D15*
G01X5452110Y4938420D02*
G01X5452110Y4828413D01*
G01X5292090Y4828413D01*
G01X5292090Y4938420D01*
G01X5452110Y5018405D02*
G01X5452110Y5128412D01*
G01X5352110Y5128412D01*
G01X5292090Y5128412D01*
G01X5292090Y5018405D01*
G01X5101590Y5018380D02*
G01X5101590Y5128387D01*
G01X5261610Y5128387D01*
G01X5261610Y5018380D01*
G01X5101590Y4938395D02*
G01X5101590Y4828388D01*
G01X5201590Y4828388D01*
G01X5261610Y4828388D01*
G01X5261610Y4938395D01*
G54D10*
G01X5734091Y5950080D02*
G01X5734091Y5814088D01*
G01X5949909Y5814088D01*
G01X5949909Y5950080D01*
G01X5734091Y6140320D02*
G01X5734091Y6276312D01*
G01X5949909Y6276312D01*
G01X5949909Y6140320D01*
G01X4845009Y6788020D02*
G01X4845009Y6924012D01*
G01X4629191Y6924012D01*
G01X4629191Y6788020D01*
G01X4845009Y6597780D02*
G01X4845009Y6461788D01*
G01X4629191Y6461788D01*
G01X4629191Y6597780D01*
G01X5226180Y6038809D02*
G01X5090188Y6038809D01*
G01X5090188Y5822991D01*
G01X5226180Y5822991D01*
G01X5416420Y6038809D02*
G01X5552412Y6038809D01*
G01X5552412Y5822991D01*
G01X5416420Y5822991D01*
G01X5226180Y6318209D02*
G01X5090188Y6318209D01*
G01X5090188Y6102391D01*
G01X5226180Y6102391D01*
G01X5416420Y6318209D02*
G01X5552412Y6318209D01*
G01X5552412Y6102391D01*
G01X5416420Y6102391D01*
G01X5814040Y6434379D02*
G01X5814040Y6338491D01*
G01X5946160Y6338491D01*
G01X5946160Y6434379D01*
G01X5814040Y6519621D02*
G01X5814040Y6615509D01*
G01X5946160Y6615509D01*
G01X5946160Y6519621D01*
G01X5814040Y6751879D02*
G01X5814040Y6655991D01*
G01X5946160Y6655991D01*
G01X5946160Y6751879D01*
G01X5814040Y6837121D02*
G01X5814040Y6933009D01*
G01X5946160Y6933009D01*
G01X5946160Y6837121D01*
G01X5039340Y5570779D02*
G01X5039340Y5474891D01*
G01X5171460Y5474891D01*
G01X5171460Y5570779D01*
G01X5039340Y5656021D02*
G01X5039340Y5751909D01*
G01X5171460Y5751909D01*
G01X5171460Y5656021D01*
G01X4625980Y6022609D02*
G01X4497487Y6022609D01*
G01X4497487Y5839191D01*
G01X4625980Y5839191D01*
G01X4721220Y6022609D02*
G01X4849713Y6022609D01*
G01X4849713Y5839191D01*
G01X4721220Y5839191D01*
G01X4638680Y6314709D02*
G01X4510187Y6314709D01*
G01X4510187Y6131291D01*
G01X4638680Y6131291D01*
G01X4733920Y6314709D02*
G01X4862413Y6314709D01*
G01X4862413Y6131291D01*
G01X4733920Y6131291D01*
G54D11*
G01X2814198Y4002700D02*
G01X3434192Y4002700D01*
G01X3434192Y3642695D02*
G01X2814198Y3642695D01*
G01X2819395Y3695697D02*
G01X2870195Y3644897D01*
G01X2819395Y3949697D02*
G01X2870195Y4000497D01*
G01X3378195Y4000497D02*
G01X3428995Y3949697D01*
G01X3378195Y3644897D02*
G01X3428995Y3695697D01*
G01X3434192Y4002700D02*
G01X3434192Y3920813D01*
G01X3434192Y3724585D02*
G01X3434192Y3642695D01*
G01X2814198Y4002700D02*
G01X2814198Y3920813D01*
G01X2814198Y3724585D02*
G01X2814198Y3642695D01*
G54D12*
G01X3259503Y4343598D02*
G01X3293697Y4343601D01*
G01X3259503Y4241602D02*
G01X3293697Y4241599D01*
G54D15*
G01X4690110Y4671060D02*
G01X4690110Y4051300D01*
G01X4024630Y4051300D01*
G01X4024630Y4714240D01*
G01X4690110Y4714240D01*
G01X4690110Y4714240D02*
G01X4690110Y4638040D01*
G54D17*
G01X3950101Y4720499D02*
G03X3910102Y4720372I-20000J-127D01*
G03X3950101Y4720245I20000J0D01*
G54D10*
G01X5476339Y4601820D02*
G01X5579720Y4601820D01*
G01X5579720Y4498439D01*
G01X5476339Y4186580D02*
G01X5579720Y4186580D01*
G01X5579720Y4289961D01*
G01X5267861Y4186580D02*
G01X5164480Y4186580D01*
G01X5164480Y4289961D01*
G01X5267861Y4601820D02*
G01X5164480Y4601820D01*
G01X5164480Y4498439D01*
G54D14*
G01X6629461Y6563116D02*
G01X6629636Y6563116D01*
G01X6479548Y6278204D02*
G01X6479548Y6263117D01*
G01X6564635Y6263117D02*
G01X6479548Y6263117D01*
G01X6629636Y6263117D02*
G01X6629461Y6263117D01*
G01X6779550Y6263117D02*
G01X6694462Y6263117D01*
G01X6694465Y6563116D02*
G01X6779547Y6563116D01*
G01X6479548Y6563116D02*
G01X6564635Y6563116D01*
G01X6479548Y6563116D02*
G01X6479548Y6548029D01*
G01X6779550Y6283698D02*
G01X6779550Y6263117D01*
G01X6779550Y6563116D02*
G01X6779550Y6542529D01*
G54D10*
G01X5422641Y6409881D02*
G01X5118359Y6409881D01*
G01X5118359Y6925120D01*
G01X5422641Y6925120D01*
G01X5422641Y6409881D01*
G01X6628740Y2042279D02*
G01X6274460Y2042279D01*
G01X6274460Y2707521D01*
G01X6628740Y2707521D01*
G01X6628740Y2042279D01*
G01X6628740Y3045579D02*
G01X6274460Y3045579D01*
G01X6274460Y3710821D01*
G01X6628740Y3710821D01*
G01X6628740Y3045579D01*
G01X6628740Y4048879D02*
G01X6274460Y4048879D01*
G01X6274460Y4714121D01*
G01X6628740Y4714121D01*
G01X6628740Y4048879D01*
G01X6628740Y4988679D02*
G01X6274460Y4988679D01*
G01X6274460Y5653921D01*
G01X6628740Y5653921D01*
G01X6628740Y4988679D01*
G54D11*
G01X5447094Y5518003D02*
G01X5398707Y5518003D01*
G01X5317086Y5658000D02*
G01X5307896Y5658000D01*
G01X5537899Y5658000D02*
G01X5528714Y5658000D01*
G01X5317094Y5518003D02*
G01X5307896Y5518003D01*
G01X5537899Y5518003D02*
G01X5528709Y5518003D01*
G01X5307896Y5518003D02*
G01X5307896Y5658000D01*
G01X5537899Y5518003D02*
G01X5537899Y5658000D01*
G01X1957934Y3342498D02*
G01X2144225Y3342498D01*
G01X1586095Y2448499D02*
G01X1586095Y3342498D01*
G01X1734226Y3342498D01*
G01X1957898Y2448499D02*
G01X2144260Y2448499D01*
G01X1586095Y2448499D02*
G01X1734261Y2448499D01*
G01X3310613Y3225800D02*
G01X3746500Y3225800D01*
G01X3594999Y2209800D02*
G01X3750600Y2209800D01*
G01X3467100Y2209800D02*
G01X3310613Y2209800D01*
G01X3310613Y2209800D02*
G01X3310613Y3225800D01*
G01X3750600Y2209800D02*
G01X3750600Y3225800D01*
G01X3594999Y2209800D02*
G03X3467100Y2209800I-63950J0D01*
G36*
G01X3657600Y2245601D02*
G02X3657600Y2351801I-367J53100D01*
G02X3657600Y2245601I367J-53100D01*
G37*
G01X2966557Y2575481D02*
G01X2966557Y2495484D01*
G01X2966603Y2631526D02*
G01X2966603Y2711524D01*
G01X2824589Y2575481D02*
G01X2824589Y2495484D01*
G01X2824637Y2631526D02*
G01X2824637Y2711524D01*
G01X2935575Y2464509D02*
G01X2855570Y2464509D01*
G01X2855623Y2742502D02*
G01X2935625Y2742502D01*
G01X2824637Y2711519D02*
G02X2855623Y2742502I30983J0D01*
G01X2935620Y2742502D02*
G02X2966603Y2711519I0J-30983D01*
G01X2966557Y2495489D02*
G02X2935575Y2464509I-30983J3D01*
G01X2855577Y2464509D02*
G02X2824589Y2495489I-5J30983D01*
G01X3333902Y5310886D02*
G01X3448914Y5310886D01*
G01X3448914Y4645914D01*
G01X3333902Y4645914D01*
G01X3193898Y4645914D02*
G01X3078912Y4645914D01*
G01X3078912Y5310886D01*
G01X3193898Y5310886D01*
G01X3193900Y5310901D02*
G01X3333900Y5310901D01*
G01X3333900Y4645901D02*
G01X3193900Y4645901D01*
G54D18*
G01X3264840Y5040142D02*
G01X3264840Y5070142D01*
G01X3164840Y5030140D02*
G01X3374850Y5030140D01*
G01X3174850Y4960135D02*
G01X3364840Y4960135D01*
G01X3364840Y5000137D01*
G01X3174850Y5000137D01*
G01X3174850Y4960135D01*
G01X3164840Y4930140D02*
G01X3374850Y4930140D01*
G01X3263900Y4884420D02*
G01X3263900Y4919980D01*

G04 Circle Start*
G54D11*
G01X7454925Y3975100D02*
G03X7480325Y3975100I12700J0D01*
G03X7454925Y3975100I-12700J0D01*
G01X7454925Y2794000D02*
G03X7480325Y2794000I12700J0D01*
G03X7454925Y2794000I-12700J0D01*
G01X7454925Y6121400D02*
G03X7480325Y6121400I12700J0D01*
G03X7454925Y6121400I-12700J0D01*
G01X2654300Y2908325D02*
G03X2679700Y2908325I12700J0D01*
G03X2654300Y2908325I-12700J0D01*
G01X2061718Y5793486D02*
G03X2087118Y5793486I12700J0D01*
G03X2061718Y5793486I-12700J0D01*
G01X3067406Y3822700D02*
G03X3180994Y3822700I56794J0D01*
G03X3067406Y3822700I-56794J0D01*
G01X3022600Y3822700D02*
G03X3225800Y3822700I101600J0D01*
G03X3022600Y3822700I-101600J0D01*
G01X3270606Y3822700D02*
G03X3384194Y3822700I56794J0D01*
G03X3270606Y3822700I-56794J0D01*
G01X2864206Y3822700D02*
G03X2977794Y3822700I56794J0D01*
G03X2864206Y3822700I-56794J0D01*
G01X4056050Y4643501D02*
G03X4090137Y4643501I17043J0D01*
G03X4056050Y4643501I-17043J0D01*
G54D19*
G01X5442128Y4648200D02*
G03X5454472Y4648200I6172J0D01*
G03X5442128Y4648200I-6172J0D01*
G54D14*
G01X6431407Y6565875D02*
G03X6446393Y6565875I7493J0D01*
G03X6431407Y6565875I-7493J0D01*
G54D20*
G01X5523763Y6400267D02*
G03X5553786Y6400267I15011J0D01*
G03X5523763Y6400267I-15011J0D01*
G01X5332425Y6477000D02*
G03X5362448Y6477000I15011J0D01*
G03X5332425Y6477000I-15011J0D01*
G01X6538493Y2082394D02*
G03X6568516Y2082394I15011J0D01*
G03X6538493Y2082394I-15011J0D01*
G01X6723685Y2018970D02*
G03X6753708Y2018970I15011J0D01*
G03X6723685Y2018970I-15011J0D01*
G01X6538493Y3085694D02*
G03X6568516Y3085694I15011J0D01*
G03X6538493Y3085694I-15011J0D01*
G01X6723685Y3022270D02*
G03X6753708Y3022270I15011J0D01*
G03X6723685Y3022270I-15011J0D01*
G01X6538493Y4088994D02*
G03X6568516Y4088994I15011J0D01*
G03X6538493Y4088994I-15011J0D01*
G01X6723685Y4025570D02*
G03X6753708Y4025570I15011J0D01*
G03X6723685Y4025570I-15011J0D01*
G01X6538493Y5028794D02*
G03X6568516Y5028794I15011J0D01*
G03X6538493Y5028794I-15011J0D01*
G01X6723685Y4965370D02*
G03X6753708Y4965370I15011J0D01*
G03X6723685Y4965370I-15011J0D01*
G54D11*
G01X5537225Y5702300D02*
G03X5562625Y5702300I12700J0D01*
G03X5537225Y5702300I-12700J0D01*
G04 Circle End*

M02*

