G04 Layer: TopSolderMaskLayer*
G04 EasyEDA Pro v2.2.47.7, 2026-04-29 11:09:57*
G04 Gerber Generator version 0.3*
G04 Scale: 100 percent, Rotated: No, Reflected: No*
G04 Dimensions in millimeters*
G04 Leading zeros omitted, absolute positions, 4 integers and 5 decimals*
G04 Generated by one-click*
G04 Object Configs: Pad,Via,Track,Text,Image,Dimension,BoardOutline,BoardCutout,CopperFilled,SolidRegion,FPCStiffener,Line,PlaneZone,ComponentProperty,ComponentSilkscreen,TearDrop*
G04 Layer Configs: 1,15,16,17,18,2,3,4,5,6,7,8,9,10,11,13,14,56*
G04 Copper Areas: 0*
%FSLAX45Y45*%
%MOMM*%
%AMRoundRect*1,1,$1,$2,$3*1,1,$1,$4,$5*1,1,$1,0-$2,0-$3*1,1,$1,0-$4,0-$5*20,1,$1,$2,$3,$4,$5,0*20,1,$1,$4,$5,0-$2,0-$3,0*20,1,$1,0-$2,0-$3,0-$4,0-$5,0*20,1,$1,0-$4,0-$5,$2,$3,0*4,1,4,$2,$3,$4,$5,0-$2,0-$3,0-$4,0-$5,$2,$3,0*%
%ADD10RoundRect,0.09138X-0.43711X-0.40835X-0.43711X0.40835*%
%ADD11RoundRect,0.09138X-0.40835X0.43711X0.40835X0.43711*%
%ADD12RoundRect,0.09495X-0.67833X-0.70833X-0.67833X0.70833*%
%ADD13RoundRect,0.09495X-0.70833X0.67833X0.70833X0.67833*%
%ADD14RoundRect,0.09131X-0.40514X0.45514X0.40514X0.45514*%
%ADD15RoundRect,0.09131X-0.45514X-0.40514X-0.45514X0.40514*%
%ADD16RoundRect,0.08692X-0.27734X-0.25734X-0.27734X0.25734*%
%ADD17RoundRect,0.0925X-0.80514X-0.40514X-0.80514X0.40514*%
%ADD18RoundRect,0.09131X-0.80514X-0.40514X-0.80514X0.40514*%
%ADD19RoundRect,0.09712X-1.50224X-1.05224X-1.50224X1.05224*%
%ADD20RoundRect,0.09701X-1.09849X-1.02604X-1.09849X1.02604*%
%ADD21RoundRect,0.08449X-0.20856X0.45856X0.20856X0.45856*%
%ADD22RoundRect,0.09618X-0.85271X0.85271X0.85271X0.85271*%
%ADD23C,1.8016*%
%ADD24RoundRect,0.09618X-0.85271X-0.85271X-0.85271X0.85271*%
%ADD25RoundRect,0.09131X-0.40514X0.40514X0.40514X0.40514*%
%ADD26RoundRect,0.09302X-0.55429X-0.50429X-0.55429X0.50429*%
%ADD27RoundRect,0.09428X-0.85416X-0.60742X-0.85416X0.60742*%
%ADD28RoundRect,0.09428X-0.60742X0.85416X0.60742X0.85416*%
%ADD29RoundRect,0.09387X-0.57013X0.69237X0.57013X0.69237*%
%ADD30RoundRect,0.09516X-0.70322X-0.75322X-0.70322X0.75322*%
%ADD31RoundRect,0.17276X-0.54023X0.49023X0.54023X0.49023*%
%ADD32O,1.60002X0.37003*%
%ADD33O,0.37003X1.60002*%
%ADD34RoundRect,0.09643X-1.30178X-1.30178X-1.30178X1.30178*%
%ADD35RoundRect,0.07917X-0.34292X-0.15042X-0.34292X0.15042*%
%ADD36RoundRect,0.07917X-0.15042X-0.34292X-0.15042X0.34292*%
%ADD37RoundRect,0.08109X-0.41026X0.16026X0.41026X0.16026*%
%ADD38O,1.9666X0.7316*%
%ADD39O,1.84361X0.46561*%
%ADD40RoundRect,0.08109X-0.66026X-0.16026X-0.66026X0.16026*%
%ADD41O,1.9016X1.3016*%
%ADD42O,2.1016X1.3016*%
%ADD43O,2.11709X0.46561*%
%ADD44RoundRect,0.09669X-1.20245X-0.95245X-1.20245X0.95245*%
G75*


G04 Pad Start*
G54D10*
G01X5930900Y2324964D03*
G01X5930900Y2475636D03*
G01X5930900Y3340964D03*
G01X5930900Y3491636D03*
G01X5930900Y4494936D03*
G01X5930900Y4344264D03*
G01X5930900Y5271364D03*
G01X5930900Y5422036D03*
G01X4229100Y5193436D03*
G01X4229100Y5042764D03*
G54D11*
G01X3429864Y6019800D03*
G01X3580536Y6019800D03*
G01X3747364Y6019800D03*
G01X3898036Y6019800D03*
G54D10*
G01X5003800Y4903064D03*
G01X5003800Y5053736D03*
G54D11*
G01X3188564Y4114800D03*
G01X3339236Y4114800D03*
G54D12*
G01X2476500Y5929300D03*
G01X2476500Y5729300D03*
G54D13*
G01X4154500Y3581400D03*
G01X4354500Y3581400D03*
G01X4786300Y3581400D03*
G01X4586300Y3581400D03*
G54D14*
G01X4324502Y3378200D03*
G01X4184498Y3378200D03*
G01X2927502Y5194300D03*
G01X2787498Y5194300D03*
G01X2927502Y4775200D03*
G01X2787498Y4775200D03*
G01X6546698Y6858000D03*
G01X6686702Y6858000D03*
G54D15*
G01X6083300Y6724498D03*
G01X6083300Y6864502D03*
G01X5029200Y3930802D03*
G01X5029200Y3790798D03*
G01X4826000Y4908398D03*
G01X4826000Y5048402D03*
G54D14*
G01X3956202Y5029200D03*
G01X3816198Y5029200D03*
G01X4616298Y3378200D03*
G01X4756302Y3378200D03*
G54D15*
G01X7162800Y3016402D03*
G01X7162800Y2876398D03*
G01X7162800Y3333902D03*
G01X7162800Y3193898D03*
G01X7162800Y4057498D03*
G01X7162800Y4197502D03*
G01X7162800Y4374998D03*
G01X7162800Y4515002D03*
G01X7061200Y6610502D03*
G01X7061200Y6470498D03*
G54D16*
G01X6057900Y6155588D03*
G01X6057900Y6239612D03*
G01X4521200Y6874612D03*
G01X4521200Y6790588D03*
G01X4521200Y6595212D03*
G01X4521200Y6511188D03*
G01X6057900Y5850788D03*
G01X6057900Y5934812D03*
G54D18*
G01X7487691Y4092397D03*
G01X7487691Y4217391D03*
G01X7487691Y4342384D03*
G01X7487691Y4467403D03*
G54D19*
G01X7777709Y4722393D03*
G01X7777709Y3837407D03*
G54D18*
G01X7487691Y2911297D03*
G01X7487691Y3036291D03*
G01X7487691Y3161284D03*
G01X7487691Y3286303D03*
G54D19*
G01X7777709Y3541293D03*
G01X7777709Y2656307D03*
G54D18*
G01X7487691Y6238697D03*
G01X7487691Y6363691D03*
G01X7487691Y6488684D03*
G01X7487691Y6613703D03*
G54D19*
G01X7777709Y6868693D03*
G01X7777709Y5983707D03*
G54D20*
G01X2806700Y6179668D03*
G01X2806700Y5707532D03*
G54D21*
G01X2794000Y2919908D03*
G01X2858999Y2919908D03*
G01X2858999Y3099892D03*
G01X2794000Y3099892D03*
G01X2729001Y3099892D03*
G01X2729001Y2919908D03*
G54D22*
G01X4089400Y6692900D03*
G54D23*
G01X3835400Y6692900D03*
G01X3581400Y6692900D03*
G01X3327400Y6692900D03*
G54D24*
G01X2120900Y4673600D03*
G54D23*
G01X2120900Y4419600D03*
G01X2120900Y4165600D03*
G01X2120900Y3911600D03*
G54D25*
G01X4648200Y2797734D03*
G01X4648200Y2637841D03*
G01X4826000Y2797734D03*
G01X4826000Y2637841D03*
G01X5003800Y2797734D03*
G01X5003800Y2637841D03*
G01X5181600Y2797734D03*
G01X5181600Y2637841D03*
G54D10*
G01X4648200Y2462936D03*
G01X4648200Y2312264D03*
G01X4826000Y2462936D03*
G01X4826000Y2312264D03*
G01X5003800Y2462936D03*
G01X5003800Y2312264D03*
G01X5181600Y2462936D03*
G01X5181600Y2312264D03*
G01X2692400Y2678836D03*
G01X2692400Y2528164D03*
G54D18*
G01X2075409Y5714009D03*
G01X2075409Y5589016D03*
G54D19*
G01X1785417Y5334000D03*
G01X1785417Y5969000D03*
G54D26*
G01X5372100Y5048402D03*
G01X5372100Y4908398D03*
G01X5181600Y4908398D03*
G01X5181600Y5048402D03*
G54D27*
G01X5842000Y5897321D03*
G01X5842000Y6193079D03*
G01X4737100Y6840779D03*
G01X4737100Y6545021D03*
G54D28*
G01X5173421Y5930900D03*
G01X5469179Y5930900D03*
G01X5173421Y6210300D03*
G01X5469179Y6210300D03*
G54D10*
G01X5880100Y6401664D03*
G01X5880100Y6552336D03*
G01X5880100Y6719164D03*
G01X5880100Y6869836D03*
G01X5105400Y5538064D03*
G01X5105400Y5688736D03*
G54D29*
G01X4573600Y5930900D03*
G01X4773600Y5930900D03*
G01X4586300Y6223000D03*
G01X4786300Y6223000D03*
G54D30*
G01X2744216Y3822700D03*
G01X3504184Y3822700D03*
G54D31*
G01X3364103Y4292600D03*
G01X3189097Y4292600D03*
G54D32*
G01X3931107Y4656506D03*
G01X3931107Y4606493D03*
G01X3931107Y4556506D03*
G01X3931107Y4506493D03*
G01X3931107Y4456506D03*
G01X3931107Y4406494D03*
G01X3931107Y4356506D03*
G01X3931107Y4306494D03*
G01X3931107Y4256507D03*
G01X3931107Y4206494D03*
G01X3931107Y4156507D03*
G01X3931107Y4106494D03*
G54D33*
G01X4081094Y3956507D03*
G01X4131107Y3956507D03*
G01X4181094Y3956507D03*
G01X4231107Y3956507D03*
G01X4281094Y3956507D03*
G01X4331106Y3956507D03*
G01X4381094Y3956507D03*
G01X4431106Y3956507D03*
G01X4481093Y3956507D03*
G01X4531106Y3956507D03*
G01X4581093Y3956507D03*
G01X4631106Y3956507D03*
G54D32*
G01X4781093Y4106494D03*
G01X4781093Y4156507D03*
G01X4781093Y4206494D03*
G01X4781093Y4256507D03*
G01X4781093Y4306494D03*
G01X4781093Y4356506D03*
G01X4781093Y4406494D03*
G01X4781093Y4456506D03*
G01X4781093Y4506493D03*
G01X4781093Y4556506D03*
G01X4781093Y4606493D03*
G01X4781093Y4656506D03*
G54D33*
G01X4631106Y4806493D03*
G01X4581093Y4806493D03*
G01X4531106Y4806493D03*
G01X4481093Y4806493D03*
G01X4431106Y4806493D03*
G01X4381094Y4806493D03*
G01X4331106Y4806493D03*
G01X4281094Y4806493D03*
G01X4231107Y4806493D03*
G01X4181094Y4806493D03*
G01X4131107Y4806493D03*
G01X4081094Y4806493D03*
G54D34*
G01X5372100Y4394200D03*
G54D35*
G01X5562854Y4469206D03*
G01X5562854Y4419194D03*
G01X5562854Y4369206D03*
G01X5562854Y4319194D03*
G54D36*
G01X5447106Y4203446D03*
G01X5397094Y4203446D03*
G01X5347106Y4203446D03*
G01X5297094Y4203446D03*
G54D35*
G01X5181346Y4319194D03*
G01X5181346Y4369206D03*
G01X5181346Y4419194D03*
G01X5181346Y4469206D03*
G54D36*
G01X5297094Y4584954D03*
G01X5347106Y4584954D03*
G01X5397094Y4584954D03*
G01X5447106Y4584954D03*
G54D37*
G01X6479413Y6513500D03*
G01X6479413Y6463487D03*
G01X6479413Y6413500D03*
G01X6479413Y6363487D03*
G01X6479413Y6313500D03*
G01X6779387Y6313500D03*
G01X6779387Y6363487D03*
G01X6779387Y6413500D03*
G36*
G01X6548468Y6502116D02*
G01X6548471Y6532598D01*
G02X6553551Y6537678I5080J-0D01*
G01X6584472Y6537678D01*
G01X6584472Y6584117D01*
G02X6589552Y6589197I5080J0D01*
G01X6619552Y6589197D01*
G02X6624632Y6584117I0J-5080D01*
G01X6624632Y6537678D01*
G01X6634472Y6537678D01*
G01X6634472Y6584117D01*
G02X6639552Y6589197I5080J0D01*
G01X6669552Y6589197D01*
G02X6674632Y6584117I0J-5080D01*
G01X6674632Y6537678D01*
G01X6705547Y6537678D01*
G02X6710627Y6532598I0J-5080D01*
G01X6710627Y6292599D01*
G02X6705547Y6287519I-5080J0D01*
G01X6674632Y6287519D01*
G01X6674632Y6242116D01*
G02X6669552Y6237036I-5080J0D01*
G01X6639552Y6237036D01*
G02X6634472Y6242116I0J5080D01*
G01X6634472Y6287519D01*
G01X6624632Y6287519D01*
G01X6624632Y6242116D01*
G02X6619552Y6237036I-5080J0D01*
G01X6589552Y6237036D01*
G02X6584472Y6242116I0J5080D01*
G01X6584472Y6287519D01*
G01X6553548Y6287519D01*
G02X6548468Y6292599I0J5080D01*
G01X6548468Y6502116D01*
G01X6548468Y6502116D01*
G37*
G01X6779387Y6513500D03*
G01X6779387Y6463487D03*
G54D38*
G01X5002276Y6858000D03*
G01X5002276Y6731000D03*
G01X5002276Y6604000D03*
G01X5002276Y6477000D03*
G01X5538775Y6858000D03*
G01X5538775Y6731000D03*
G01X5538775Y6604000D03*
G01X5538775Y6477000D03*
G54D39*
G01X6738696Y2082394D03*
G01X6738696Y2147392D03*
G01X6738696Y2212391D03*
G01X6738696Y2277389D03*
G01X6738696Y2342413D03*
G01X6738696Y2407412D03*
G01X6738696Y2472411D03*
G01X6738696Y2537409D03*
G01X6738696Y2602408D03*
G01X6738696Y2667406D03*
G01X6164504Y2082394D03*
G01X6164504Y2147392D03*
G01X6164504Y2212391D03*
G01X6164504Y2277389D03*
G01X6164504Y2342413D03*
G01X6164504Y2407412D03*
G01X6164504Y2472411D03*
G01X6164504Y2537409D03*
G01X6164504Y2602408D03*
G01X6164504Y2667406D03*
G01X6738696Y3085694D03*
G01X6738696Y3150692D03*
G01X6738696Y3215691D03*
G01X6738696Y3280689D03*
G01X6738696Y3345713D03*
G01X6738696Y3410712D03*
G01X6738696Y3475711D03*
G01X6738696Y3540709D03*
G01X6738696Y3605708D03*
G01X6738696Y3670706D03*
G01X6164504Y3085694D03*
G01X6164504Y3150692D03*
G01X6164504Y3215691D03*
G01X6164504Y3280689D03*
G01X6164504Y3345713D03*
G01X6164504Y3410712D03*
G01X6164504Y3475711D03*
G01X6164504Y3540709D03*
G01X6164504Y3605708D03*
G01X6164504Y3670706D03*
G01X6738696Y4088994D03*
G01X6738696Y4153992D03*
G01X6738696Y4218991D03*
G01X6738696Y4283989D03*
G01X6738696Y4349013D03*
G01X6738696Y4414012D03*
G01X6738696Y4479011D03*
G01X6738696Y4544009D03*
G01X6738696Y4609008D03*
G01X6738696Y4674006D03*
G01X6164504Y4088994D03*
G01X6164504Y4153992D03*
G01X6164504Y4218991D03*
G01X6164504Y4283989D03*
G01X6164504Y4349013D03*
G01X6164504Y4414012D03*
G01X6164504Y4479011D03*
G01X6164504Y4544009D03*
G01X6164504Y4609008D03*
G01X6164504Y4674006D03*
G01X6738696Y5028794D03*
G01X6738696Y5093792D03*
G01X6738696Y5158791D03*
G01X6738696Y5223789D03*
G01X6738696Y5288813D03*
G01X6738696Y5353812D03*
G01X6738696Y5418811D03*
G01X6738696Y5483809D03*
G01X6738696Y5548808D03*
G01X6738696Y5613806D03*
G01X6164504Y5028794D03*
G01X6164504Y5093792D03*
G01X6164504Y5158791D03*
G01X6164504Y5223789D03*
G01X6164504Y5288813D03*
G01X6164504Y5353812D03*
G01X6164504Y5418811D03*
G01X6164504Y5483809D03*
G01X6164504Y5548808D03*
G01X6164504Y5613806D03*
G54D21*
G01X5487899Y5477993D03*
G01X5357901Y5477993D03*
G01X5357901Y5698007D03*
G01X5422900Y5698007D03*
G01X5487899Y5698007D03*
G54D40*
G01X2342921Y3070606D03*
G01X2342921Y3020593D03*
G01X2342921Y2970606D03*
G01X2342921Y2920594D03*
G01X2342921Y2870606D03*
G01X2342921Y2820594D03*
G01X2342921Y2770632D03*
G01X2342921Y2720594D03*
G01X2342896Y3230601D03*
G01X2342921Y3200603D03*
G01X2342896Y3150591D03*
G01X2342921Y3120593D03*
G01X2342896Y2670607D03*
G01X2342921Y2640584D03*
G01X2342921Y2590597D03*
G01X2342921Y2560599D03*
G54D41*
G01X1848104Y2463089D03*
G54D42*
G01X2266086Y2463089D03*
G01X2266086Y3328111D03*
G54D41*
G01X1848104Y3328111D03*
G54D43*
G01X3876116Y2295296D03*
G01X3876116Y2360295D03*
G01X3876116Y2425294D03*
G01X3876116Y2490292D03*
G01X3876116Y2555291D03*
G01X3876116Y2620289D03*
G01X3876116Y2685313D03*
G01X3876116Y2750312D03*
G01X3876116Y2815311D03*
G01X3876116Y2880309D03*
G01X3876116Y2945308D03*
G01X3876116Y3010306D03*
G01X3876116Y3075305D03*
G01X3876116Y3140304D03*
G01X3185084Y2295296D03*
G01X3185084Y2360295D03*
G01X3185084Y2425294D03*
G01X3185084Y2490292D03*
G01X3185084Y2555291D03*
G01X3185084Y2620289D03*
G01X3185084Y2685313D03*
G01X3185084Y2750312D03*
G01X3185084Y2815311D03*
G01X3185084Y2880309D03*
G01X3185084Y2945308D03*
G01X3185084Y3010306D03*
G01X3185084Y3075305D03*
G01X3185084Y3140304D03*
G54D15*
G01X2895600Y2673502D03*
G01X2895600Y2533498D03*
G54D44*
G01X3263900Y5183403D03*
G01X3263900Y4773397D03*
G04 Pad End*

M02*

