G04 Layer: BottomLayer*
G04 EasyEDA Pro v2.2.47.7, 2026-04-29 11:09:57*
G04 Gerber Generator version 0.3*
G04 Scale: 100 percent, Rotated: No, Reflected: No*
G04 Dimensions in millimeters*
G04 Leading zeros omitted, absolute positions, 4 integers and 5 decimals*
G04 Generated by one-click*
G04 Object Configs: Pad,Via,Track,Text,Image,Dimension,BoardOutline,BoardCutout,CopperFilled,SolidRegion,FPCStiffener,Line,PlaneZone,ComponentProperty,ComponentSilkscreen,TearDrop*
G04 Layer Configs: 1,15,16,17,18,2,3,4,5,6,7,8,9,10,11,13,14,56*
G04 Copper Areas: 25*
%FSLAX45Y45*%
%MOMM*%
%ADD10C,0.2032*%
%ADD11C,0.90508*%
%ADD12C,0.60508*%
%ADD13C,1.00508*%
%ADD14C,0.85508*%
%ADD15R,1.7X1.7*%
%ADD16C,1.7*%
%ADD17O,1.8X1.2*%
%ADD18O,2.0X1.2*%
%ADD19C,0.6127*%
%ADD20C,0.61001*%
%ADD21C,0.254*%
G75*


G04 Copper Start*
G36*
G01X1575013Y7022887D02*
G01X8013487Y7022887D01*
G01X8013487Y1867113D01*
G01X1575013Y1867113D01*
G01X1575013Y2463089D01*
G01X1745150Y2463089D01*
G01X1746979Y2446855D01*
G01X1752375Y2431435D01*
G01X1761066Y2417603D01*
G01X1772618Y2406051D01*
G01X1786451Y2397360D01*
G01X1801870Y2391964D01*
G01X1818104Y2390135D01*
G01X1878104Y2390135D01*
G01X1894338Y2391964D01*
G01X1909757Y2397360D01*
G01X1923590Y2406051D01*
G01X1935142Y2417603D01*
G01X1943833Y2431435D01*
G01X1949229Y2446855D01*
G01X1951058Y2463089D01*
G01X1951058Y2463089D01*
G01X2153133Y2463089D01*
G01X2154962Y2446855D01*
G01X2160357Y2431435D01*
G01X2169049Y2417603D01*
G01X2180600Y2406051D01*
G01X2194433Y2397360D01*
G01X2209853Y2391964D01*
G01X2226086Y2390135D01*
G01X2306086Y2390135D01*
G01X2322320Y2391964D01*
G01X2337740Y2397360D01*
G01X2351572Y2406051D01*
G01X2363124Y2417603D01*
G01X2371815Y2431435D01*
G01X2377211Y2446855D01*
G01X2379040Y2463089D01*
G01X2377211Y2479323D01*
G01X2371815Y2494742D01*
G01X2363124Y2508575D01*
G01X2351572Y2520126D01*
G01X2337740Y2528818D01*
G01X2322320Y2534214D01*
G01X2306086Y2536043D01*
G01X2306086Y2536043D01*
G01X2226086Y2536043D01*
G01X2209853Y2534214D01*
G01X2194433Y2528818D01*
G01X2180600Y2520126D01*
G01X2169049Y2508575D01*
G01X2160357Y2494742D01*
G01X2154962Y2479323D01*
G01X2153133Y2463089D01*
G01X1951058Y2463089D01*
G01X1949229Y2479323D01*
G01X1943833Y2494742D01*
G01X1935142Y2508575D01*
G01X1923590Y2520126D01*
G01X1909757Y2528818D01*
G01X1894338Y2534214D01*
G01X1878104Y2536043D01*
G01X1878104Y2536043D01*
G01X1818104Y2536043D01*
G01X1801870Y2534214D01*
G01X1786451Y2528818D01*
G01X1772618Y2520126D01*
G01X1761066Y2508575D01*
G01X1752375Y2494742D01*
G01X1746979Y2479323D01*
G01X1745150Y2463089D01*
G01X1575013Y2463089D01*
G01X1575013Y2605608D01*
G01X2151766Y2605608D01*
G01X2153600Y2590504D01*
G01X2158995Y2576278D01*
G01X2167639Y2563756D01*
G01X2179027Y2553666D01*
G01X2192499Y2546596D01*
G01X2207272Y2542954D01*
G01X2222488Y2542954D01*
G01X2237261Y2546596D01*
G01X2250733Y2553666D01*
G01X2262121Y2563756D01*
G01X2270765Y2576278D01*
G01X2276160Y2590504D01*
G01X2277994Y2605608D01*
G01X2276160Y2620712D01*
G01X2270765Y2634939D01*
G01X2262121Y2647460D01*
G01X2250733Y2657550D01*
G01X2237261Y2664621D01*
G01X2222488Y2668262D01*
G01X2207272Y2668262D01*
G01X2192499Y2664621D01*
G01X2179027Y2657550D01*
G01X2167639Y2647460D01*
G01X2158995Y2634939D01*
G01X2153600Y2620712D01*
G01X2151766Y2605608D01*
G01X2151766Y2605608D01*
G01X1575013Y2605608D01*
G01X1575013Y2984929D01*
G01X2396674Y2984929D01*
G01X2399574Y2971167D01*
G01X2405806Y2958558D01*
G01X2414977Y2947895D01*
G01X2426512Y2939848D01*
G01X2439685Y2934922D01*
G01X2439685Y2827327D01*
G01X2439685Y2827327D01*
G01X2431221Y2817323D01*
G01X2425308Y2805628D01*
G01X2422269Y2792881D01*
G01X2422269Y2779777D01*
G01X2425308Y2767030D01*
G01X2431221Y2755335D01*
G01X2439685Y2745331D01*
G01X2439685Y2729408D01*
G01X2440991Y2719492D01*
G01X2444818Y2710251D01*
G01X2450907Y2702316D01*
G01X2463607Y2689616D01*
G01X2471542Y2683527D01*
G01X2480782Y2679700D01*
G01X2490699Y2678394D01*
G01X2706599Y2678394D01*
G01X2716515Y2679700D01*
G01X2725755Y2683527D01*
G01X2733690Y2689616D01*
G01X2907900Y2863826D01*
G01X2922685Y2865294D01*
G01X2936567Y2870590D01*
G01X2948572Y2879345D01*
G01X2957859Y2890942D01*
G01X2963776Y2904571D01*
G01X2965909Y2919275D01*
G01X2964108Y2934023D01*
G01X2958500Y2947782D01*
G01X2949477Y2959586D01*
G01X2937673Y2968609D01*
G01X2923914Y2974217D01*
G01X2909166Y2976018D01*
G01X2894462Y2973885D01*
G01X2880833Y2967968D01*
G01X2869235Y2958681D01*
G01X2860481Y2946676D01*
G01X2855185Y2932795D01*
G01X2853717Y2918010D01*
G01X2690729Y2755021D01*
G01X2524566Y2755021D01*
G01X2530580Y2766735D01*
G01X2533698Y2779527D01*
G01X2533750Y2792694D01*
G01X2530732Y2805510D01*
G01X2524811Y2817270D01*
G01X2516312Y2827327D01*
G01X2516312Y2964129D01*
G01X2514349Y2976237D01*
G01X2508660Y2987103D01*
G01X2507916Y2996108D01*
G01X2622088Y2996108D01*
G01X2624055Y2981381D01*
G01X2629818Y2967686D01*
G01X2638973Y2955984D01*
G01X2650878Y2947096D01*
G01X2664699Y2941643D01*
G01X2679467Y2940008D01*
G01X2694146Y2942307D01*
G01X2707707Y2948378D01*
G01X2719199Y2957794D01*
G01X2805201Y2957794D01*
G01X2815118Y2959100D01*
G01X2824358Y2962927D01*
G01X2832293Y2969016D01*
G01X2936308Y3073031D01*
G01X2937016Y3059686D01*
G01X2940859Y3046888D01*
G01X2947619Y3035361D01*
G01X2956914Y3025759D01*
G01X2968215Y3018628D01*
G01X2980882Y3014370D01*
G01X2994196Y3013229D01*
G01X3219206Y2788219D01*
G01X3227141Y2782130D01*
G01X3236382Y2778303D01*
G01X3246298Y2776997D01*
G01X3281500Y2776997D01*
G01X3290538Y2769188D01*
G01X3301024Y2763468D01*
G01X3312483Y2760098D01*
G01X3324396Y2759229D01*
G01X3413635Y2669990D01*
G01X3415102Y2655205D01*
G01X3420399Y2641324D01*
G01X3429153Y2629319D01*
G01X3440751Y2620032D01*
G01X3454379Y2614115D01*
G01X3469083Y2611982D01*
G01X3483832Y2613783D01*
G01X3497590Y2619391D01*
G01X3509395Y2628414D01*
G01X3518417Y2640218D01*
G01X3524026Y2653977D01*
G01X3525826Y2668725D01*
G01X3523693Y2683429D01*
G01X3517776Y2697058D01*
G01X3508490Y2708655D01*
G01X3496485Y2717410D01*
G01X3482603Y2722706D01*
G01X3467818Y2724174D01*
G01X3378579Y2813412D01*
G01X3377396Y2826929D01*
G01X3373002Y2839765D01*
G01X3365656Y2851173D01*
G01X3355787Y2860483D01*
G01X3343972Y2867153D01*
G01X3330901Y2870792D01*
G01X3317338Y2871187D01*
G01X3304078Y2868315D01*
G01X3291894Y2862344D01*
G01X3281500Y2853624D01*
G01X3262168Y2853624D01*
G01X3048379Y3067412D01*
G01X3047282Y3080515D01*
G01X3043165Y3093002D01*
G01X3036255Y3104189D01*
G01X3026932Y3113461D01*
G01X3015707Y3120308D01*
G01X3003197Y3124356D01*
G01X3003197Y3124356D01*
G01X3005464Y3138016D01*
G01X3004317Y3151816D01*
G01X2999826Y3164914D01*
G01X2992264Y3176514D01*
G01X2982091Y3185909D01*
G01X2969928Y3192527D01*
G01X2956514Y3195964D01*
G01X2942667Y3196012D01*
G01X2929230Y3192668D01*
G01X2917021Y3186135D01*
G01X2906783Y3176811D01*
G01X2899140Y3165264D01*
G01X2894558Y3152197D01*
G01X2893316Y3138405D01*
G01X2789331Y3034421D01*
G01X2719199Y3034421D01*
G01X2707707Y3043838D01*
G01X2694146Y3049909D01*
G01X2679467Y3052207D01*
G01X2664699Y3050573D01*
G01X2650878Y3045120D01*
G01X2638973Y3036231D01*
G01X2629818Y3024529D01*
G01X2624055Y3010835D01*
G01X2622088Y2996108D01*
G01X2507916Y2996108D01*
G01X2507502Y3001120D01*
G01X2502895Y3014408D01*
G01X2495129Y3026134D01*
G01X2484691Y3035560D01*
G01X2472237Y3042094D01*
G01X2458549Y3045327D01*
G01X2444487Y3045053D01*
G01X2430935Y3041292D01*
G01X2418744Y3034279D01*
G01X2408679Y3024455D01*
G01X2401374Y3012437D01*
G01X2397286Y2998980D01*
G01X2396674Y2984929D01*
G01X1575013Y2984929D01*
G01X1575013Y3185592D01*
G01X2151766Y3185592D01*
G01X2153600Y3170488D01*
G01X2158995Y3156261D01*
G01X2167639Y3143740D01*
G01X2179027Y3133650D01*
G01X2192499Y3126579D01*
G01X2207272Y3122938D01*
G01X2222488Y3122938D01*
G01X2237261Y3126579D01*
G01X2250733Y3133650D01*
G01X2262121Y3143740D01*
G01X2270765Y3156261D01*
G01X2276160Y3170488D01*
G01X2277994Y3185592D01*
G01X2276160Y3200696D01*
G01X2270765Y3214922D01*
G01X2262121Y3227444D01*
G01X2250733Y3237534D01*
G01X2237261Y3244604D01*
G01X2222488Y3248246D01*
G01X2207272Y3248246D01*
G01X2192499Y3244604D01*
G01X2179027Y3237534D01*
G01X2167639Y3227444D01*
G01X2158995Y3214922D01*
G01X2153600Y3200696D01*
G01X2151766Y3185592D01*
G01X2151766Y3185592D01*
G01X1575013Y3185592D01*
G01X1575013Y3328111D01*
G01X1745150Y3328111D01*
G01X1746979Y3311877D01*
G01X1752375Y3296458D01*
G01X1761066Y3282625D01*
G01X1772618Y3271074D01*
G01X1786451Y3262382D01*
G01X1801870Y3256986D01*
G01X1818104Y3255157D01*
G01X1878104Y3255157D01*
G01X1894338Y3256986D01*
G01X1909757Y3262382D01*
G01X1923590Y3271074D01*
G01X1935142Y3282625D01*
G01X1943833Y3296458D01*
G01X1949229Y3311877D01*
G01X1951058Y3328111D01*
G01X2153133Y3328111D01*
G01X2154962Y3311877D01*
G01X2160357Y3296458D01*
G01X2169049Y3282625D01*
G01X2180600Y3271074D01*
G01X2194433Y3262382D01*
G01X2209853Y3256986D01*
G01X2226086Y3255157D01*
G01X2306086Y3255157D01*
G01X2322320Y3256986D01*
G01X2337740Y3262382D01*
G01X2351572Y3271074D01*
G01X2363124Y3282625D01*
G01X2371815Y3296458D01*
G01X2377211Y3311877D01*
G01X2379040Y3328111D01*
G01X2377211Y3344345D01*
G01X2371815Y3359765D01*
G01X2363124Y3373597D01*
G01X2351572Y3385149D01*
G01X2337740Y3393840D01*
G01X2322320Y3399236D01*
G01X2306086Y3401065D01*
G01X2306086Y3401065D01*
G01X2226086Y3401065D01*
G01X2209853Y3399236D01*
G01X2194433Y3393840D01*
G01X2180600Y3385149D01*
G01X2169049Y3373597D01*
G01X2160357Y3359765D01*
G01X2154962Y3344345D01*
G01X2153133Y3328111D01*
G01X1951058Y3328111D01*
G01X1949229Y3344345D01*
G01X1943833Y3359765D01*
G01X1935142Y3373597D01*
G01X1923590Y3385149D01*
G01X1909757Y3393840D01*
G01X1894338Y3399236D01*
G01X1878104Y3401065D01*
G01X1878104Y3401065D01*
G01X1818104Y3401065D01*
G01X1801870Y3399236D01*
G01X1786451Y3393840D01*
G01X1772618Y3385149D01*
G01X1761066Y3373597D01*
G01X1752375Y3359765D01*
G01X1746979Y3344345D01*
G01X1745150Y3328111D01*
G01X1575013Y3328111D01*
G01X1575013Y4170240D01*
G01X2010384Y4170240D01*
G01X2011430Y4149738D01*
G01X2016247Y4129782D01*
G01X2024668Y4111060D01*
G01X2036404Y4094216D01*
G01X2051050Y4079831D01*
G01X2068102Y4068401D01*
G01X2086973Y4060318D01*
G01X2107013Y4055862D01*
G01X2127530Y4055186D01*
G01X2147820Y4058313D01*
G01X2167182Y4065135D01*
G01X2196887Y4035430D01*
G01X2196887Y3973414D01*
G01X2183910Y3986598D01*
G01X2168687Y3997106D01*
G01X2151759Y4004566D01*
G01X2133731Y4008710D01*
G01X2115245Y4009390D01*
G01X2096961Y4006584D01*
G01X2079531Y4000389D01*
G01X2063576Y3991028D01*
G01X2049665Y3978835D01*
G01X2038295Y3964243D01*
G01X2029871Y3947775D01*
G01X2024693Y3930016D01*
G01X2022946Y3911600D01*
G01X2024693Y3893184D01*
G01X2029871Y3875425D01*
G01X2038295Y3858957D01*
G01X2049665Y3844365D01*
G01X2063576Y3832172D01*
G01X2079531Y3822811D01*
G01X2096961Y3816616D01*
G01X2115245Y3813810D01*
G01X2133731Y3814490D01*
G01X2151759Y3818634D01*
G01X2168687Y3826094D01*
G01X2183910Y3836602D01*
G01X2196887Y3849786D01*
G01X2196887Y3775890D01*
G01X2187470Y3764398D01*
G01X2181399Y3750837D01*
G01X2179101Y3736158D01*
G01X2180735Y3721390D01*
G01X2186188Y3707569D01*
G01X2195077Y3695664D01*
G01X2206779Y3686509D01*
G01X2220473Y3680746D01*
G01X2235200Y3678779D01*
G01X2249927Y3680746D01*
G01X2263621Y3686509D01*
G01X2275323Y3695664D01*
G01X2284212Y3707569D01*
G01X2289665Y3721390D01*
G01X2291299Y3736158D01*
G01X2289001Y3750837D01*
G01X2282930Y3764398D01*
G01X2273513Y3775890D01*
G01X2273513Y3899779D01*
G01X3454400Y3899779D01*
G01X3464316Y3901084D01*
G01X3473557Y3904912D01*
G01X3481492Y3911001D01*
G01X3683193Y4112702D01*
G01X3683193Y2700099D01*
G01X3673776Y2688606D01*
G01X3667706Y2675045D01*
G01X3665407Y2660366D01*
G01X3667041Y2645599D01*
G01X3672494Y2631778D01*
G01X3681383Y2619872D01*
G01X3693085Y2610717D01*
G01X3706779Y2604954D01*
G01X3721506Y2602987D01*
G01X3736233Y2604954D01*
G01X3749928Y2610717D01*
G01X3761630Y2619872D01*
G01X3770519Y2631778D01*
G01X3775971Y2645599D01*
G01X3777606Y2660366D01*
G01X3775307Y2675045D01*
G01X3769237Y2688606D01*
G01X3759820Y2700099D01*
G01X3759820Y3894236D01*
G01X3769826Y3884269D01*
G01X3782005Y3877117D01*
G01X3795583Y3873232D01*
G01X3809702Y3872860D01*
G01X3823466Y3876026D01*
G01X3836004Y3882528D01*
G01X3846521Y3891954D01*
G01X3854351Y3903708D01*
G01X3858998Y3917045D01*
G01X3860168Y3931120D01*
G01X3865857Y3941987D01*
G01X3867821Y3954094D01*
G01X3867821Y4040096D01*
G01X3876719Y4050767D01*
G01X3882723Y4063296D01*
G01X3885465Y4076917D01*
G01X3884776Y4090794D01*
G01X3880699Y4104076D01*
G01X3873483Y4115949D01*
G01X3863571Y4125685D01*
G01X3868866Y4135882D01*
G01X3871973Y4146943D01*
G01X3872762Y4158405D01*
G01X3887204Y4172848D01*
G01X3887180Y4171493D01*
G01X3887180Y2307763D01*
G01X3878014Y2298597D01*
G01X3863229Y2297129D01*
G01X3849348Y2291833D01*
G01X3837343Y2283078D01*
G01X3828056Y2271481D01*
G01X3822139Y2257852D01*
G01X3820006Y2243148D01*
G01X3821807Y2228400D01*
G01X3827415Y2214641D01*
G01X3836438Y2202837D01*
G01X3848242Y2193814D01*
G01X3862001Y2188206D01*
G01X3876749Y2186405D01*
G01X3891453Y2188538D01*
G01X3905082Y2194455D01*
G01X3916679Y2203742D01*
G01X3925434Y2215747D01*
G01X3930730Y2229628D01*
G01X3932198Y2244413D01*
G01X3952585Y2264801D01*
G01X3958674Y2272736D01*
G01X3962502Y2281977D01*
G01X3963807Y2291893D01*
G01X3963807Y4155623D01*
G01X3985318Y4177134D01*
G01X3991332Y4164494D01*
G01X4000287Y4153736D01*
G01X4000287Y3813734D01*
G01X4001592Y3803818D01*
G01X4005420Y3794577D01*
G01X4011508Y3786642D01*
G01X4338118Y3460032D01*
G01X4339185Y3447084D01*
G01X4343201Y3434728D01*
G01X4349951Y3423627D01*
G01X4359072Y3414375D01*
G01X4370077Y3407470D01*
G01X4382375Y3403280D01*
G01X4395307Y3402031D01*
G01X4408180Y3403789D01*
G01X4420303Y3408461D01*
G01X4431027Y3415796D01*
G01X4439777Y3425400D01*
G01X4446083Y3436759D01*
G01X4458608Y3430548D01*
G01X4472279Y3427626D01*
G01X4486249Y3428174D01*
G01X4499649Y3432159D01*
G01X4511649Y3439332D01*
G01X4521502Y3449250D01*
G01X4528599Y3461295D01*
G01X4532497Y3474720D01*
G01X4865202Y3142016D01*
G01X4871907Y3136668D01*
G01X4881380Y3126328D01*
G01X4893121Y3118660D01*
G01X4906397Y3114142D01*
G01X4920379Y3113058D01*
G01X4934193Y3115474D01*
G01X4946976Y3121240D01*
G01X4957931Y3129995D01*
G01X4966372Y3141193D01*
G01X4971773Y3154135D01*
G01X4973797Y3168012D01*
G01X4972317Y3181957D01*
G01X4967425Y3195100D01*
G01X4959427Y3206619D01*
G01X4948822Y3215795D01*
G01X4936274Y3222056D01*
G01X4922565Y3225009D01*
G01X4908551Y3224471D01*
G01X4895109Y3220475D01*
G01X4341383Y3774202D01*
G01X4353328Y3777648D01*
G01X4364221Y3783641D01*
G01X4373527Y3791885D01*
G01X4380789Y3801975D01*
G01X4385651Y3813417D01*
G01X4387875Y3825649D01*
G01X4387350Y3838070D01*
G01X4384104Y3850071D01*
G01X4378294Y3861063D01*
G01X4370207Y3870505D01*
G01X4370207Y4362907D01*
G01X4368244Y4375015D01*
G01X4362555Y4385881D01*
G01X4361336Y4400186D01*
G01X4406433Y4355089D01*
G01X4406433Y4074617D01*
G01X4407738Y4064701D01*
G01X4411566Y4055461D01*
G01X4417654Y4047526D01*
G01X4568363Y3896817D01*
G01X4548244Y3876699D01*
G01X4534728Y3875515D01*
G01X4521891Y3871122D01*
G01X4510484Y3863776D01*
G01X4501173Y3853906D01*
G01X4494504Y3842091D01*
G01X4490865Y3829020D01*
G01X4490470Y3815458D01*
G01X4493342Y3802197D01*
G01X4499312Y3790014D01*
G01X4508033Y3779619D01*
G01X4508033Y3719017D01*
G01X4509996Y3706910D01*
G01X4515685Y3696043D01*
G01X4516842Y3682027D01*
G01X4521449Y3668738D01*
G01X4529216Y3657012D01*
G01X4539654Y3647586D01*
G01X4552108Y3641052D01*
G01X4565796Y3637820D01*
G01X4579858Y3638093D01*
G01X4593410Y3641854D01*
G01X4605601Y3648867D01*
G01X4615665Y3658691D01*
G01X4622971Y3670709D01*
G01X4627058Y3684167D01*
G01X4627671Y3698218D01*
G01X4624770Y3711980D01*
G01X4618539Y3724588D01*
G01X4609367Y3735251D01*
G01X4597833Y3743298D01*
G01X4584659Y3748225D01*
G01X4584659Y3779619D01*
G01X4592469Y3788657D01*
G01X4598188Y3799143D01*
G01X4601559Y3810603D01*
G01X4602428Y3822515D01*
G01X4638416Y3858504D01*
G01X4911748Y3858504D01*
G01X4920786Y3850694D01*
G01X4931272Y3844975D01*
G01X4942731Y3841604D01*
G01X4954644Y3840736D01*
G01X5889566Y2905814D01*
G01X5881190Y2893896D01*
G01X5876165Y2880223D01*
G01X5874827Y2865718D01*
G01X5877269Y2851357D01*
G01X5883325Y2838109D01*
G01X5892587Y2826865D01*
G01X5892587Y2461463D01*
G01X5893892Y2451547D01*
G01X5897720Y2442307D01*
G01X5903808Y2434372D01*
G01X5943068Y2395112D01*
G01X5944536Y2380327D01*
G01X5949832Y2366445D01*
G01X5958587Y2354440D01*
G01X5970184Y2345153D01*
G01X5983813Y2339236D01*
G01X5998517Y2337103D01*
G01X6013265Y2338904D01*
G01X6027024Y2344512D01*
G01X6038828Y2353535D01*
G01X6047851Y2365339D01*
G01X6053459Y2379098D01*
G01X6055260Y2393846D01*
G01X6053127Y2408550D01*
G01X6047210Y2422179D01*
G01X6037923Y2433777D01*
G01X6025918Y2442531D01*
G01X6012037Y2447827D01*
G01X5997252Y2449295D01*
G01X5969213Y2477333D01*
G01X5969213Y2826865D01*
G01X5977331Y2836353D01*
G01X5983150Y2847400D01*
G01X5986381Y2859461D01*
G01X5986866Y2871938D01*
G01X6012779Y2846024D01*
G01X6012779Y2750492D01*
G01X6003363Y2739000D01*
G01X5997292Y2725439D01*
G01X5994993Y2710760D01*
G01X5996628Y2695992D01*
G01X6002081Y2682171D01*
G01X6010969Y2670266D01*
G01X6022671Y2661111D01*
G01X6036366Y2655348D01*
G01X6051093Y2653381D01*
G01X6065820Y2655348D01*
G01X6079514Y2661111D01*
G01X6091216Y2670266D01*
G01X6100105Y2682171D01*
G01X6105558Y2695992D01*
G01X6107192Y2710760D01*
G01X6104894Y2725439D01*
G01X6098823Y2739000D01*
G01X6089406Y2750492D01*
G01X6089406Y2861894D01*
G01X6088101Y2871810D01*
G01X6084273Y2881051D01*
G01X6078184Y2888986D01*
G01X5987806Y2979364D01*
G01X5987806Y3332434D01*
G01X5997705Y3322341D01*
G01X6009812Y3315041D01*
G01X6023359Y3311000D01*
G01X6037486Y3310472D01*
G01X6051297Y3313492D01*
G01X6063915Y3319868D01*
G01X6074539Y3329195D01*
G01X6082494Y3340881D01*
G01X6087276Y3354185D01*
G01X6088582Y3368262D01*
G01X6126190Y3405871D01*
G01X6126190Y3075892D01*
G01X6117726Y3065887D01*
G01X6111813Y3054193D01*
G01X6108774Y3041446D01*
G01X6108774Y3028341D01*
G01X6111813Y3015594D01*
G01X6117726Y3003900D01*
G01X6126190Y2993896D01*
G01X6126190Y2072592D01*
G01X6116774Y2061099D01*
G01X6110703Y2047538D01*
G01X6108404Y2032859D01*
G01X6110039Y2018092D01*
G01X6115492Y2004271D01*
G01X6124380Y1992365D01*
G01X6136082Y1983210D01*
G01X6149777Y1977447D01*
G01X6164504Y1975480D01*
G01X6179231Y1977447D01*
G01X6192925Y1983210D01*
G01X6204627Y1992365D01*
G01X6213516Y2004271D01*
G01X6218969Y2018092D01*
G01X6220603Y2032859D01*
G01X6218305Y2047538D01*
G01X6212234Y2061099D01*
G01X6202817Y2072592D01*
G01X6202817Y2449375D01*
G01X6336994Y2449375D01*
G01X6339127Y2434671D01*
G01X6345044Y2421042D01*
G01X6354330Y2409445D01*
G01X6366335Y2400690D01*
G01X6380217Y2395394D01*
G01X6395002Y2393926D01*
G01X6489422Y2299506D01*
G01X6490418Y2286914D01*
G01X6494206Y2274864D01*
G01X6500592Y2263967D01*
G01X6509255Y2254774D01*
G01X6519754Y2247751D01*
G01X6531557Y2243255D01*
G01X6497247Y2208945D01*
G01X6497247Y2208945D01*
G01X6485280Y2217346D01*
G01X6471549Y2222370D01*
G01X6456986Y2223677D01*
G01X6442580Y2221177D01*
G01X6429309Y2215040D01*
G01X6418074Y2205682D01*
G01X6409638Y2193740D01*
G01X6404573Y2180024D01*
G01X6403224Y2165465D01*
G01X6405681Y2151052D01*
G01X6411779Y2137763D01*
G01X6421103Y2126500D01*
G01X6433021Y2118029D01*
G01X6446722Y2112924D01*
G01X6461277Y2111532D01*
G01X6475697Y2113947D01*
G01X6489004Y2120006D01*
G01X6500294Y2129297D01*
G01X6510096Y2129297D01*
G01X6520012Y2130603D01*
G01X6529253Y2134430D01*
G01X6537188Y2140519D01*
G01X6638788Y2242119D01*
G01X6644877Y2250054D01*
G01X6648704Y2259294D01*
G01X6650010Y2269211D01*
G01X6650010Y2329813D01*
G01X6659521Y2341458D01*
G01X6665598Y2355212D01*
G01X6667805Y2370085D01*
G01X6665984Y2385010D01*
G01X6660264Y2398916D01*
G01X6651057Y2410804D01*
G01X6639024Y2419820D01*
G01X6625029Y2425317D01*
G01X6610077Y2426901D01*
G01X6595240Y2424457D01*
G01X6581586Y2418161D01*
G01X6570093Y2408466D01*
G01X6561588Y2396067D01*
G01X6556680Y2381854D01*
G01X6555723Y2366848D01*
G01X6558784Y2352127D01*
G01X6551248Y2353427D01*
G01X6543606Y2353689D01*
G01X6449185Y2448110D01*
G01X6447718Y2462895D01*
G01X6442421Y2476776D01*
G01X6433667Y2488781D01*
G01X6422069Y2498068D01*
G01X6408441Y2503985D01*
G01X6393737Y2506118D01*
G01X6378988Y2504317D01*
G01X6365230Y2498709D01*
G01X6353425Y2489686D01*
G01X6344403Y2477882D01*
G01X6338794Y2464123D01*
G01X6336994Y2449375D01*
G01X6202817Y2449375D01*
G01X6202817Y2993896D01*
G01X6211281Y3003900D01*
G01X6217194Y3015594D01*
G01X6220234Y3028341D01*
G01X6220234Y3041446D01*
G01X6217194Y3054193D01*
G01X6211281Y3065887D01*
G01X6202817Y3075892D01*
G01X6202817Y3971796D01*
G01X6211977Y3982876D01*
G01X6218020Y3995920D01*
G01X6220551Y4010072D01*
G01X6219404Y4024402D01*
G01X6214652Y4037970D01*
G01X6206610Y4049886D01*
G01X6195803Y4059367D01*
G01X6182942Y4065791D01*
G01X6168871Y4068737D01*
G01X6154514Y4068011D01*
G01X6140812Y4063660D01*
G01X6128665Y4055971D01*
G01X6118870Y4045448D01*
G01X6112071Y4032781D01*
G01X6108713Y4018803D01*
G01X6109017Y4004430D01*
G01X6088582Y4024865D01*
G01X6087509Y4037842D01*
G01X6083475Y4050222D01*
G01X6076696Y4061339D01*
G01X6067538Y4070594D01*
G01X6575836Y4070594D01*
G01X6611825Y4034605D01*
G01X6612694Y4022693D01*
G01X6616064Y4011233D01*
G01X6621784Y4000747D01*
G01X6629593Y3991709D01*
G01X6629593Y3409806D01*
G01X6619323Y3419475D01*
G01X6606967Y3426278D01*
G01X6593304Y3429785D01*
G01X6579198Y3429774D01*
G01X6565541Y3426245D01*
G01X6553196Y3419422D01*
G01X6542942Y3409735D01*
G01X6535427Y3397798D01*
G01X6531127Y3384364D01*
G01X6530313Y3370282D01*
G01X6449185Y3451410D01*
G01X6447718Y3466195D01*
G01X6442421Y3480076D01*
G01X6433667Y3492081D01*
G01X6422069Y3501368D01*
G01X6408441Y3507285D01*
G01X6393737Y3509418D01*
G01X6378988Y3507617D01*
G01X6365230Y3502009D01*
G01X6353425Y3492986D01*
G01X6344403Y3481182D01*
G01X6338794Y3467423D01*
G01X6336994Y3452675D01*
G01X6339127Y3437971D01*
G01X6345044Y3424342D01*
G01X6354330Y3412745D01*
G01X6366335Y3403990D01*
G01X6380217Y3398694D01*
G01X6395002Y3397226D01*
G01X6489422Y3302806D01*
G01X6490418Y3290214D01*
G01X6494206Y3278164D01*
G01X6500592Y3267267D01*
G01X6509255Y3258074D01*
G01X6519754Y3251051D01*
G01X6531557Y3246555D01*
G01X6494226Y3209224D01*
G01X6398694Y3209224D01*
G01X6387202Y3218641D01*
G01X6373641Y3224711D01*
G01X6358962Y3227010D01*
G01X6344194Y3225376D01*
G01X6330373Y3219923D01*
G01X6318468Y3211034D01*
G01X6309313Y3199332D01*
G01X6303550Y3185638D01*
G01X6301583Y3170911D01*
G01X6303550Y3156184D01*
G01X6309313Y3142489D01*
G01X6318468Y3130787D01*
G01X6330373Y3121898D01*
G01X6344194Y3116446D01*
G01X6358962Y3114811D01*
G01X6373641Y3117110D01*
G01X6387202Y3123180D01*
G01X6398694Y3132597D01*
G01X6510096Y3132597D01*
G01X6520012Y3133903D01*
G01X6529253Y3137730D01*
G01X6537188Y3143819D01*
G01X6629593Y3236224D01*
G01X6629593Y3159577D01*
G01X6590015Y3119999D01*
G01X6583926Y3112064D01*
G01X6580099Y3102823D01*
G01X6578793Y3092907D01*
G01X6578793Y2864307D01*
G01X6580099Y2854391D01*
G01X6583926Y2845151D01*
G01X6590015Y2837216D01*
G01X6640815Y2786416D01*
G01X6648750Y2780327D01*
G01X6657990Y2776499D01*
G01X6667906Y2775194D01*
G01X6680393Y2775194D01*
G01X6680393Y2067105D01*
G01X6670976Y2055613D01*
G01X6664906Y2042052D01*
G01X6662607Y2027373D01*
G01X6664241Y2012605D01*
G01X6669694Y1998784D01*
G01X6678583Y1986879D01*
G01X6690285Y1977724D01*
G01X6703979Y1971961D01*
G01X6718706Y1969994D01*
G01X6733433Y1971961D01*
G01X6747128Y1977724D01*
G01X6758830Y1986879D01*
G01X6767719Y1998784D01*
G01X6773171Y2012605D01*
G01X6774806Y2027373D01*
G01X6772507Y2042052D01*
G01X6766437Y2055613D01*
G01X6757020Y2067105D01*
G01X6757020Y2235200D01*
G01X7119386Y2235200D01*
G01X7121298Y2220677D01*
G01X7126904Y2207143D01*
G01X7135822Y2195522D01*
G01X7147443Y2186604D01*
G01X7160977Y2180998D01*
G01X7175500Y2179086D01*
G01X7190023Y2180998D01*
G01X7203557Y2186604D01*
G01X7215178Y2195522D01*
G01X7224096Y2207143D01*
G01X7229702Y2220677D01*
G01X7231614Y2235200D01*
G01X7229702Y2249723D01*
G01X7224096Y2263257D01*
G01X7215178Y2274878D01*
G01X7203557Y2283796D01*
G01X7190023Y2289402D01*
G01X7175500Y2291314D01*
G01X7160977Y2289402D01*
G01X7147443Y2283796D01*
G01X7135822Y2274878D01*
G01X7126904Y2263257D01*
G01X7121298Y2249723D01*
G01X7119386Y2235200D01*
G01X7119386Y2235200D01*
G01X6757020Y2235200D01*
G01X6757020Y2797637D01*
G01X6796598Y2837216D01*
G01X6802687Y2845151D01*
G01X6806514Y2854391D01*
G01X6807820Y2864307D01*
G01X6807820Y2889707D01*
G01X6806514Y2899623D01*
G01X6802687Y2908864D01*
G01X6796598Y2916799D01*
G01X6777010Y2936387D01*
G01X6777010Y2995699D01*
G01X6785126Y3005185D01*
G01X6790945Y3016232D01*
G01X6794177Y3028291D01*
G01X6794662Y3040766D01*
G01X6792377Y3053041D01*
G01X6787435Y3064506D01*
G01X6780079Y3074594D01*
G01X6770676Y3082806D01*
G01X6759689Y3088736D01*
G01X6747663Y3092090D01*
G01X6765788Y3110215D01*
G01X6771877Y3118150D01*
G01X6775704Y3127390D01*
G01X6777010Y3137306D01*
G01X6777010Y3959908D01*
G01X6785474Y3969913D01*
G01X6791387Y3981607D01*
G01X6794426Y3994354D01*
G01X6794426Y4007459D01*
G01X6791387Y4020206D01*
G01X6785474Y4031900D01*
G01X6777010Y4041904D01*
G01X6777010Y4683808D01*
G01X6785474Y4693813D01*
G01X6791387Y4705507D01*
G01X6794426Y4718254D01*
G01X6794426Y4731359D01*
G01X6791387Y4744106D01*
G01X6785474Y4755800D01*
G01X6777010Y4765804D01*
G01X6777010Y5623608D01*
G01X6786426Y5635101D01*
G01X6792497Y5648662D01*
G01X6794796Y5663341D01*
G01X6793161Y5678108D01*
G01X6787708Y5691929D01*
G01X6778820Y5703835D01*
G01X6767118Y5712990D01*
G01X6753423Y5718753D01*
G01X6738696Y5720720D01*
G01X6723969Y5718753D01*
G01X6710275Y5712990D01*
G01X6698573Y5703835D01*
G01X6689684Y5691929D01*
G01X6684231Y5678108D01*
G01X6682597Y5663341D01*
G01X6684895Y5648662D01*
G01X6690966Y5635101D01*
G01X6700383Y5623608D01*
G01X6700383Y4765804D01*
G01X6691919Y4755800D01*
G01X6686006Y4744106D01*
G01X6682966Y4731359D01*
G01X6682966Y4718254D01*
G01X6686006Y4705507D01*
G01X6691919Y4693813D01*
G01X6700383Y4683808D01*
G01X6700383Y4078468D01*
G01X6689768Y4084387D01*
G01X6678128Y4087882D01*
G01X6666008Y4088789D01*
G01X6618798Y4135999D01*
G01X6610863Y4142088D01*
G01X6601623Y4145915D01*
G01X6591706Y4147221D01*
G01X6579220Y4147221D01*
G01X6579220Y4210507D01*
G01X6577914Y4220423D01*
G01X6574087Y4229664D01*
G01X6567998Y4237599D01*
G01X6546188Y4259409D01*
G01X6545430Y4270691D01*
G01X6542425Y4281592D01*
G01X6555034Y4281592D01*
G01X6565622Y4271003D01*
G01X6567090Y4256218D01*
G01X6572386Y4242337D01*
G01X6581141Y4230332D01*
G01X6592738Y4221045D01*
G01X6606367Y4215128D01*
G01X6621071Y4212995D01*
G01X6635819Y4214796D01*
G01X6649578Y4220404D01*
G01X6661382Y4229427D01*
G01X6670405Y4241231D01*
G01X6676013Y4254990D01*
G01X6677814Y4269738D01*
G01X6675681Y4284442D01*
G01X6669764Y4298070D01*
G01X6660477Y4309668D01*
G01X6648472Y4318422D01*
G01X6634591Y4323719D01*
G01X6619806Y4325187D01*
G01X6597995Y4346997D01*
G01X6590060Y4353085D01*
G01X6580820Y4356913D01*
G01X6570904Y4358218D01*
G01X6442559Y4358218D01*
G01X6452115Y4367509D01*
G01X6459210Y4378792D01*
G01X6463444Y4391429D01*
G01X6464578Y4404709D01*
G01X6475166Y4415297D01*
G01X6570698Y4415297D01*
G01X6582191Y4405880D01*
G01X6595752Y4399810D01*
G01X6610431Y4397511D01*
G01X6625198Y4399146D01*
G01X6639019Y4404598D01*
G01X6650925Y4413487D01*
G01X6660080Y4425189D01*
G01X6665843Y4438884D01*
G01X6667810Y4453611D01*
G01X6665843Y4468338D01*
G01X6660080Y4482032D01*
G01X6650925Y4493734D01*
G01X6639019Y4502623D01*
G01X6625198Y4508076D01*
G01X6610431Y4509710D01*
G01X6595752Y4507411D01*
G01X6582191Y4501341D01*
G01X6570698Y4491924D01*
G01X6459296Y4491924D01*
G01X6449380Y4490618D01*
G01X6440140Y4486791D01*
G01X6432205Y4480702D01*
G01X6410394Y4458892D01*
G01X6396334Y4457590D01*
G01X6383044Y4452820D01*
G01X6371365Y4444882D01*
G01X6362038Y4434281D01*
G01X6355653Y4421687D01*
G01X6352614Y4407897D01*
G01X6353113Y4393785D01*
G01X6357120Y4380245D01*
G01X6364380Y4368134D01*
G01X6374433Y4358218D01*
G01X6281974Y4358218D01*
G01X6253617Y4386575D01*
G01X6253617Y4415338D01*
G01X6289606Y4451326D01*
G01X6304391Y4452794D01*
G01X6318272Y4458090D01*
G01X6330277Y4466845D01*
G01X6339564Y4478442D01*
G01X6345481Y4492071D01*
G01X6347614Y4506775D01*
G01X6345813Y4521523D01*
G01X6340205Y4535282D01*
G01X6331182Y4547086D01*
G01X6319378Y4556109D01*
G01X6305619Y4561717D01*
G01X6290871Y4563518D01*
G01X6276167Y4561385D01*
G01X6262538Y4555468D01*
G01X6250941Y4546181D01*
G01X6242186Y4534176D01*
G01X6236890Y4520295D01*
G01X6235422Y4505510D01*
G01X6202817Y4472904D01*
G01X6202817Y4697296D01*
G01X6211281Y4707300D01*
G01X6217194Y4718995D01*
G01X6220234Y4731742D01*
G01X6220234Y4744846D01*
G01X6217194Y4757593D01*
G01X6211281Y4769288D01*
G01X6202817Y4779292D01*
G01X6202817Y4874824D01*
G01X6289606Y4961612D01*
G01X6304391Y4963080D01*
G01X6318272Y4968376D01*
G01X6330277Y4977131D01*
G01X6339564Y4988728D01*
G01X6345481Y5002357D01*
G01X6347614Y5017061D01*
G01X6345813Y5031809D01*
G01X6340205Y5045568D01*
G01X6331182Y5057372D01*
G01X6319378Y5066395D01*
G01X6305619Y5072003D01*
G01X6290871Y5073804D01*
G01X6276167Y5071671D01*
G01X6262538Y5065754D01*
G01X6250941Y5056467D01*
G01X6242186Y5044462D01*
G01X6236890Y5030581D01*
G01X6235422Y5015796D01*
G01X6137412Y4917785D01*
G01X6131323Y4909850D01*
G01X6127496Y4900610D01*
G01X6126190Y4890694D01*
G01X6126190Y4779292D01*
G01X6117726Y4769288D01*
G01X6111813Y4757593D01*
G01X6108774Y4744846D01*
G01X6108774Y4731742D01*
G01X6111813Y4718995D01*
G01X6117726Y4707300D01*
G01X6126190Y4697296D01*
G01X6126190Y4398564D01*
G01X6039402Y4311775D01*
G01X6025116Y4310423D01*
G01X6011641Y4305492D01*
G01X5999856Y4297304D01*
G01X5990534Y4286395D01*
G01X5984283Y4273479D01*
G01X5981513Y4259399D01*
G01X5982404Y4245077D01*
G01X5986898Y4231450D01*
G01X5994701Y4219407D01*
G01X5760989Y4219407D01*
G01X6023795Y4482213D01*
G01X6037311Y4483396D01*
G01X6050148Y4487790D01*
G01X6061555Y4495136D01*
G01X6070865Y4505005D01*
G01X6077535Y4516820D01*
G01X6081174Y4529891D01*
G01X6081569Y4543454D01*
G01X6078697Y4556714D01*
G01X6072727Y4568898D01*
G01X6064006Y4579292D01*
G01X6064006Y5346651D01*
G01X6301728Y5346651D01*
G01X6302523Y5332379D01*
G01X6306899Y5318771D01*
G01X6314570Y5306710D01*
G01X6325040Y5296978D01*
G01X6337629Y5290208D01*
G01X6351520Y5286838D01*
G01X6365812Y5287087D01*
G01X6379577Y5290939D01*
G01X6391923Y5298144D01*
G01X6402047Y5308234D01*
G01X6413255Y5298604D01*
G01X6426588Y5292233D01*
G01X6441123Y5289563D01*
G01X6455850Y5290780D01*
G01X6469748Y5295800D01*
G01X6481854Y5304274D01*
G01X6540222Y5245906D01*
G01X6541690Y5231121D01*
G01X6546986Y5217239D01*
G01X6555741Y5205234D01*
G01X6567338Y5195948D01*
G01X6580967Y5190031D01*
G01X6595671Y5187898D01*
G01X6610419Y5189698D01*
G01X6624178Y5195307D01*
G01X6635982Y5204329D01*
G01X6635982Y5204329D01*
G01X6645005Y5216134D01*
G01X6650613Y5229892D01*
G01X6652414Y5244641D01*
G01X6650281Y5259345D01*
G01X6644364Y5272973D01*
G01X6635077Y5284571D01*
G01X6623072Y5293325D01*
G01X6609191Y5298622D01*
G01X6594406Y5300089D01*
G01X6521795Y5372699D01*
G01X6516517Y5377106D01*
G01X6510535Y5380497D01*
G01X6531689Y5380497D01*
G01X6536615Y5367324D01*
G01X6544662Y5355789D01*
G01X6555325Y5346618D01*
G01X6567934Y5340386D01*
G01X6581696Y5337486D01*
G01X6595747Y5338098D01*
G01X6609204Y5342186D01*
G01X6621222Y5349491D01*
G01X6631046Y5359556D01*
G01X6638059Y5371747D01*
G01X6641820Y5385299D01*
G01X6642094Y5399361D01*
G01X6638861Y5413049D01*
G01X6632327Y5425503D01*
G01X6622901Y5435941D01*
G01X6611175Y5443707D01*
G01X6597887Y5448314D01*
G01X6583870Y5449472D01*
G01X6573004Y5455161D01*
G01X6560896Y5457124D01*
G01X6433896Y5457124D01*
G01X6423980Y5455818D01*
G01X6414740Y5451991D01*
G01X6406805Y5445902D01*
G01X6359594Y5398692D01*
G01X6345363Y5397352D01*
G01X6331932Y5392460D01*
G01X6320173Y5384333D01*
G01X6310849Y5373499D01*
G01X6304565Y5360661D01*
G01X6301728Y5346651D01*
G01X6064006Y5346651D01*
G01X6064006Y5513024D01*
G01X6159507Y5608525D01*
G01X6174292Y5609993D01*
G01X6188173Y5615289D01*
G01X6200178Y5624043D01*
G01X6209465Y5635641D01*
G01X6215382Y5649270D01*
G01X6217515Y5663974D01*
G01X6215714Y5678722D01*
G01X6210106Y5692480D01*
G01X6201083Y5704285D01*
G01X6189279Y5713307D01*
G01X6175520Y5718916D01*
G01X6160772Y5720717D01*
G01X6146068Y5718584D01*
G01X6132440Y5712666D01*
G01X6120842Y5703380D01*
G01X6112088Y5691375D01*
G01X6106791Y5677493D01*
G01X6105323Y5662708D01*
G01X5998601Y5555986D01*
G01X5992512Y5548051D01*
G01X5988685Y5538810D01*
G01X5987379Y5528894D01*
G01X5987379Y4579292D01*
G01X5979570Y4570254D01*
G01X5973851Y4559768D01*
G01X5970480Y4548309D01*
G01X5969611Y4536396D01*
G01X5641878Y4208662D01*
G01X5629397Y4212491D01*
G01X5616369Y4213332D01*
G01X5603500Y4211140D01*
G01X5591485Y4206033D01*
G01X5580976Y4198289D01*
G01X5572540Y4188325D01*
G01X5566635Y4176682D01*
G01X5563580Y4163990D01*
G01X5493984Y4233586D01*
G01X5486049Y4239674D01*
G01X5476809Y4243502D01*
G01X5466893Y4244807D01*
G01X5152291Y4244807D01*
G01X5142040Y4253434D01*
G01X5130036Y4259385D01*
G01X5116964Y4262320D01*
G01X5103569Y4262074D01*
G01X5090614Y4258658D01*
G01X5090786Y4273650D01*
G01X5086982Y4288153D01*
G01X5079474Y4301131D01*
G01X5068798Y4311657D01*
G01X5055715Y4318980D01*
G01X5644693Y4318980D01*
G01X5654609Y4320286D01*
G01X5663849Y4324113D01*
G01X5671784Y4330202D01*
G01X5845995Y4504412D01*
G01X5860780Y4505880D01*
G01X5874661Y4511176D01*
G01X5886666Y4519931D01*
G01X5895953Y4531528D01*
G01X5901870Y4545157D01*
G01X5904003Y4559861D01*
G01X5902202Y4574609D01*
G01X5896594Y4588368D01*
G01X5887571Y4600172D01*
G01X5875767Y4609195D01*
G01X5862008Y4614803D01*
G01X5847260Y4616604D01*
G01X5832556Y4614471D01*
G01X5818927Y4608554D01*
G01X5807330Y4599267D01*
G01X5798575Y4587262D01*
G01X5793279Y4573381D01*
G01X5791811Y4558596D01*
G01X5628823Y4395607D01*
G01X5061823Y4395607D01*
G01X5067325Y4405948D01*
G01X5070560Y4417206D01*
G01X5071388Y4428890D01*
G01X5285176Y4642678D01*
G01X5406108Y4642678D01*
G01X5417601Y4633261D01*
G01X5431162Y4627191D01*
G01X5445841Y4624892D01*
G01X5460608Y4626526D01*
G01X5474429Y4631979D01*
G01X5486335Y4640868D01*
G01X5495490Y4652570D01*
G01X5501253Y4666264D01*
G01X5503220Y4680991D01*
G01X5501253Y4695718D01*
G01X5495490Y4709413D01*
G01X5486335Y4721115D01*
G01X5474429Y4730004D01*
G01X5460608Y4735456D01*
G01X5445841Y4737091D01*
G01X5431162Y4734792D01*
G01X5417601Y4728722D01*
G01X5406108Y4719305D01*
G01X5269306Y4719305D01*
G01X5259390Y4717999D01*
G01X5250150Y4714172D01*
G01X5242215Y4708083D01*
G01X5017204Y4483073D01*
G01X5003727Y4481897D01*
G01X4990923Y4477531D01*
G01X4979537Y4470227D01*
G01X4970229Y4460409D01*
G01X4963541Y4448650D01*
G01X4959862Y4435632D01*
G01X4959405Y4422111D01*
G01X4962198Y4408874D01*
G01X4950653Y4402206D01*
G01X4941007Y4393002D01*
G01X4933804Y4381782D01*
G01X4929452Y4369179D01*
G01X4928196Y4355906D01*
G01X4930107Y4342711D01*
G01X4935077Y4330339D01*
G01X4942826Y4319489D01*
G01X4952915Y4310773D01*
G01X4964776Y4304684D01*
G01X4977739Y4301564D01*
G01X4991071Y4301591D01*
G01X4983876Y4289720D01*
G01X4979815Y4276445D01*
G01X4979138Y4262580D01*
G01X4981884Y4248972D01*
G01X4987887Y4236456D01*
G01X4996779Y4225796D01*
G01X4996779Y4206464D01*
G01X4981546Y4191230D01*
G01X4977868Y4204249D01*
G01X4971180Y4216009D01*
G01X4961872Y4225827D01*
G01X4950485Y4233132D01*
G01X4937681Y4237499D01*
G01X4924203Y4238674D01*
G01X4913615Y4249263D01*
G01X4913615Y4446123D01*
G01X5359593Y4892101D01*
G01X5365682Y4900036D01*
G01X5369509Y4909276D01*
G01X5370815Y4919193D01*
G01X5370815Y5106795D01*
G01X5379848Y5117675D01*
G01X5385874Y5130468D01*
G01X5388510Y5144361D01*
G01X5387590Y5158472D01*
G01X5383171Y5171904D01*
G01X5375534Y5183806D01*
G01X5365164Y5193420D01*
G01X5352720Y5200137D01*
G01X6418798Y6266216D01*
G01X6424277Y6273131D01*
G01X6423446Y6258649D01*
G01X6426354Y6244437D01*
G01X6432809Y6231446D01*
G01X6442378Y6220544D01*
G01X6454422Y6212459D01*
G01X6468136Y6207731D01*
G01X6482604Y6206677D01*
G01X6496858Y6209367D01*
G01X6509947Y6215621D01*
G01X6520995Y6225021D01*
G01X6529264Y6236940D01*
G01X6534202Y6250580D01*
G01X6535478Y6265029D01*
G01X6533008Y6279324D01*
G01X6526956Y6292507D01*
G01X6517726Y6303698D01*
G01X6517726Y6531000D01*
G01X6516421Y6540917D01*
G01X6512593Y6550157D01*
G01X6506505Y6558092D01*
G01X6444605Y6619992D01*
G01X6436670Y6626081D01*
G01X6427429Y6629908D01*
G01X6417513Y6631214D01*
G01X5757113Y6631214D01*
G01X5747197Y6629908D01*
G01X5737957Y6626081D01*
G01X5730022Y6619992D01*
G01X4158016Y5047986D01*
G01X4151927Y5040051D01*
G01X4148099Y5030810D01*
G01X4146794Y5020894D01*
G01X4146794Y4782764D01*
G01X3704405Y4340376D01*
G01X3690579Y4339126D01*
G01X3677484Y4334519D01*
G01X3665919Y4326839D01*
G01X3656594Y4316555D01*
G01X3650079Y4304296D01*
G01X3646773Y4290813D01*
G01X3646879Y4276931D01*
G01X3650389Y4263499D01*
G01X3657089Y4251341D01*
G01X3666569Y4241199D01*
G01X3678248Y4233695D01*
G01X3691413Y4229288D01*
G01X3438530Y3976406D01*
G01X3382991Y3976406D01*
G01X3391342Y3988324D01*
G01X3396347Y4001989D01*
G01X3397670Y4016481D01*
G01X3395221Y4030826D01*
G01X3389166Y4044059D01*
G01X3379912Y4055290D01*
G01X3379912Y4074622D01*
G01X4000100Y4694811D01*
G01X4014885Y4696278D01*
G01X4028767Y4701575D01*
G01X4040772Y4710329D01*
G01X4050059Y4721927D01*
G01X4055976Y4735555D01*
G01X4058109Y4750259D01*
G01X4056308Y4765008D01*
G01X4050700Y4778766D01*
G01X4041677Y4790571D01*
G01X4029873Y4799593D01*
G01X4016114Y4805202D01*
G01X4001366Y4807002D01*
G01X3986662Y4804869D01*
G01X3973033Y4798952D01*
G01X3961435Y4789666D01*
G01X3952681Y4777661D01*
G01X3947385Y4763779D01*
G01X3945917Y4748994D01*
G01X3314507Y4117584D01*
G01X3308418Y4109649D01*
G01X3304591Y4100408D01*
G01X3303285Y4090492D01*
G01X3303285Y4055290D01*
G01X3303285Y4055290D01*
G01X3294031Y4044059D01*
G01X3287976Y4030826D01*
G01X3285528Y4016481D01*
G01X3286850Y4001989D01*
G01X3291855Y3988324D01*
G01X3300206Y3976406D01*
G01X2276470Y3976406D01*
G01X2273513Y3979362D01*
G01X2273513Y4051300D01*
G01X2272208Y4061216D01*
G01X2268380Y4070457D01*
G01X2262292Y4078392D01*
G01X2221365Y4119318D01*
G01X2228187Y4138680D01*
G01X2231314Y4158970D01*
G01X2230638Y4179487D01*
G01X2226182Y4199527D01*
G01X2218099Y4218398D01*
G01X2206669Y4235450D01*
G01X2192284Y4250096D01*
G01X2175440Y4261832D01*
G01X2156718Y4270253D01*
G01X2136762Y4275070D01*
G01X2116260Y4276116D01*
G01X2095918Y4273355D01*
G01X2076436Y4266883D01*
G01X2058485Y4256922D01*
G01X2042685Y4243815D01*
G01X2029578Y4228015D01*
G01X2019617Y4210064D01*
G01X2013145Y4190582D01*
G01X2010384Y4170240D01*
G01X1575013Y4170240D01*
G01X1575013Y4429806D01*
G01X2010759Y4429806D01*
G01X2010759Y4409394D01*
G01X2014509Y4389329D01*
G01X2021883Y4370295D01*
G01X2032629Y4352941D01*
G01X2046380Y4337856D01*
G01X2062670Y4325555D01*
G01X2080942Y4316456D01*
G01X2100575Y4310870D01*
G01X2120900Y4308987D01*
G01X2141225Y4310870D01*
G01X2160858Y4316456D01*
G01X2179130Y4325555D01*
G01X2195420Y4337856D01*
G01X2209171Y4352941D01*
G01X2219917Y4370295D01*
G01X2227291Y4389329D01*
G01X2231041Y4409394D01*
G01X2231041Y4429806D01*
G01X2227291Y4449871D01*
G01X2219917Y4468905D01*
G01X2209171Y4486259D01*
G01X2195420Y4501344D01*
G01X2179130Y4513645D01*
G01X2160858Y4522744D01*
G01X2141225Y4528330D01*
G01X2120900Y4530213D01*
G01X2120900Y4530213D01*
G01X2100575Y4528330D01*
G01X2080942Y4522744D01*
G01X2062670Y4513645D01*
G01X2046380Y4501344D01*
G01X2032629Y4486259D01*
G01X2021883Y4468905D01*
G01X2014509Y4449871D01*
G01X2010759Y4429806D01*
G01X1575013Y4429806D01*
G01X1575013Y4588600D01*
G01X2010287Y4588600D01*
G01X2012237Y4578798D01*
G01X2017789Y4570489D01*
G01X2026098Y4564937D01*
G01X2035900Y4562987D01*
G01X2205900Y4562987D01*
G01X2215702Y4564937D01*
G01X2224011Y4570489D01*
G01X2229563Y4578798D01*
G01X2231513Y4588600D01*
G01X2231513Y4758600D01*
G01X2229563Y4768402D01*
G01X2224011Y4776711D01*
G01X2215702Y4782263D01*
G01X2205900Y4784213D01*
G01X2035900Y4784213D01*
G01X2026098Y4782263D01*
G01X2017789Y4776711D01*
G01X2012237Y4768402D01*
G01X2010287Y4758600D01*
G01X2010287Y4588600D01*
G01X2010287Y4588600D01*
G01X1575013Y4588600D01*
G01X1575013Y6552567D01*
G01X5047766Y6552567D01*
G01X5049899Y6537863D01*
G01X5055816Y6524235D01*
G01X5065103Y6512637D01*
G01X5077108Y6503883D01*
G01X5090989Y6498586D01*
G01X5105774Y6497118D01*
G01X5149394Y6453498D01*
G01X5150862Y6438713D01*
G01X5156159Y6424832D01*
G01X5164913Y6412827D01*
G01X5176511Y6403540D01*
G01X5190139Y6397623D01*
G01X5204843Y6395490D01*
G01X5219591Y6397291D01*
G01X5233350Y6402899D01*
G01X5245154Y6411922D01*
G01X5245154Y6411922D01*
G01X5254177Y6423726D01*
G01X5259785Y6437485D01*
G01X5261586Y6452233D01*
G01X5259453Y6466937D01*
G01X5253536Y6480565D01*
G01X5244249Y6492163D01*
G01X5232244Y6500917D01*
G01X5218363Y6506214D01*
G01X5203578Y6507682D01*
G01X5159958Y6551302D01*
G01X5158490Y6566087D01*
G01X5153193Y6579968D01*
G01X5144439Y6591973D01*
G01X5132841Y6601260D01*
G01X5119213Y6607177D01*
G01X5104509Y6609310D01*
G01X5089761Y6607509D01*
G01X5076002Y6601901D01*
G01X5064198Y6592878D01*
G01X5055175Y6581074D01*
G01X5049567Y6567315D01*
G01X5047766Y6552567D01*
G01X1575013Y6552567D01*
G01X1575013Y6692900D01*
G01X3229446Y6692900D01*
G01X3231328Y6673790D01*
G01X3236902Y6655415D01*
G01X3245954Y6638480D01*
G01X3258136Y6623636D01*
G01X3272980Y6611454D01*
G01X3289915Y6602402D01*
G01X3308290Y6596828D01*
G01X3327400Y6594946D01*
G01X3346510Y6596828D01*
G01X3364885Y6602402D01*
G01X3381820Y6611454D01*
G01X3396664Y6623636D01*
G01X3408846Y6638480D01*
G01X3417898Y6655415D01*
G01X3423472Y6673790D01*
G01X3425354Y6692900D01*
G01X3425354Y6692900D01*
G01X3470787Y6692900D01*
G01X3472670Y6672575D01*
G01X3478256Y6652942D01*
G01X3487355Y6634670D01*
G01X3499656Y6618380D01*
G01X3514741Y6604629D01*
G01X3532095Y6593883D01*
G01X3551129Y6586509D01*
G01X3571194Y6582759D01*
G01X3591606Y6582759D01*
G01X3611671Y6586509D01*
G01X3630705Y6593883D01*
G01X3648059Y6604629D01*
G01X3663144Y6618380D01*
G01X3675445Y6634670D01*
G01X3684544Y6652942D01*
G01X3690130Y6672575D01*
G01X3692013Y6692900D01*
G01X3692013Y6692900D01*
G01X3724787Y6692900D01*
G01X3726670Y6672575D01*
G01X3732256Y6652942D01*
G01X3741355Y6634670D01*
G01X3753656Y6618380D01*
G01X3768741Y6604629D01*
G01X3786095Y6593883D01*
G01X3805129Y6586509D01*
G01X3825194Y6582759D01*
G01X3845606Y6582759D01*
G01X3865671Y6586509D01*
G01X3884705Y6593883D01*
G01X3902059Y6604629D01*
G01X3917144Y6618380D01*
G01X3929445Y6634670D01*
G01X3938544Y6652942D01*
G01X3944130Y6672575D01*
G01X3946013Y6692900D01*
G01X3946013Y6692900D01*
G01X3944130Y6713225D01*
G01X3938544Y6732858D01*
G01X3929445Y6751130D01*
G01X3917144Y6767420D01*
G01X3905648Y6777900D01*
G01X3978787Y6777900D01*
G01X3978787Y6607900D01*
G01X3980737Y6598098D01*
G01X3986289Y6589789D01*
G01X3994598Y6584237D01*
G01X4004400Y6582287D01*
G01X4174400Y6582287D01*
G01X4184202Y6584237D01*
G01X4192511Y6589789D01*
G01X4198063Y6598098D01*
G01X4200013Y6607900D01*
G01X4200013Y6777900D01*
G01X4198063Y6787702D01*
G01X4192511Y6796011D01*
G01X4184202Y6801563D01*
G01X4174400Y6803513D01*
G01X4004400Y6803513D01*
G01X4004400Y6803513D01*
G01X3994598Y6801563D01*
G01X3986289Y6796011D01*
G01X3980737Y6787702D01*
G01X3978787Y6777900D01*
G01X3905648Y6777900D01*
G01X3902059Y6781171D01*
G01X3884705Y6791917D01*
G01X3865671Y6799291D01*
G01X3845606Y6803041D01*
G01X3825194Y6803041D01*
G01X3805129Y6799291D01*
G01X3786095Y6791917D01*
G01X3768741Y6781171D01*
G01X3753656Y6767420D01*
G01X3741355Y6751130D01*
G01X3732256Y6732858D01*
G01X3726670Y6713225D01*
G01X3724787Y6692900D01*
G01X3692013Y6692900D01*
G01X3690130Y6713225D01*
G01X3684544Y6732858D01*
G01X3675445Y6751130D01*
G01X3663144Y6767420D01*
G01X3648059Y6781171D01*
G01X3630705Y6791917D01*
G01X3611671Y6799291D01*
G01X3591606Y6803041D01*
G01X3571194Y6803041D01*
G01X3551129Y6799291D01*
G01X3532095Y6791917D01*
G01X3514741Y6781171D01*
G01X3499656Y6767420D01*
G01X3487355Y6751130D01*
G01X3478256Y6732858D01*
G01X3472670Y6713225D01*
G01X3470787Y6692900D01*
G01X3425354Y6692900D01*
G01X3423472Y6712010D01*
G01X3417898Y6730385D01*
G01X3408846Y6747320D01*
G01X3396664Y6762164D01*
G01X3381820Y6774346D01*
G01X3364885Y6783398D01*
G01X3346510Y6788972D01*
G01X3327400Y6790854D01*
G01X3308290Y6788972D01*
G01X3289915Y6783398D01*
G01X3272980Y6774346D01*
G01X3258136Y6762164D01*
G01X3245954Y6747320D01*
G01X3236902Y6730385D01*
G01X3231328Y6712010D01*
G01X3229446Y6692900D01*
G01X1575013Y6692900D01*
G01X1575013Y7022887D01*
G37*
G36*
G01X5772983Y6554587D02*
G01X6346091Y6554587D01*
G01X6339627Y6542799D01*
G01X6336153Y6529813D01*
G01X6335867Y6516373D01*
G01X6338786Y6503250D01*
G01X6344742Y6491198D01*
G01X6353393Y6480909D01*
G01X6353393Y6309177D01*
G01X6023207Y5978990D01*
G01X6024408Y5988507D01*
G01X6024408Y6252309D01*
G01X6033459Y6263219D01*
G01X6039488Y6276050D01*
G01X6042109Y6289982D01*
G01X6041155Y6304126D01*
G01X6036687Y6317579D01*
G01X6067296Y6317579D01*
G01X6078788Y6308163D01*
G01X6092349Y6302092D01*
G01X6107028Y6299793D01*
G01X6121796Y6301428D01*
G01X6135617Y6306881D01*
G01X6147522Y6315769D01*
G01X6156677Y6327471D01*
G01X6162440Y6341166D01*
G01X6164407Y6355893D01*
G01X6162440Y6370620D01*
G01X6156677Y6384314D01*
G01X6147522Y6396016D01*
G01X6135617Y6404905D01*
G01X6121796Y6410358D01*
G01X6107028Y6411992D01*
G01X6092349Y6409694D01*
G01X6078788Y6403623D01*
G01X6067296Y6394206D01*
G01X6005174Y6394206D01*
G01X6017389Y6401448D01*
G01X6027395Y6411525D01*
G01X6034551Y6423791D01*
G01X6038398Y6437461D01*
G01X6038691Y6451659D01*
G01X6035410Y6465475D01*
G01X6028766Y6478026D01*
G01X6019184Y6488507D01*
G01X6007277Y6496246D01*
G01X5993809Y6500749D01*
G01X5979642Y6501727D01*
G01X5965683Y6499116D01*
G01X5952827Y6493086D01*
G01X5941896Y6484021D01*
G01X5830494Y6484021D01*
G01X5820578Y6482715D01*
G01X5811337Y6478888D01*
G01X5803402Y6472799D01*
G01X5654592Y6323989D01*
G01X5641421Y6322877D01*
G01X5628876Y6318715D01*
G01X5617652Y6311734D01*
G01X5608372Y6302321D01*
G01X5601552Y6290999D01*
G01X5597569Y6278395D01*
G01X5596645Y6265210D01*
G01X5598831Y6252174D01*
G01X5604005Y6240011D01*
G01X5611881Y6229396D01*
G01X5622022Y6220918D01*
G01X5633865Y6215047D01*
G01X4484592Y5065774D01*
G01X4470514Y5064469D01*
G01X4457210Y5059686D01*
G01X4445523Y5051729D01*
G01X4436196Y5041104D01*
G01X4429820Y5028485D01*
G01X4426801Y5014673D01*
G01X4427331Y5000545D01*
G01X4395892Y5031984D01*
G01X4387957Y5038073D01*
G01X4378716Y5041900D01*
G01X4368800Y5043206D01*
G01X4292600Y5043206D01*
G01X4282684Y5041900D01*
G01X4273443Y5038073D01*
G01X4265508Y5031984D01*
G01X4223421Y4989896D01*
G01X4223421Y5005024D01*
G01X5772983Y6554587D01*
G37*
G36*
G01X5666972Y6028186D02*
G01X5655168Y6037208D01*
G01X5641409Y6042817D01*
G01X5626661Y6044617D01*
G01X5611957Y6042484D01*
G01X5598328Y6036567D01*
G01X5586731Y6027281D01*
G01X5577976Y6015276D01*
G01X5572680Y6001394D01*
G01X5571212Y5986609D01*
G01X4499354Y4914751D01*
G01X4501113Y4928376D01*
G01X4499508Y4942020D01*
G01X4494636Y4954865D01*
G01X4506907Y4959072D01*
G01X4517884Y4965985D01*
G01X4526980Y4975233D01*
G01X4533709Y4986323D01*
G01X4537712Y4998663D01*
G01X4538775Y5011591D01*
G01X5844764Y6317579D01*
G01X5935502Y6317579D01*
G01X5931033Y6304126D01*
G01X5930079Y6289982D01*
G01X5932700Y6276050D01*
G01X5938729Y6263219D01*
G01X5947781Y6252309D01*
G01X5947781Y6004377D01*
G01X5458051Y5514647D01*
G01X5466211Y5526670D01*
G01X5471011Y5540385D01*
G01X5472128Y5554873D01*
G01X5469488Y5569162D01*
G01X5463267Y5582294D01*
G01X5453882Y5593388D01*
G01X5441964Y5601700D01*
G01X5428311Y5606674D01*
G01X5413838Y5607975D01*
G01X5399517Y5605516D01*
G01X5386307Y5599463D01*
G01X5375095Y5590220D01*
G01X5365293Y5590220D01*
G01X5355377Y5588914D01*
G01X5346136Y5585087D01*
G01X5338201Y5578998D01*
G01X4732191Y4972988D01*
G01X4718030Y4971664D01*
G01X4704656Y4966821D01*
G01X4692929Y4958772D01*
G01X4683603Y4948033D01*
G01X4677277Y4935294D01*
G01X4674357Y4921373D01*
G01X4675031Y4907166D01*
G01X4679255Y4893585D01*
G01X4686759Y4881501D01*
G01X4697059Y4871693D01*
G01X4689241Y4860429D01*
G01X4684389Y4847605D01*
G01X4682791Y4833987D01*
G01X4684543Y4820388D01*
G01X4689541Y4807621D01*
G01X4665294Y4807621D01*
G01X4655378Y4806315D01*
G01X4646138Y4802488D01*
G01X4638203Y4796399D01*
G01X4514792Y4672989D01*
G01X4502847Y4672114D01*
G01X4491360Y4668724D01*
G01X4480854Y4662974D01*
G01X4471807Y4655125D01*
G01X4471807Y4778837D01*
G01X5625396Y5932426D01*
G01X5640181Y5933893D01*
G01X5654062Y5939190D01*
G01X5666067Y5947944D01*
G01X5675354Y5959542D01*
G01X5681271Y5973170D01*
G01X5683404Y5987874D01*
G01X5681603Y6002623D01*
G01X5675995Y6016381D01*
G01X5666972Y6028186D01*
G37*
G36*
G01X5071180Y5203611D02*
G01X5378142Y5510573D01*
G01X5389292Y5502607D01*
G01X5402041Y5497581D01*
G01X5415627Y5495795D01*
G01X5429242Y5497355D01*
G01X5442072Y5502169D01*
G01X5453352Y5509949D01*
G01X5108614Y5165210D01*
G01X5103197Y5178057D01*
G01X5094781Y5189172D01*
G01X5083885Y5197868D01*
G01X5071180Y5203611D01*
G37*
G54D10*
G01X1575013Y7022887D02*
G01X8013487Y7022887D01*
G01X8013487Y1867113D01*
G01X1575013Y1867113D01*
G01X1575013Y7022887D01*
G01X1878104Y3401065D02*
G01X1818104Y3401065D01*
G03X1818104Y3255157I0J-72954D01*
G01X1878104Y3255157D01*
G03X1878104Y3401065I0J72954D01*
G01X1878104Y2536043D02*
G01X1818104Y2536043D01*
G03X1818104Y2390135I0J-72954D01*
G01X1878104Y2390135D01*
G03X1878104Y2536043I0J72954D01*
G01X2010287Y4588600D02*
G03X2035900Y4562987I25613J0D01*
G01X2205900Y4562987D01*
G03X2231513Y4588600I0J25613D01*
G01X2231513Y4758600D01*
G03X2205900Y4784213I-25613J0D01*
G01X2035900Y4784213D01*
G03X2010287Y4758600I0J-25613D01*
G01X2010287Y4588600D01*
G01X2120900Y4530213D02*
G03X2120900Y4308987I0J-110613D01*
G03X2120900Y4530213I0J110613D01*
G01X3303285Y4055290D02*
G03X3300206Y3976406I38313J-40998D01*
G01X2276470Y3976406D01*
G01X2273513Y3979362D01*
G01X2273513Y4051300D01*
G03X2262292Y4078392I-38313J0D01*
G01X2221365Y4119318D01*
G03X2042685Y4243815I-100465J46282D01*
G03X2167182Y4065135I78215J-78215D01*
G01X2196887Y4035430D01*
G01X2196887Y3973414D01*
G03X2022946Y3911600I-75987J-61814D01*
G03X2196887Y3849786I97954J0D01*
G01X2196887Y3775890D01*
G03X2235200Y3678779I38313J-40998D01*
G03X2273513Y3775890I0J56114D01*
G01X2273513Y3899779D01*
G01X3454400Y3899779D01*
G03X3481492Y3911001I0J38313D01*
G01X3683193Y4112702D01*
G01X3683193Y2700099D01*
G03X3721506Y2602987I38313J-40998D01*
G03X3759820Y2700099I0J56114D01*
G01X3759820Y3894236D01*
G03X3823466Y3876026I44287J34458D01*
G03X3860168Y3931120I-19359J52669D01*
G03X3867821Y3954094I-30661J22974D01*
G01X3867821Y4040096D01*
G03X3863571Y4125685I-38313J40998D01*
G03X3872762Y4158405I-46891J30821D01*
G01X3887204Y4172848D01*
G01X3887180Y4171493D01*
G01X3887180Y2307763D01*
G01X3878014Y2298597D01*
G03X3836438Y2202837I-1898J-56082D01*
G03X3932198Y2244413I39678J39678D01*
G01X3952585Y2264801D01*
G03X3963807Y2291893I-27092J27092D01*
G01X3963807Y4155623D01*
G01X3985318Y4177134D01*
G03X4000287Y4153736I53282J17600D01*
G01X4000287Y3813734D01*
G03X4011508Y3786642I38313J0D01*
G01X4338118Y3460032D01*
G03X4382375Y3403280I56082J-1898D01*
G03X4446083Y3436759I11825J54854D01*
G03X4499649Y3432159I30997J46775D01*
G03X4532497Y3474720I-22569J51375D01*
G01X4865202Y3142016D01*
G03X4871907Y3136668I27092J27092D01*
G03X4971773Y3154135I45787J32439D01*
G03X4895109Y3220475I-54079J14972D01*
G01X4341383Y3774202D01*
G03X4385651Y3813417I-9489J55306D01*
G03X4370207Y3870505I-53757J16090D01*
G01X4370207Y4362907D01*
G03X4362555Y4385881I-38313J0D01*
G03X4361336Y4400186I-56061J2426D01*
G01X4406433Y4355089D01*
G01X4406433Y4074617D01*
G03X4417654Y4047526I38313J0D01*
G01X4568363Y3896817D01*
G01X4548244Y3876699D01*
G03X4494504Y3842091I-1898J-56082D01*
G03X4508033Y3779619I51842J-21474D01*
G01X4508033Y3719017D01*
G03X4515685Y3696043I38313J0D01*
G03X4605601Y3648867I56061J-2426D01*
G03X4584659Y3748225I-33855J44750D01*
G01X4584659Y3779619D01*
G03X4602428Y3822515I-38313J40998D01*
G01X4638416Y3858504D01*
G01X4911748Y3858504D01*
G03X4954644Y3840736I40998J38313D01*
G01X5889566Y2905814D01*
G03X5892587Y2826865I41334J-37951D01*
G01X5892587Y2461463D01*
G03X5903808Y2434372I38313J0D01*
G01X5943068Y2395112D01*
G03X6038828Y2353535I56082J-1898D01*
G03X5997252Y2449295I-39678J39678D01*
G01X5969213Y2477333D01*
G01X5969213Y2826865D01*
G03X5986866Y2871938I-38313J40998D01*
G01X6012779Y2846024D01*
G01X6012779Y2750492D01*
G03X6051093Y2653381I38313J-40998D01*
G03X6089406Y2750492I0J56114D01*
G01X6089406Y2861894D01*
G03X6078184Y2888986I-38313J0D01*
G01X5987806Y2979364D01*
G01X5987806Y3332434D01*
G03X6051297Y3313492I44694J33929D01*
G03X6088582Y3368262I-18797J52872D01*
G01X6126190Y3405871D01*
G01X6126190Y3075892D01*
G03X6126190Y2993896I38313J-40998D01*
G01X6126190Y2072592D01*
G03X6164504Y1975480I38313J-40998D01*
G03X6202817Y2072592I0J56114D01*
G01X6202817Y2993896D01*
G03X6202817Y3075892I-38313J40998D01*
G01X6202817Y3971796D01*
G03X6182942Y4065791I-38313J40998D01*
G03X6109017Y4004430I-18439J-52998D01*
G01X6088582Y4024865D01*
G03X6067538Y4070594I-56082J1898D01*
G01X6575836Y4070594D01*
G01X6611825Y4034605D01*
G03X6629593Y3991709I56082J-1898D01*
G01X6629593Y3409806D01*
G03X6565541Y3426245I-43297J-35695D01*
G03X6530313Y3370282I20755J-52134D01*
G01X6449185Y3451410D01*
G03X6353425Y3492986I-56082J1898D01*
G03X6395002Y3397226I39678J-39678D01*
G01X6489422Y3302806D01*
G03X6531557Y3246555I56082J-1898D01*
G01X6494226Y3209224D01*
G01X6398694Y3209224D01*
G03X6301583Y3170911I-40998J-38313D01*
G03X6398694Y3132597I56114J0D01*
G01X6510096Y3132597D01*
G03X6537188Y3143819I0J38313D01*
G01X6629593Y3236224D01*
G01X6629593Y3159577D01*
G01X6590015Y3119999D01*
G03X6578793Y3092907I27092J-27092D01*
G01X6578793Y2864307D01*
G03X6590015Y2837216I38313J0D01*
G01X6640815Y2786416D01*
G03X6667906Y2775194I27092J27092D01*
G01X6680393Y2775194D01*
G01X6680393Y2067105D01*
G03X6718706Y1969994I38313J-40998D01*
G03X6757020Y2067105I0J56114D01*
G01X6757020Y2797637D01*
G01X6796598Y2837216D01*
G03X6807820Y2864307I-27092J27092D01*
G01X6807820Y2889707D01*
G03X6796598Y2916799I-38313J0D01*
G01X6777010Y2936387D01*
G01X6777010Y2995699D01*
G03X6792377Y3053041I-38313J40998D01*
G03X6747663Y3092090I-53681J-16344D01*
G01X6765788Y3110215D01*
G03X6777010Y3137306I-27092J27092D01*
G01X6777010Y3959908D01*
G03X6777010Y4041904I-38313J40998D01*
G01X6777010Y4683808D01*
G03X6777010Y4765804I-38313J40998D01*
G01X6777010Y5623608D01*
G03X6738696Y5720720I-38313J40998D01*
G03X6700383Y5623608I0J-56114D01*
G01X6700383Y4765804D01*
G03X6700383Y4683808I38313J-40998D01*
G01X6700383Y4078468D01*
G03X6666008Y4088789I-32476J-45761D01*
G01X6618798Y4135999D01*
G03X6591706Y4147221I-27092J-27092D01*
G01X6579220Y4147221D01*
G01X6579220Y4210507D01*
G03X6567998Y4237599I-38313J0D01*
G01X6546188Y4259409D01*
G03X6542425Y4281592I-56082J1898D01*
G01X6555034Y4281592D01*
G01X6565622Y4271003D01*
G03X6661382Y4229427I56082J-1898D01*
G03X6619806Y4325187I-39678J39678D01*
G01X6597995Y4346997D01*
G03X6570904Y4358218I-27092J-27092D01*
G01X6442559Y4358218D01*
G03X6464578Y4404709I-34063J44592D01*
G01X6475166Y4415297D01*
G01X6570698Y4415297D01*
G03X6667810Y4453611I40998J38313D01*
G03X6570698Y4491924I-56114J0D01*
G01X6459296Y4491924D01*
G03X6432205Y4480702I0J-38313D01*
G01X6410394Y4458892D01*
G03X6355653Y4421687I-1898J-56082D01*
G03X6374433Y4358218I52844J-18876D01*
G01X6281974Y4358218D01*
G01X6253617Y4386575D01*
G01X6253617Y4415338D01*
G01X6289606Y4451326D01*
G03X6331182Y4547086I1898J56082D01*
G03X6235422Y4505510I-39678J-39678D01*
G01X6202817Y4472904D01*
G01X6202817Y4697296D01*
G03X6202817Y4779292I-38313J40998D01*
G01X6202817Y4874824D01*
G01X6289606Y4961612D01*
G03X6331182Y5057372I1898J56082D01*
G03X6235422Y5015796I-39678J-39678D01*
G01X6137412Y4917785D01*
G03X6126190Y4890694I27092J-27092D01*
G01X6126190Y4779292D01*
G03X6126190Y4697296I38313J-40998D01*
G01X6126190Y4398564D01*
G01X6039402Y4311775D01*
G03X5994701Y4219407I-1898J-56082D01*
G01X5760989Y4219407D01*
G01X6023795Y4482213D01*
G03X6077535Y4516820I1898J56082D01*
G03X6064006Y4579292I-51842J21474D01*
G01X6064006Y5513024D01*
G01X6159507Y5608525D01*
G03X6201083Y5704285I1898J56082D01*
G03X6105323Y5662708I-39678J-39678D01*
G01X5998601Y5555986D01*
G03X5987379Y5528894I27092J-27092D01*
G01X5987379Y4579292D01*
G03X5969611Y4536396I38313J-40998D01*
G01X5641878Y4208662D01*
G03X5591485Y4206033I-22585J-51368D01*
G03X5563580Y4163990I27808J-48739D01*
G01X5493984Y4233586D01*
G03X5466893Y4244807I-27092J-27092D01*
G01X5152291Y4244807D01*
G03X5090614Y4258658I-40998J-38313D01*
G03X5055715Y4318980I-55521J8135D01*
G01X5644693Y4318980D01*
G03X5671784Y4330202I0J38313D01*
G01X5845995Y4504412D01*
G03X5887571Y4600172I1898J56082D01*
G03X5791811Y4558596I-39678J-39678D01*
G01X5628823Y4395607D01*
G01X5061823Y4395607D01*
G03X5071388Y4428890I-46516J31384D01*
G01X5285176Y4642678D01*
G01X5406108Y4642678D01*
G03X5503220Y4680991I40998J38313D01*
G03X5406108Y4719305I-56114J0D01*
G01X5269306Y4719305D01*
G03X5242215Y4708083I0J-38313D01*
G01X5017204Y4483073D01*
G03X4962198Y4408874I-1898J-56082D01*
G03X4930107Y4342711I22095J-51581D01*
G03X4991071Y4301591I54186J14583D01*
G03X4996779Y4225796I44021J-34797D01*
G01X4996779Y4206464D01*
G01X4981546Y4191230D01*
G03X4924203Y4238674I-55445J-8638D01*
G01X4913615Y4249263D01*
G01X4913615Y4446123D01*
G01X5359593Y4892101D01*
G03X5370815Y4919193I-27092J27092D01*
G01X5370815Y5106795D01*
G03X5352720Y5200137I-38313J40998D01*
G01X6418798Y6266216D01*
G03X6424277Y6273131I-27092J27092D01*
G03X6496858Y6209367I55136J-10431D01*
G03X6517726Y6303698I-17445J53333D01*
G01X6517726Y6531000D01*
G03X6506505Y6558092I-38313J0D01*
G01X6444605Y6619992D01*
G03X6417513Y6631214I-27092J-27092D01*
G01X5757113Y6631214D01*
G03X5730022Y6619992I0J-38313D01*
G01X4158016Y5047986D01*
G03X4146794Y5020894I27092J-27092D01*
G01X4146794Y4782764D01*
G01X3704405Y4340376D01*
G03X3646773Y4290813I-1898J-56082D01*
G03X3691413Y4229288I55734J-6519D01*
G01X3438530Y3976406D01*
G01X3382991Y3976406D01*
G03X3379912Y4055290I-41393J37887D01*
G01X3379912Y4074622D01*
G01X4000100Y4694811D01*
G03X4041677Y4790571I1898J56082D01*
G03X3945917Y4748994I-39678J-39678D01*
G01X3314507Y4117584D01*
G03X3303285Y4090492I27092J-27092D01*
G01X3303285Y4055290D01*
G01X2151766Y3185592D02*
G03X2277994Y3185592I63114J0D01*
G03X2151766Y3185592I-63114J0D01*
G01X2151766Y2605608D02*
G03X2277994Y2605608I63114J0D01*
G03X2151766Y2605608I-63114J0D01*
G01X2306086Y3401065D02*
G01X2226086Y3401065D01*
G03X2226086Y3255157I0J-72954D01*
G01X2306086Y3255157D01*
G03X2306086Y3401065I0J72954D01*
G01X2306086Y2536043D02*
G01X2226086Y2536043D01*
G03X2226086Y2390135I0J-72954D01*
G01X2306086Y2390135D01*
G03X2306086Y2536043I0J72954D01*
G01X2439685Y2827327D02*
G03X2439685Y2745331I38313J-40998D01*
G01X2439685Y2729408D01*
G03X2450907Y2702316I38313J0D01*
G01X2463607Y2689616D01*
G03X2490699Y2678394I27092J27092D01*
G01X2706599Y2678394D01*
G03X2733690Y2689616I0J38313D01*
G01X2907900Y2863826D01*
G03X2949477Y2959586I1898J56082D01*
G03X2853717Y2918010I-39678J-39678D01*
G01X2690729Y2755021D01*
G01X2524566Y2755021D01*
G03X2516312Y2827327I-46568J31308D01*
G01X2516312Y2964129D01*
G03X2508660Y2987103I-38313J0D01*
G03X2418744Y3034279I-56061J2426D01*
G03X2439685Y2934922I33855J-44750D01*
G01X2439685Y2827327D01*
G01X3003197Y3124356D02*
G03X2956514Y3195964I-53800J15948D01*
G03X2893316Y3138405I-7117J-55661D01*
G01X2789331Y3034421D01*
G01X2719199Y3034421D01*
G03X2622088Y2996108I-40998J-38313D01*
G03X2719199Y2957794I56114J0D01*
G01X2805201Y2957794D01*
G03X2832293Y2969016I0J38313D01*
G01X2936308Y3073031D01*
G03X2994196Y3013229I55990J-3720D01*
G01X3219206Y2788219D01*
G03X3246298Y2776997I27092J27092D01*
G01X3281500Y2776997D01*
G03X3324396Y2759229I40998J38313D01*
G01X3413635Y2669990D01*
G03X3509395Y2628414I56082J-1898D01*
G03X3467818Y2724174I-39678J39678D01*
G01X3378579Y2813412D01*
G03X3343972Y2867153I-56082J1898D01*
G03X3281500Y2853624I-21474J-51842D01*
G01X3262168Y2853624D01*
G01X3048379Y3067412D01*
G03X3003197Y3124356I-56082J1898D01*
G01X3425354Y6692900D02*
G03X3229446Y6692900I-97954J0D01*
G03X3425354Y6692900I97954J0D01*
G01X3692013Y6692900D02*
G03X3470787Y6692900I-110613J0D01*
G03X3692013Y6692900I110613J0D01*
G01X3946013Y6692900D02*
G03X3724787Y6692900I-110613J0D01*
G03X3946013Y6692900I110613J0D01*
G01X4004400Y6803513D02*
G03X3978787Y6777900I0J-25613D01*
G01X3978787Y6607900D01*
G03X4004400Y6582287I25613J0D01*
G01X4174400Y6582287D01*
G03X4200013Y6607900I0J25613D01*
G01X4200013Y6777900D01*
G03X4174400Y6803513I-25613J0D01*
G01X4004400Y6803513D01*
G01X5245154Y6411922D02*
G03X5203578Y6507682I-39678J39678D01*
G01X5159958Y6551302D01*
G03X5064198Y6592878I-56082J1898D01*
G03X5105774Y6497118I39678J-39678D01*
G01X5149394Y6453498D01*
G03X5245154Y6411922I56082J-1898D01*
G01X6635982Y5204329D02*
G03X6594406Y5300089I-39678J39678D01*
G01X6521795Y5372699D01*
G03X6510535Y5380497I-27092J-27092D01*
G01X6531689Y5380497D01*
G03X6631046Y5359556I54608J12913D01*
G03X6583870Y5449472I-44750J33855D01*
G03X6560896Y5457124I-22974J-30661D01*
G01X6433896Y5457124D01*
G03X6406805Y5445902I0J-38313D01*
G01X6359594Y5398692D01*
G03X6306899Y5318771I-1898J-56082D01*
G03X6402047Y5308234I50798J23840D01*
G03X6481854Y5304274I41857J37373D01*
G01X6540222Y5245906D01*
G03X6635982Y5204329I56082J-1898D01*
G01X6497247Y2208945D02*
G03X6403224Y2165465I-37951J-41334D01*
G03X6500294Y2129297I56073J2145D01*
G01X6510096Y2129297D01*
G03X6537188Y2140519I0J38313D01*
G01X6638788Y2242119D01*
G03X6650010Y2269211I-27092J27092D01*
G01X6650010Y2329813D01*
G03X6625029Y2425317I-38313J40998D01*
G03X6558784Y2352127I-13333J-54507D01*
G03X6543606Y2353689I-13280J-54520D01*
G01X6449185Y2448110D01*
G03X6353425Y2489686I-56082J1898D01*
G03X6395002Y2393926I39678J-39678D01*
G01X6489422Y2299506D01*
G03X6531557Y2243255I56082J-1898D01*
G01X6497247Y2208945D01*
G01X7119386Y2235200D02*
G03X7231614Y2235200I56114J0D01*
G03X7119386Y2235200I-56114J0D01*
G01X5772983Y6554587D02*
G01X6346091Y6554587D01*
G03X6353393Y6480909I45616J-32680D01*
G01X6353393Y6309177D01*
G01X6023207Y5978990D01*
G03X6024408Y5988507I-37113J9517D01*
G01X6024408Y6252309D01*
G03X6036687Y6317579I-38313J40998D01*
G01X6067296Y6317579D01*
G03X6164407Y6355893I40998J38313D01*
G03X6067296Y6394206I-56114J0D01*
G01X6005174Y6394206D01*
G03X6028766Y6478026I-22280J51501D01*
G03X5941896Y6484021I-45872J-32319D01*
G01X5830494Y6484021D01*
G03X5803402Y6472799I0J-38313D01*
G01X5654592Y6323989D01*
G03X5597569Y6278395I-1898J-56082D01*
G03X5633865Y6215047I55125J-10488D01*
G01X4484592Y5065774D01*
G03X4427331Y5000545I-1898J-56082D01*
G01X4395892Y5031984D01*
G03X4368800Y5043206I-27092J-27092D01*
G01X4292600Y5043206D01*
G03X4265508Y5031984I0J-38313D01*
G01X4223421Y4989896D01*
G01X4223421Y5005024D01*
G01X5772983Y6554587D01*
G01X5666972Y6028186D02*
G03X5571212Y5986609I-39678J-39678D01*
G01X4499354Y4914751D01*
G03X4494636Y4954865I-54354J13941D01*
G03X4538775Y5011591I-11943J54828D01*
G01X5844764Y6317579D01*
G01X5935502Y6317579D01*
G03X5947781Y6252309I50593J-24272D01*
G01X5947781Y6004377D01*
G01X5458051Y5514647D01*
G03X5453882Y5593388I-41958J37260D01*
G03X5375095Y5590220I-37790J-41481D01*
G01X5365293Y5590220D01*
G03X5338201Y5578998I0J-38313D01*
G01X4732191Y4972988D01*
G03X4677277Y4935294I-1898J-56082D01*
G03X4697059Y4871693I53016J-18387D01*
G03X4689541Y4807621I41844J-37387D01*
G01X4665294Y4807621D01*
G03X4638203Y4796399I0J-38313D01*
G01X4514792Y4672989D01*
G03X4471807Y4655125I-1898J-56082D01*
G01X4471807Y4778837D01*
G01X5625396Y5932426D01*
G03X5666972Y6028186I1898J56082D01*
G01X5071180Y5203611D02*
G01X5378142Y5510573D01*
G03X5453352Y5509949I37951J41334D01*
G01X5108614Y5165210D01*
G03X5071180Y5203611I-54014J-15208D01*
G54D11*
G01X1848104Y2522835D02*
G01X1848104Y2525883D01*
G01X1848104Y2403343D02*
G01X1848104Y2400295D01*
G54D12*
G01X1937850Y2463089D02*
G01X1940898Y2463089D01*
G01X1758358Y2463089D02*
G01X1755310Y2463089D01*
G54D13*
G01X2266086Y2403343D02*
G01X2266086Y2400295D01*
G54D12*
G01X2365832Y2463089D02*
G01X2368880Y2463089D01*
G01X2166341Y2463089D02*
G01X2163293Y2463089D01*
G54D13*
G01X2266086Y3387857D02*
G01X2266086Y3390905D01*
G54D12*
G01X2365832Y3328111D02*
G01X2368880Y3328111D01*
G01X2166341Y3328111D02*
G01X2163293Y3328111D01*
G54D11*
G01X1848104Y3387857D02*
G01X1848104Y3390905D01*
G01X1848104Y3268365D02*
G01X1848104Y3265317D01*
G54D12*
G01X1937850Y3328111D02*
G01X1940898Y3328111D01*
G01X1758358Y3328111D02*
G01X1755310Y3328111D01*
G54D14*
G01X2120900Y3996346D02*
G01X2120900Y3999394D01*
G01X2120900Y3826854D02*
G01X2120900Y3823806D01*
G01X2036154Y3911600D02*
G01X2033106Y3911600D01*
G01X3412146Y6692900D02*
G01X3415194Y6692900D01*
G01X3242654Y6692900D02*
G01X3239606Y6692900D01*
G01X3327400Y6608154D02*
G01X3327400Y6605106D01*
G01X3327400Y6777646D02*
G01X3327400Y6780694D01*
G04 Copper End*

G04 Pad Start*
G54D15*
G01X4089400Y6692900D03*
G54D16*
G01X3835400Y6692900D03*
G01X3581400Y6692900D03*
G01X3327400Y6692900D03*
G54D15*
G01X2120900Y4673600D03*
G54D16*
G01X2120900Y4419600D03*
G01X2120900Y4165600D03*
G01X2120900Y3911600D03*
G54D17*
G01X1848104Y2463089D03*
G54D18*
G01X2266086Y2463089D03*
G01X2266086Y3328111D03*
G54D17*
G01X1848104Y3328111D03*
G04 Pad End*

G04 Via Start*
G54D20*
G01X7175500Y2235200D03*
G01X5999150Y2393213D03*
G01X5930900Y2867863D03*
G01X6032500Y3366364D03*
G01X6032500Y4026764D03*
G01X4952746Y3896817D03*
G01X4546346Y3820617D03*
G01X4571746Y3693617D03*
G01X4647946Y4624959D03*
G01X4738903Y4834306D03*
G01X5054600Y5150002D03*
G01X4190746Y4497959D03*
G01X3469716Y2668092D03*
G01X3322498Y2815311D03*
G01X2992298Y3069311D03*
G01X5332501Y5147793D03*
G01X4926101Y4182593D03*
G01X4257294Y3804107D03*
G01X4917694Y3169107D03*
G01X6393104Y2450008D03*
G01X6545504Y2297608D03*
G01X6611696Y2370811D03*
G01X6459296Y2167611D03*
G01X4662907Y4185107D03*
G01X5424907Y3626307D03*
G01X6393104Y3453308D03*
G01X6545504Y3300908D03*
G01X6586296Y3374111D03*
G01X6357696Y3170911D03*
G01X5111293Y4206494D03*
G01X6291504Y4507408D03*
G01X6621704Y4269105D03*
G01X6611696Y4453611D03*
G01X6408496Y4402811D03*
G01X4730293Y4916907D03*
G01X5416093Y5551907D03*
G01X6443904Y5345608D03*
G01X6596304Y5244008D03*
G01X6586296Y5393411D03*
G01X6357696Y5342611D03*
G01X4381500Y5117236D03*
G01X4610100Y5244236D03*
G01X4159098Y3251200D03*
G01X4032098Y3124200D03*
G01X4902200Y5175402D03*
G01X5003800Y5277002D03*
G01X5549900Y4241800D03*
G01X5778500Y4394200D03*
G01X6316904Y4414012D03*
G01X6621704Y4363212D03*
G01X6627089Y5324221D03*
G01X5429098Y3276600D03*
G01X6814896Y3019704D03*
G01X6865696Y3320313D03*
G01X6865696Y2435504D03*
G01X7221296Y2664104D03*
G01X4597400Y6900012D03*
G01X5640375Y6807200D03*
G01X5447106Y4680991D03*
G01X5015306Y4426991D03*
G01X5029200Y4705198D03*
G01X4673600Y4349598D03*
G01X4978400Y4776064D03*
G01X4654093Y4451756D03*
G01X5035093Y4266794D03*
G01X4394200Y3458134D03*
G01X4038600Y4194734D03*
G01X4477080Y3483534D03*
G01X3816680Y4156507D03*
G01X4331894Y3829507D03*
G01X4306494Y4388307D03*
G01X4433494Y4540707D03*
G01X5627294Y5988507D03*
G01X5652694Y6267907D03*
G01X5982894Y6445707D03*
G01X3829507Y4081094D03*
G01X3804107Y3928694D03*
G01X3702507Y4284294D03*
G01X6479413Y6262700D03*
G01X4512107Y4337507D03*
G01X6391707Y6521907D03*
G01X4482694Y5009693D03*
G01X6108294Y6355893D03*
G01X4512894Y4616907D03*
G01X5986094Y6293307D03*
G01X5118506Y4007307D03*
G01X5677306Y3880307D03*
G01X5753506Y4007307D03*
G01X6667906Y4032707D03*
G01X6490106Y4261307D03*
G01X6738696Y3036697D03*
G01X6718706Y2026107D03*
G01X4556506Y4083507D03*
G01X5794705Y3873906D03*
G01X6738696Y4000906D03*
G01X6738696Y4724806D03*
G01X6738696Y5664606D03*
G01X6687896Y2883306D03*
G01X5085893Y4081094D03*
G01X6025693Y3700094D03*
G01X5670093Y3979494D03*
G01X5619293Y4157294D03*
G01X6025693Y4538294D03*
G01X6161405Y5664606D03*
G01X6051093Y2709494D03*
G01X4984293Y4357294D03*
G01X5847893Y4560494D03*
G01X6164504Y4738294D03*
G01X6037504Y4255694D03*
G01X6291504Y5017694D03*
G01X6164504Y4012794D03*
G01X6164504Y3034894D03*
G01X6164504Y2031594D03*
G01X5103876Y6553200D03*
G01X5205476Y6451600D03*
G01X4306494Y4933493D03*
G01X4281094Y4527093D03*
G01X4103294Y4323893D03*
G01X3876116Y2242515D03*
G01X4280306Y4679493D03*
G01X3721506Y2659101D03*
G01X3341599Y4014292D03*
G01X4001999Y4750892D03*
G01X2235200Y3734892D03*
G01X4445000Y4928692D03*
G01X2909799Y2919908D03*
G01X2477999Y2786329D03*
G01X2452599Y2989529D03*
G01X2678201Y2996108D03*
G01X2949397Y3140304D03*
G04 Via End*

G04 Track Start*
G54D21*
G01X5999150Y2393213D02*
G01X5930900Y2461463D01*
G01X5930900Y2867863D01*
G01X6032500Y3366364D02*
G01X6108700Y3442564D01*
G01X6108700Y3950564D01*
G01X6032500Y4026764D01*
G01X5930900Y2867863D02*
G01X5930900Y2918663D01*
G01X4952746Y3896817D01*
G01X4622546Y3896817D01*
G01X4546346Y3820617D01*
G01X4546346Y3719017D01*
G01X4571746Y3693617D01*
G01X4622546Y3896817D02*
G01X4444746Y4074617D01*
G01X4444746Y4421759D02*
G01X4647946Y4624959D01*
G01X4738903Y4834306D02*
G01X5054600Y5150002D01*
G01X4444746Y4370959D02*
G01X4368546Y4447159D01*
G01X4241546Y4447159D01*
G01X4190746Y4497959D01*
G01X3469716Y2668092D02*
G01X3322498Y2815311D01*
G01X3246298Y2815311D01*
G01X2992298Y3069311D01*
G01X5332501Y5147793D02*
G01X5332501Y4919193D01*
G01X4875301Y4461993D01*
G01X4875301Y4233393D01*
G01X4926101Y4182593D01*
G01X4257294Y3804107D02*
G01X4892294Y3169107D01*
G01X4917694Y3169107D01*
G01X6393104Y2450008D02*
G01X6545504Y2297608D01*
G01X6611696Y2370811D02*
G01X6611696Y2269211D01*
G01X6510096Y2167611D01*
G01X6459296Y2167611D01*
G01X4662907Y4185107D02*
G01X4840707Y4007307D01*
G01X5018507Y4007307D01*
G01X5399507Y3626307D01*
G01X5424907Y3626307D01*
G01X6393104Y3453308D02*
G01X6545504Y3300908D01*
G01X6586296Y3374111D02*
G01X6611696Y3348711D01*
G01X6611696Y3272511D01*
G01X6510096Y3170911D01*
G01X6357696Y3170911D01*
G01X5111293Y4206494D02*
G01X5466893Y4206494D01*
G01X5593893Y4079494D01*
G01X5644693Y4079494D01*
G01X5746293Y4181094D01*
G01X6051093Y4181094D01*
G01X6152693Y4282694D01*
G01X6152693Y4308094D01*
G01X6215304Y4370705D01*
G01X6215304Y4431208D01*
G01X6291504Y4507408D01*
G01X6215304Y4370705D02*
G01X6266104Y4319905D01*
G01X6570904Y4319905D01*
G01X6621704Y4269105D01*
G01X6611696Y4453611D02*
G01X6459296Y4453611D01*
G01X6408496Y4402811D01*
G01X4730293Y4916907D02*
G01X5365293Y5551907D01*
G01X5416093Y5551907D01*
G01X6443904Y5345608D02*
G01X6494704Y5345608D01*
G01X6596304Y5244008D01*
G01X6586296Y5393411D02*
G01X6560896Y5418811D01*
G01X6433896Y5418811D01*
G01X6357696Y5342611D01*
G01X4381500Y5117236D02*
G01X4483100Y5117236D01*
G01X4610100Y5244236D01*
G01X4159098Y3251200D02*
G01X4032098Y3124200D01*
G01X4902200Y5175402D02*
G01X5003800Y5277002D01*
G01X5549900Y4241800D02*
G01X5626100Y4241800D01*
G01X5778500Y4394200D01*
G01X6316904Y4414012D02*
G01X6418504Y4515612D01*
G01X6647104Y4515612D01*
G01X6672504Y4490212D01*
G01X6672504Y4414012D01*
G01X6621704Y4363212D01*
G01X6647104Y4515612D02*
G01X6672504Y4541012D01*
G01X6672504Y5278806D01*
G01X6627089Y5324221D01*
G01X4159098Y3251200D02*
G01X4311498Y3098800D01*
G01X5251298Y3098800D01*
G01X5429098Y3276600D01*
G01X6814896Y3019704D02*
G01X6814896Y3269513D01*
G01X6865696Y3320313D01*
G01X6814896Y3019704D02*
G01X6814896Y2740304D01*
G01X6840296Y2714904D01*
G01X6840296Y2460904D02*
G01X6865696Y2435504D01*
G01X6840296Y2664104D02*
G01X7221296Y2664104D01*
G01X4597400Y6900012D02*
G01X5547563Y6900012D01*
G01X5640375Y6807200D01*
G01X5447106Y4680991D02*
G01X5269306Y4680991D01*
G01X5015306Y4426991D01*
G01X5029200Y4705198D02*
G01X4673600Y4349598D01*
G01X4978400Y4776064D02*
G01X4654093Y4451756D01*
G01X4654093Y4419194D01*
G01X4603293Y4368394D01*
G01X4603293Y4317594D01*
G01X4654093Y4266794D01*
G01X4755693Y4266794D01*
G01X4908093Y4114394D01*
G01X4958893Y4114394D01*
G01X5035093Y4190594D01*
G01X5035093Y4266794D01*
G01X4394200Y3458134D02*
G01X4038600Y3813734D01*
G01X4038600Y4194734D01*
G01X4477080Y3483534D02*
G01X4172280Y3788334D01*
G01X4172280Y4347134D01*
G01X4121480Y4397934D01*
G01X4058107Y4397934D01*
G01X3816680Y4156507D01*
G01X4331894Y3829507D02*
G01X4331894Y4362907D01*
G01X4306494Y4388307D01*
G01X4433494Y4540707D02*
G01X4433494Y4794707D01*
G01X5627294Y5988507D01*
G01X5652694Y6267907D02*
G01X5830494Y6445707D01*
G01X5982894Y6445707D01*
G01X3829507Y4081094D02*
G01X3829507Y3954094D01*
G01X3804107Y3928694D01*
G01X3702507Y4284294D02*
G01X4185107Y4766894D01*
G01X4185107Y5020894D01*
G01X5757113Y6592900D01*
G01X6417513Y6592900D01*
G01X6479413Y6531000D01*
G01X6479413Y6262700D01*
G01X4512107Y4337507D02*
G01X4512107Y4399055D01*
G01X4918507Y4805455D01*
G01X4918507Y4820107D01*
G01X6391707Y6293307D01*
G01X6391707Y6521907D01*
G01X4482694Y5009693D02*
G01X5828894Y6355893D01*
G01X6108294Y6355893D01*
G01X4512894Y4616907D02*
G01X4665294Y4769307D01*
G01X4766894Y4769307D01*
G01X5986094Y5988507D01*
G01X5986094Y6293307D01*
G01X5118506Y4007307D02*
G01X5245506Y3880307D01*
G01X5677306Y3880307D01*
G01X5753506Y4007307D02*
G01X5855106Y4108907D01*
G01X6591706Y4108907D02*
G01X6667906Y4032707D01*
G01X6540906Y4108907D02*
G01X6540906Y4210507D01*
G01X6490106Y4261307D01*
G01X6667906Y4032707D02*
G01X6667906Y3143707D01*
G01X6617106Y3092907D01*
G01X6617106Y2864307D01*
G01X6667906Y2813507D01*
G01X6718706Y2813507D01*
G01X6769506Y2864307D01*
G01X6769506Y2889707D01*
G01X6738696Y2920517D01*
G01X6738696Y3036697D01*
G01X6718706Y2813507D02*
G01X6718706Y2026107D01*
G01X4556506Y4083507D02*
G01X4683506Y3956507D01*
G01X4988306Y3956507D01*
G01X5394706Y3550107D01*
G01X5470906Y3550107D01*
G01X5794705Y3873906D01*
G01X6738696Y4000906D02*
G01X6738696Y4724806D01*
G01X6738696Y5664606D01*
G01X6738696Y4000906D02*
G01X6738696Y3137306D01*
G01X6662496Y3061106D01*
G01X6662496Y2908706D01*
G01X6687896Y2883306D01*
G01X5085893Y4081094D02*
G01X5441493Y4081094D01*
G01X5568493Y3954094D01*
G01X5695493Y3954094D02*
G01X5720893Y3928694D01*
G01X5771693Y3928694D01*
G01X5797093Y3954094D01*
G01X5822493Y3954094D01*
G01X6025693Y3750894D01*
G01X6025693Y3700094D01*
G01X5670093Y3954094D02*
G01X5670093Y3979494D01*
G01X5619293Y4157294D02*
G01X5644693Y4157294D01*
G01X6025693Y4538294D01*
G01X6025693Y5528894D01*
G01X6161405Y5664606D01*
G01X6025693Y3700094D02*
G01X5949493Y3623894D01*
G01X5949493Y2963494D01*
G01X6051093Y2861894D01*
G01X6051093Y2709494D01*
G01X4984293Y4357294D02*
G01X5644693Y4357294D01*
G01X5847893Y4560494D01*
G01X6164504Y4738294D02*
G01X6164504Y4382694D01*
G01X6037504Y4255694D01*
G01X6164504Y4738294D02*
G01X6164504Y4890694D01*
G01X6291504Y5017694D01*
G01X6164504Y4012794D02*
G01X6164504Y3034894D01*
G01X6164504Y2031594D01*
G01X5103876Y6553200D02*
G01X5205476Y6451600D01*
G01X4306494Y4933493D02*
G01X4357294Y4882693D01*
G01X4357294Y4603293D01*
G01X4281094Y4527093D01*
G01X4103294Y4323893D02*
G01X4077894Y4323893D01*
G01X3925494Y4171493D01*
G01X3925494Y2291893D01*
G01X3876116Y2242515D01*
G01X4280306Y4679493D02*
G01X4254906Y4679493D01*
G01X3721506Y4146093D01*
G01X3721506Y2659101D01*
G01X3341599Y4014292D02*
G01X3341599Y4090492D01*
G01X4001999Y4750892D01*
G01X2235200Y4051300D02*
G01X2120900Y4165600D01*
G01X2235200Y3963492D02*
G01X2260600Y3938092D01*
G01X3454400Y3938092D01*
G01X4241800Y4725492D01*
G01X4241800Y4954092D01*
G01X4292600Y5004892D01*
G01X4368800Y5004892D01*
G01X4445000Y4928692D01*
G01X2909799Y2919908D02*
G01X2706599Y2716708D01*
G01X2490699Y2716708D01*
G01X2477999Y2729408D01*
G01X2477999Y2786329D01*
G01X2477999Y2964129D01*
G01X2452599Y2989529D01*
G01X2678201Y2996108D02*
G01X2805201Y2996108D01*
G01X2949397Y3140304D01*
G01X4444746Y4074617D02*
G01X4444746Y4370959D01*
G01X4444746Y4421759D01*
G01X6840296Y2714904D02*
G01X6840296Y2664104D01*
G01X6840296Y2460904D01*
G01X5855106Y4108907D02*
G01X6540906Y4108907D01*
G01X6591706Y4108907D01*
G01X5568493Y3954094D02*
G01X5670093Y3954094D01*
G01X5695493Y3954094D01*
G01X2235200Y3734892D02*
G01X2235200Y3963492D01*
G01X2235200Y4051300D01*
G04 Track End*

M02*

